<svg width="246" height="410" viewBox="0 0 246 410" fill="none" xmlns="http://www.w3.org/2000/svg"><path fill="url(#a)" d="M0 0h246v410H0z"/><mask id="b" style="mask-type:alpha" maskUnits="userSpaceOnUse" x="0" y="0" width="246" height="410"><path fill="#B1ECFF" d="M0 0h246v410H0z"/></mask><g mask="url(#b)"><path d="M-24.899 124.784-9.46 353.507v78.778c90.797-.15 279.862 0 279.862 0s14.441-128.163 17.927-161.136l-62.745 24.171 39.339-105.634-81.667 42.522 7.469-132.041-96.608 115.48-26.89-82.806-22.907 56.845-69.219-64.902Z" fill="url(#c)"/></g><mask id="d" style="mask-type:alpha" maskUnits="userSpaceOnUse" x="0" y="0" width="246" height="410"><path fill="#FF7A00" d="M0 0h246v410H0z"/></mask><g mask="url(#d)"><path d="m17.236 354.026-40.143-42.498 5.393 75.85 23.366 41.421H204.17l-33.552-17.214 23.966-15.062-65.307-6.456 7.789-78.539-72.497 50.029-24.565-45.725-22.768 38.194Z" fill="url(#e)"/></g><defs><linearGradient id="a" x1="123" y1="0" x2="123" y2="410" gradientUnits="userSpaceOnUse"><stop stop-color="#00C2FF"/><stop offset="1" stop-color="#00FFA3"/></linearGradient><linearGradient id="c" x1="131.715" y1="100.167" x2="131.715" y2="369.621" gradientUnits="userSpaceOnUse"><stop stop-color="#6A1BB9"/><stop offset="1" stop-color="#1B80B9"/></linearGradient><linearGradient id="e" x1="90.632" y1="311.528" x2="90.632" y2="428.799" gradientUnits="userSpaceOnUse"><stop stop-color="#579ADD"/><stop offset="1" stop-color="#D8E5F2"/></linearGradient></defs></svg>
