<svg width="185" height="185" fill="none" xmlns="http://www.w3.org/2000/svg"><path d="M5.782 106.46c-7.71-7.71-7.71-20.21 0-27.92L78.54 5.782c7.71-7.71 20.21-7.71 27.92 0l72.758 72.758c7.709 7.71 7.709 20.21 0 27.92l-72.758 72.758c-7.71 7.709-20.21 7.709-27.92 0L5.782 106.46z" fill="#F2F2F5"/><g clip-path="url(#clip0)"><path d="M86.716 74.198c-8.92-8.919-8.05-26.444-8.05-26.444s18.024-.372 26.445 8.049c5.079 5.079 5.079 13.315-.002 18.395-5.079 5.079-13.313 5.08-18.393 0z" fill="#00AEEF"/><path d="M51.366 83.1c8.918-8.917 26.444-8.047 26.444-8.047s.373 18.022-8.048 26.443c-5.08 5.08-13.317 5.08-18.396.001-5.081-5.082-5.08-13.316 0-18.397z" fill="#35B44A"/><path d="M77.99 110.281l14.229 14.23-3.702 3.701-5.976-5.976-1.107 1.107 5.976 5.976-3.7 3.7-14.23-14.229 3.7-3.7 5.089 5.088 1.107-1.107-5.088-5.088 3.701-3.702zM86.072 102.201l16.346 12.113-3.783 3.783-2.752-2.359-1.324 1.325 2.333 2.78-3.825 3.825-12.341-16.118 5.348-5.348-.002-.001zm7.189 11.112c-1.8-1.427-3.978-3.23-6.54-5.414 2.349 3.102 4.104 5.332 5.268 6.687l1.272-1.273zM101.65 98.956c.719-.356 1.418-.462 2.095-.311.679.152 1.778.987 3.304 2.513 1.132 1.132 1.88 2.139 2.248 3.02.367.883.396 1.802.088 2.76-.308.96-.957 1.934-1.948 2.924-1.124 1.125-2.198 1.818-3.217 2.083-1.018.262-1.904.223-2.654-.125-.749-.345-1.803-1.194-3.157-2.547l-1.126-1.126 3.551-3.551 2.312 2.312c.615.614 1.044.968 1.285 1.063.239.093.486.015.737-.237.276-.275.353-.563.23-.861-.123-.297-.629-.893-1.521-1.785l-.984-.983c-.544-.545-1.004-.883-1.38-1.011-.374-.126-.721-.111-1.041.048-.319.16-.831.582-1.535 1.262l-2.066-2.066c.844-.844 1.333-1.397 1.47-1.661.132-.263.138-.548.009-.853-.13-.303-.425-.688-.89-1.153l-.791-.791c-.497-.497-.876-.775-1.137-.831-.26-.055-.5.025-.716.242-.246.246-.332.5-.256.756.077.258.388.662.932 1.206l1.17 1.17-3.551 3.551-1.213-1.212c-1.36-1.361-1.968-2.589-1.825-3.689.146-1.098.894-2.325 2.247-3.678 1.693-1.693 3.175-2.512 4.438-2.455 1.265.06 2.487.675 3.665 1.853.797.797 1.262 1.48 1.4 2.052.135.569.079 1.274-.173 2.111zM104.908 83.365l16.347 12.112-3.782 3.782-2.755-2.355-1.323 1.323 2.333 2.78-3.825 3.825L99.56 88.716l5.35-5.35h-.002zm7.189 11.112c-1.801-1.425-3.978-3.23-6.54-5.414 2.349 3.102 4.103 5.333 5.266 6.688l1.274-1.274zM109.224 79.03l8.711-8.71 11.251 11.25 1.255-1.255 3.941 3.941-3.059 3.059-.953-.953-5.477 5.477.953.953-3.049 3.05-3.922-3.923 1.755-1.756-11.406-11.132zm14.86 7.642l1.391-1.39-8.402-8.403-1.391 1.39 8.402 8.403z" fill="#58595B"/><path d="M94.058 135.215l6.111 2.512-2.564 2.563-4.704-2.587 3.635 3.656-2.244 2.244-8.612-8.613 2.244-2.244 3.647 3.626-2.578-4.695 2.563-2.563 2.502 6.101z" fill="#35B44A"/><path d="M124.744 104.53l6.112 2.51-2.563 2.564-4.704-2.588 3.635 3.656-2.244 2.244-8.613-8.612 2.244-2.244 3.647 3.625-2.578-4.694 2.563-2.564 2.501 6.103zM107.048 130.847l-1.871 1.872-3.917-3.917 2.752 5.081-1.962 1.962-8.612-8.613 1.87-1.871 3.887 3.887-2.632-5.141 1.871-1.871 8.613 8.613.001-.002zM108.32 119.859l-2.239 2.239-1.494-1.495c-.436-.435-.732-.682-.887-.743-.157-.058-.315-.006-.478.156-.185.185-.235.366-.155.547.082.181.34.49.776.925l3.998 3.998c.418.418.717.667.893.744.18.079.354.032.528-.142.167-.167.212-.34.133-.519-.077-.181-.348-.506-.822-.98l-1.082-1.082 2.238-2.239.336.336c.89.89 1.459 1.586 1.705 2.085.247.498.295 1.102.146 1.813-.151.711-.541 1.383-1.172 2.014-.655.655-1.315 1.075-1.978 1.264-.664.188-1.274.14-1.834-.141-.557-.279-1.258-.845-2.102-1.689l-2.514-2.514c-.622-.622-1.064-1.106-1.332-1.46a2.758 2.758 0 01-.517-1.275c-.077-.501-.009-1.018.199-1.556.209-.539.556-1.051 1.042-1.537.659-.659 1.331-1.076 2.015-1.251.684-.176 1.282-.137 1.798.107.516.245 1.175.771 1.978 1.574l.821.821zM110.009 110.675l1.722 1.722-1.329 1.329 6.886 6.885-2.24 2.24-6.886-6.885-1.323 1.323-1.722-1.723 4.892-4.891zM120.786 109.977c.863.864 1.456 1.496 1.776 1.896a2.913 2.913 0 01.42 2.925c-.205.524-.55 1.031-1.036 1.517-.46.46-.95.796-1.468 1.015a2.888 2.888 0 01-1.564.207 2.876 2.876 0 01-1.383-.585c-.395-.312-1.036-.909-1.923-1.795l-1.473-1.473c-.863-.863-1.455-1.498-1.776-1.898a2.911 2.911 0 01-.601-1.369 2.897 2.897 0 01.182-1.556c.204-.523.551-1.03 1.035-1.514.462-.462.951-.799 1.47-1.017a2.889 2.889 0 011.561-.206c.526.078.988.271 1.383.584.398.313 1.038.91 1.923 1.795l1.474 1.474zm-5.067-.59c-.401-.4-.681-.635-.834-.703-.157-.066-.304-.03-.443.108a.43.43 0 00-.132.404c.027.151.267.449.71.893l4.019 4.019c.501.501.828.788.987.864.155.076.311.04.459-.108.152-.152.182-.318.09-.495s-.391-.519-.898-1.026l-3.957-3.957-.001.001zM126.676 94.006l9.886 7.328-2.286 2.287-1.668-1.426-.801.802 1.412 1.681-2.315 2.314-7.465-9.75 3.237-3.236zm4.349 6.721a142.94 142.94 0 01-3.955-3.274c1.417 1.875 2.482 3.225 3.185 4.045l.77-.771zM135.406 85.276l8.608 8.608-1.957 1.956-5.813-5.808 5.032 6.59-1.388 1.388-6.499-4.857 5.675 5.68-1.957 1.957-8.607-8.607 2.896-2.897a79.04 79.04 0 012.096 1.564l2.507 1.873-3.505-4.535 2.912-2.912z" fill="#00AEEF"/></g><defs><clipPath id="clip0"><path fill="#fff" transform="rotate(-45 116.562 27.571)" d="M0 0h107.27v112.937H0z"/></clipPath></defs></svg>