<svg width="185" height="185" fill="none" xmlns="http://www.w3.org/2000/svg"><path d="M5.782 106.46c-7.71-7.71-7.71-20.21 0-27.92L78.54 5.782c7.71-7.71 20.21-7.71 27.92 0l72.758 72.758c7.709 7.71 7.709 20.21 0 27.92l-72.758 72.758c-7.71 7.709-20.21 7.709-27.92 0L5.782 106.46z" fill="#1E252B"/><g clip-path="url(#clip0)" fill="#fff"><path d="M79.8 114.26c1.16 2.181 1.002 5.047-1.296 7.346-2.592 2.591-6.776 3.004-10.016-.236-3.024-3.024-2.787-7.267-.373-9.681 2.946-2.947 6.619-2.731 9.643.293.373.373.648.727.669.785l-6.992 6.992c1.512 1.395 3.691 1.296 5.105-.118 1.375-1.375 1.355-2.809.726-4.065l2.534-1.316zm-5.282-.923c-1.159-1.079-2.907-1.334-4.477.236-1.433 1.434-1.16 3.358-.217 4.458l4.694-4.694zM88.668 99.89l2.083-2.828c.47-.628.353-1.06.018-1.394-.804-.805-2.003-.904-3.26.353-1.197 1.198-1.1 2.631-.236 3.692l-2.552 1.611c-1.472-1.827-1.453-4.792.903-7.149 2.946-2.945 5.735-2.395 7.64-.49l4.752 4.752c.864.864 1.532 1.336 1.65 1.414l-2.12 2.121c-.08-.039-.55-.353-1.318-1.12.276 1.178.118 2.907-1.433 4.458-2.002 2.003-4.615 1.865-6.127.353-1.708-1.708-1.394-3.907 0-5.773zm4.674-1.649l-.432-.433-2.12 2.868c-.59.825-.767 1.787.018 2.572.648.648 1.729.746 2.632-.157 1.276-1.276 1.767-2.985-.098-4.85zM117.979 76.078c1.16 2.18 1.003 5.047-1.294 7.343-2.593 2.593-6.777 3.006-10.017-.234-3.024-3.024-2.788-7.266-.372-9.682 2.945-2.945 6.618-2.73 9.642.294.373.373.649.727.668.786l-6.99 6.99c1.512 1.396 3.69 1.297 5.105-.118 1.374-1.374 1.355-2.809.725-4.063l2.533-1.316zm-5.281-.924c-1.159-1.079-2.906-1.334-4.478.237-1.433 1.433-1.159 3.358-.215 4.457l4.693-4.694zM119.161 69.4l2.082-2.828c.471-.628.354-1.06.019-1.394-.804-.805-2.003-.904-3.26.353-1.198 1.198-1.1 2.632-.235 3.692l-2.553 1.611c-1.473-1.827-1.454-4.792.903-7.149 2.946-2.945 5.736-2.397 7.641-.491l4.752 4.752c.864.864 1.531 1.336 1.649 1.415l-2.12 2.12c-.079-.039-.55-.352-1.317-1.12.275 1.179.118 2.908-1.434 4.46-2.003 2.003-4.616 1.865-6.128.353-1.708-1.708-1.393-3.908.001-5.775zm4.675-1.65l-.433-.432-2.121 2.868c-.589.825-.765 1.786.02 2.571.648.649 1.728.747 2.631-.156 1.277-1.277 1.768-2.985-.097-4.85zM96.364 83.513c-1.473 1.473-1.885 3.26-1.57 4.437l-2.612-2.61-1.617-1.616c-1.307-1.306-3.074-1.323-4.397 0l-.04.04 2.272 2.27 4.476 4.477 8.064 8.064 2.219-2.22-1.276-1.275c1.472.374 3.103-.079 4.457-1.433 2.79-2.79 2.318-6.677-.569-9.564-2.809-2.808-6.54-3.437-9.407-.57zm7.58 8.483c-1.453 1.453-3.711 1.434-5.597-.452-1.903-1.904-1.865-4.104-.412-5.557 1.513-1.513 3.654-1.492 5.558.412 1.885 1.885 1.943 4.105.451 5.597zM68.892 100.999l-.04.04 2.27 2.271 4.58 4.58 7.963 7.962 2.278-2.278-7.962-7.962-4.58-4.58-.033-.033c-1.33-1.33-3.13-1.346-4.476 0zM72.935 96.954l-.04.041 2.27 2.271 4.58 4.58 7.963 7.962 2.278-2.278-7.962-7.962-4.58-4.58-.033-.033c-1.33-1.33-3.13-1.347-4.476 0zM58.06 121.818c-1.473 1.472-1.885 3.258-1.57 4.438l-2.612-2.612-1.616-1.616c-1.307-1.307-3.075-1.322-4.398.001l-.04.039 2.271 2.272 4.476 4.475 8.065 8.065 2.218-2.219-1.276-1.276c1.474.372 3.103-.079 4.459-1.434 2.788-2.789 2.317-6.677-.57-9.564-2.808-2.808-6.54-3.438-9.407-.569zm7.592 8.495c-1.453 1.452-3.711 1.435-5.597-.451-1.905-1.905-1.864-4.106-.412-5.558 1.513-1.512 3.654-1.494 5.559.411 1.885 1.886 1.942 4.105.45 5.598zM125.351 55.098l1.978-1.978 2.017 2.017-1.978 1.978 4.426 4.426c.842.842 1.566.823 2.408-.02.314-.313.628-.743.704-.861l1.881 1.88c-.078.196-.353.783-1.175 1.605-1.762 1.761-3.916 1.803-5.7.02l-4.796-4.797-1.763 1.763-2.017-2.018.49-.49c1.018-1.018.822-2.116-.019-2.958l-1.43-1.429 2.056-2.056 2.918 2.918z"/></g><defs><clipPath id="clip0"><path fill="#fff" transform="rotate(-45 141.935 41.931)" d="M0 0h142.443v85.466H0z"/></clipPath></defs></svg>