<svg width="185" height="185" fill="none" xmlns="http://www.w3.org/2000/svg"><path d="M6.49 79.247L79.247 6.49c7.32-7.32 19.186-7.32 26.506 0l72.757 72.757c7.32 7.32 7.32 19.186 0 26.506l-72.757 72.757c-7.32 7.32-19.186 7.32-26.506 0L6.49 105.753c-7.32-7.32-7.32-19.186 0-26.506z" fill="#fff" stroke="#000" stroke-width="2"/><path d="M70.72 135.666c-2.825 2.826-6.597 4.382-10.62 4.382-4.023 0-7.795-1.556-10.62-4.382-2.826-2.825-4.382-6.597-4.382-10.62 0-4.023 1.556-7.795 4.382-10.62l65.092-65.093c2.826-2.825 6.597-4.381 10.62-4.381 4.024 0 7.795 1.556 10.621 4.381 2.825 2.826 4.381 6.597 4.381 10.62 0 4.024-1.556 7.795-4.381 10.62L70.72 135.667z" fill="#fff"/><path d="M79.096 96.837a1.62 1.62 0 00-.372-.167 1.434 1.434 0 00-1.657.629 1.66 1.66 0 00-.18.407c-.038.13-.06.255-.07.377l-1.589 17.764-7.76-7.76a1.211 1.211 0 10-1.713 1.713l9.079 9.078c.102.103.22.201.362.287.107.065.23.124.372.167a1.423 1.423 0 001.442-.356c.087-.087.158-.181.215-.273.086-.139.141-.276.18-.406.038-.13.059-.254.07-.376v-.001l1.589-17.765 7.76 7.76a1.21 1.21 0 101.713-1.713l-9.079-9.078c-.102-.103-.22-.2-.362-.287zM68.943 117.989a4.885 4.885 0 00-2.747-.265 4.82 4.82 0 00-2.501 1.327l-4.454 4.453-2.74-2.74 5.652-5.653a1.211 1.211 0 00-1.713-1.713l-5.855 5.855-.479.479-.164.164-.009.009-.008.009-.007.006v.001c-.217.224-.342.53-.342.843 0 .319.13.631.355.856l2.227 2.227 2.225 2.226.001.001.002.001 5.136 5.137.001.001c.473.473 1.24.473 1.713 0v-.001l5.31-5.309c.47-.471.826-1.02 1.062-1.604a4.88 4.88 0 00.265-2.746 4.82 4.82 0 00-2.93-3.564zm.419 3.572a2.462 2.462 0 01-.1 2.045c-.11.21-.251.406-.429.584l-4.453 4.453-3.426-3.426 4.454-4.453a2.38 2.38 0 01.797-.528 2.454 2.454 0 012.045.099 2.397 2.397 0 011.112 1.226z" fill="#181716"/><path d="M130.939 45.822a15.405 15.405 0 00-8.665-.835 15.152 15.152 0 00-7.874 4.175l-65.093 65.092a15.131 15.131 0 00-3.34 5.044 15.407 15.407 0 00-.834 8.666 15.158 15.158 0 004.174 7.874 15.135 15.135 0 005.044 3.339 15.407 15.407 0 008.666.835 15.161 15.161 0 007.874-4.174l65.092-65.093a15.137 15.137 0 003.34-5.043 15.407 15.407 0 00.834-8.666 15.147 15.147 0 00-4.174-7.874 15.12 15.12 0 00-5.044-3.34zm7.036 8.927a13.95 13.95 0 01.755 7.847 13.699 13.699 0 01-3.775 7.121L69.863 134.81a13.686 13.686 0 01-4.56 3.02 13.96 13.96 0 01-7.847.755 13.7 13.7 0 01-7.12-3.775 13.666 13.666 0 01-3.02-4.56 13.954 13.954 0 01-.756-7.847 13.699 13.699 0 013.775-7.121l65.092-65.092a13.689 13.689 0 014.56-3.02 13.954 13.954 0 017.847-.755 13.698 13.698 0 017.121 3.775 13.672 13.672 0 013.02 4.56z" fill="#181716"/><path d="M119.885 53.958a1.21 1.21 0 000 1.713l3.988 3.988-9.593 9.593-3.988-3.988a1.211 1.211 0 00-1.713 1.713l9.593 9.592a1.211 1.211 0 001.713-1.713l-3.892-3.891 9.593-9.593 3.891 3.892a1.211 1.211 0 001.713-1.713l-9.592-9.593a1.211 1.211 0 00-1.713 0zM115.391 78.48l-15.246-3.94a1.211 1.211 0 00-1.475 1.475l3.939 15.246a1.212 1.212 0 002.346-.606l-.882-3.414 7.298-7.298 3.414.882a1.21 1.21 0 10.606-2.346zm-12.022 6.039l-1.84-7.12 7.12 1.84-5.28 5.28zM97.21 89.725a4.881 4.881 0 00-3.367-.102l-.002-.01a4.339 4.339 0 00-2.638-3.208 4.39 4.39 0 00-2.47-.239 4.338 4.338 0 00-2.253 1.195l-4.967 4.967a1.211 1.211 0 000 1.713l9.592 9.593a1.205 1.205 0 00.293.216c.458.24 1.036.168 1.42-.216l5.996-5.996c.47-.47.826-1.02 1.061-1.603a4.88 4.88 0 00.265-2.747 4.817 4.817 0 00-2.93-3.563zm-13.128 3.46l4.111-4.112a1.91 1.91 0 01.638-.422 1.97 1.97 0 011.637.08 1.91 1.91 0 01.888.98 1.972 1.972 0 01-.079 1.637 1.912 1.912 0 01-.343.466l-4.111 4.111-2.74-2.74zm13.547.112a2.46 2.46 0 01-.1 2.045 2.39 2.39 0 01-.428.583l-5.14 5.139-3.425-3.426 5.139-5.139c.236-.236.506-.41.797-.528a2.458 2.458 0 012.046.1 2.392 2.392 0 011.11 1.226z" fill="#181716"/></svg>