<svg width="130" height="50" fill="none" xmlns="http://www.w3.org/2000/svg"><path d="M89 35.365c-3 0-5-2.348-5-5.345s1.95-5.395 5-5.395 5 2.398 5 5.395c0 2.997-2 5.345-5 5.345zm.05-15.385c-5.5 0-10 4.445-10 9.99 0 5.495 4.45 9.99 10 9.99 5.5 0 10-4.446 10-9.99-.05-5.544-4.5-9.99-10-9.99zM120 35.365c-3 0-5-2.348-5-5.345s1.95-5.395 5-5.395 5 2.398 5 5.395c0 2.997-2.05 5.345-5 5.345zm0-15.385c-5.5 0-10 4.445-10 9.99a9.96 9.96 0 0010 9.99c5.5 0 10-4.446 10-9.99a9.96 9.96 0 00-10-9.99zM66.5 35.365c-3 0-5-2.348-5-5.395 0-3.047 1.95-5.395 5-5.395s5 2.398 5 5.395c0 3.047-2.05 5.395-5 5.395zm0-15.385c-6 0-10 3.996-10 10.989V50h5V37.662c1.25 1.549 3.4 2.298 5 2.298 5.5 0 9.95-4.446 9.95-9.99.05-5.544-4.45-9.99-9.95-9.99zM107 10.489h-5V39.46h5V10.49zM33.05 20.03c-2.6.2-4.3 1.498-5.1 3.246V10.49H23V39.46h5v-9.49c0-2.997 1.05-5.395 5-5.395s5 2.398 5 5.395v9.49h5v-9.49c-.05-6.993-4.45-10.39-9.95-9.94zM52.25 20.48h-5v18.98h5V20.48zM88.047 3.996a4.01 4.01 0 01-4 3.996c-2.2 0-4-1.798-4-3.996a4.01 4.01 0 014-3.996c2.2 0 4 1.798 4 3.996zM10 35.115c-3 0-5-2.398-5-5.195s2.05-5.195 5-5.195c1.95 0 3.75 1.249 4.45 2.897h5.25c-1-4.345-4.95-7.642-9.7-7.642-5.5 0-10 4.445-10 9.99 0 5.495 4.45 9.99 10 9.99 4.75 0 8.7-3.297 9.75-7.742h-5.3c-.7 1.648-2.5 2.897-4.45 2.897z" fill="#000"/></svg>