<svg width="185" height="185" fill="none" xmlns="http://www.w3.org/2000/svg"><path d="M5.782 106.46c-7.71-7.71-7.71-20.21 0-27.92L78.54 5.782c7.71-7.71 20.21-7.71 27.92 0l72.758 72.758c7.709 7.71 7.709 20.21 0 27.92l-72.758 72.758c-7.71 7.709-20.21 7.709-27.92 0L5.782 106.46z" fill="#F0446D"/><path d="M111.37 84.924c-1.668 1.668-4.087 1.474-5.755-.195-1.669-1.668-1.919-4.087-.223-5.783 1.696-1.696 4.115-1.445 5.783.223 1.669 1.668 1.863 4.087.195 5.755zm-8.536-8.591c-3.058 3.058-3.086 8.035 0 11.121a7.863 7.863 0 0011.122 0c3.058-3.058 3.086-8.035 0-11.121-3.114-3.059-8.063-3.059-11.122 0zM128.609 67.685c-1.669 1.669-4.087 1.474-5.756-.194-1.668-1.668-1.918-4.087-.222-5.783 1.696-1.696 4.115-1.446 5.783.222 1.668 1.668 1.835 4.115.195 5.755zm-8.564-8.563c-3.058 3.058-3.086 8.035 0 11.121a7.838 7.838 0 0011.122 0c3.058-3.058 3.086-8.035 0-11.121a7.837 7.837 0 00-11.122 0zM98.859 97.435c-1.668 1.669-4.087 1.474-5.783-.222-1.697-1.696-1.919-4.087-.223-5.783 1.696-1.696 4.115-1.446 5.783.222 1.696 1.696 1.863 4.143.223 5.783zm-8.564-8.563c-3.336 3.336-3.336 7.785.556 11.677l10.593 10.594 2.781-2.781-6.868-6.867c1.557.167 3.17-.612 4.06-1.502 3.058-3.058 3.058-8.007-.028-11.093-3.059-3.114-8.035-3.087-11.094-.028zM107.534 61.068l-2.78 2.78 16.126 16.127 2.78-2.78-16.126-16.127zM71.723 107.5c-1.334 1.557-1.557 3.226-1.028 4.644l-7.118-7.118-2.753 2.752 16.126 16.126 2.78-2.78-5.282-5.283c-1.668-1.668-2.419-3.586-.222-5.783 2.196-2.196 4.115-1.446 5.783.223l5.282 5.282 2.78-2.78-5.282-5.283c-3.92-3.864-8.258-3.308-11.066 0zM82.648 97.074l-2.78 2.78 10.565 10.566 2.78-2.78-10.565-10.566zM93.38 67.992a3.155 3.155 0 010 4.448 3.155 3.155 0 01-4.449 0 3.155 3.155 0 010-4.448 3.155 3.155 0 014.449 0zM67.302 128.714c-1.669 1.669-4.115 1.446-5.672-.111-1.557-1.557-1.752-4.031-.111-5.672 1.084-1.084 2.78-1.39 4.087-.862l2.92-2.919c-2.976-1.863-7.007-1.502-9.649 1.14-3.058 3.058-3.086 8.035 0 11.121 3.059 3.059 8.035 3.087 11.122 0 2.641-2.641 3.002-6.673 1.112-9.731l-2.947 2.947c.528 1.307.222 3.003-.862 4.087z" fill="#fff"/></svg>