<svg width="185" height="185" fill="none" xmlns="http://www.w3.org/2000/svg"><path d="M5.782 106.46c-7.71-7.71-7.71-20.21 0-27.92L78.54 5.782c7.71-7.71 20.21-7.71 27.92 0l72.758 72.758c7.709 7.71 7.709 20.21 0 27.92l-72.758 72.758c-7.71 7.709-20.21 7.709-27.92 0L5.782 106.46z" fill="#FD0"/><path fill-rule="evenodd" clip-rule="evenodd" d="M127.512 76.576a1.55 1.55 0 01-1.121.453 1.566 1.566 0 01-1.237-.64l-.218-.295-3.417 4.969a1.555 1.555 0 01-2.548.019l-.024-.034-1.866 3.478a1.547 1.547 0 01-1.272.813 1.567 1.567 0 01-1.368-.653l-.03-.043c-.022.28-.1.558-.236.815l-2.118 3.996a1.552 1.552 0 01-1.274.82 1.566 1.566 0 01-1.306-.57l-5.043 7.52a1.551 1.551 0 01-1.266.686 1.569 1.569 0 01-1.291-.649l-.482-.667a2.75 2.75 0 01-.129 2.213l-1.857 3.652a1.542 1.542 0 01-1.27.841 1.564 1.564 0 01-1.385-.651l-.153-.214c0 .273-.072.547-.218.792l-3.102 5.216a1.542 1.542 0 01-1.287.756 1.548 1.548 0 01-.718-.152 2.334 2.334 0 01-.374.827l-3.13 4.39a1.55 1.55 0 01-1.385.644l-.065-.006-1.064 1.671a1.547 1.547 0 01-1.226.714 1.556 1.556 0 01-.658-.107c-.037.23-.127.452-.268.649l-3.47 4.848a1.546 1.546 0 01-1.717.579l-.979 1.542a1.551 1.551 0 01-2.033.54 2.127 2.127 0 01-.375.966l-3.166 4.457a1.554 1.554 0 01-1.194.651l-.524.778a1.557 1.557 0 01-2.113.446l-.686-.428.4 1.38a1.555 1.555 0 01-.392 1.531l-.092.084-3.703 3.152c-.413.351-.98.461-1.497.289a1.568 1.568 0 01-1.033-1.129l-2.62-11.154-6.361-3.545a2.344 2.344 0 01-1.173-2.393l.64-4.145a1.548 1.548 0 01.852-1.156 1.56 1.56 0 011.44.04l2.505 1.392-.685-3.045a1.951 1.951 0 011.007-2.17l2.97-1.542c.063-.033.129-.061.196-.085.079-.204.182-.401.31-.586l4.504-6.519a1.551 1.551 0 011.261-.668c.505-.005.982.236 1.28.645.01.014.237.324.622.837a3.05 3.05 0 01.437-2.614l4.545-6.44a1.542 1.542 0 011.24-.655c.496-.008.966.22 1.268.613.014.017.377.49.985 1.26l-.074-.147a2.436 2.436 0 01.165-2.488l4.587-6.658a1.544 1.544 0 011.224-.67c.459-.015.9.173 1.209.51l6.458-8.02a1.553 1.553 0 011.613-.524l4.33-6.58a1.555 1.555 0 012.429-.211l.317.333c.06-.128.13-.252.21-.371l2.359-3.509a1.552 1.552 0 012.082-.466c.055-.485.226-.958.516-1.372l2.217-3.168a1.551 1.551 0 011.771-.577l2.209-3.13a1.548 1.548 0 011.715-.59 1.51 1.51 0 01.204-.407l2.784-3.98a1.552 1.552 0 011.519-.64c.048-.087.101-.171.161-.253l5.052-6.948a1.55 1.55 0 011.186-.636c.472-.02.93.175 1.243.53l3.4 3.857a1.56 1.56 0 01.149 1.868l-.373.586c.469-.034.932.147 1.256.495l2.527 2.709c.461.494.553 1.228.228 1.817l-.014.026a1.565 1.565 0 011.686.425l3.446 3.812c.488.54.54 1.344.125 1.938l-5.586 7.995.176.298c.324.55.282 1.24-.107 1.742l-2.512 3.247c-.04.052-.084.102-.13.148zM88.207 92.545c2.044 2.392 4.423 5.1 6.642 7.442l-5.98-8.359-.44.655c-.056.083-.12.16-.19.23l-.032.032zm-24.057 28.91l-.71-1.419.261 1.153.449.266z" fill="#181716"/><path fill-rule="evenodd" clip-rule="evenodd" d="M125.292 49.94l-3.398-3.858-5.084 6.979a.806.806 0 00-.01.933l8.493 12.207-1.378 1.378s-2.297-3.307-3.676-5.236c-1.377-1.93-5.098-8.406-5.098-8.406l-2.802 3.996 9.003 12.586-1.745 2.205s-7.442-10.748-9.187-13.78l-2.194 3.102c-.281.398-.28.93.005 1.325l11.743 16.336 4.685-6.799 1.516 2.067 2.527-3.261-2.481-4.226 2.205 2.48 5.788-8.268-3.445-3.812-3.261 4.271-1.241-1.791 2.619-4.731-2.527-2.71-2.067 4.088-1.745-2.757 2.755-4.317zm-21.108 15.905a1.432 1.432 0 00-.006 1.636l4.349 6.3-1.608 2.343-5.328-8.453-2.375 3.523c-.285.424-.279.979.017 1.395l11.131 15.707 2.133-4.01a.536.536 0 00-.05-.583l-3.277-4.226 1.653-2.573 4.594 6.431 2.251-4.18s-1.057-1.24-3.17-3.904c-2.113-2.665-8.084-12.587-8.084-12.587l-2.23 3.18zm-27.529 28.57l5.924 11.735c-4.496-4.705-9.468-11.194-9.468-11.194l-4.572 6.466a1.513 1.513 0 00-.111 1.56l5.62 11.006c-3.939-3.649-9.114-10.763-9.114-10.763l-4.532 6.546c-.264.382-.3.878-.092 1.293l7.086 14.206-5.585-3.303-2.48-11.025-2.983 1.554a.41.41 0 00-.21.452l1.433 6.438-5.544-3.07-.652 4.157a.767.767 0 00.385.788l6.973 3.875 2.757 11.851 3.72-3.169-1.515-5.283 4.131 2.57 1.529-2.265.22.797 3.184-4.476a.576.576 0 00.03-.621l-1.056-1.839 1.194-1.654 2.205 2.665 2.154-3.385.602 1.18 3.491-4.869-9.233-15.297 11.346 14.102 2.11-3.305.463.916 3.149-4.409a.812.812 0 00.053-.86l-.952-1.758 1.195-1.654 2.02 2.94 3.124-5.237c-5.787-5.88-13.32-15.25-13.32-15.25l-4.617 6.687a.885.885 0 00-.062.902zm-5.979 23.371l-1.056 1.516-5.65-9.233 6.706 7.717zm15.906-17.042c.346.435.362 1.048.039 1.499l-.602.844-5.65-10.152 6.213 7.809zm14.274-15.341l2.664-4.135-2.573-2.664-2.205 3.767-1.883-2.895 3.032-4.225-3.63-3.813-5.128 7.779-.935-.521-7.257 9.002 3.812 3.354 1.7-2.526 9.187 12.862 1.872-3.666a1.21 1.21 0 00-.09-1.25l-8.03-11.345 1.867-2.353 9.526 13.193 5.304-7.893a1.215 1.215 0 00-.108-1.493l-2.9-3.2-2.985 3.905-1.24-1.883z" fill="#FD0"/></svg>