<svg width="214" height="50" fill="none" xmlns="http://www.w3.org/2000/svg"><rect x=".5" y=".5" width="213" height="49" rx="3.5" fill="#FAFAFC"/><path d="M12 12.31h7.227v25.382H12V12.309zm25.698 11.749h.108v-11.75h6.896v25.383h-6.64l-8.285-13.186-.109-.003v13.189h-6.86V12.309H30.4l7.298 11.75zm24.988.958c0-6.371-1.86-6.541-4.928-6.541h-2.225v13.356h2.52c2.7 0 4.633-.408 4.633-6.816v.001zM48.309 12.31h8.977c8.612 0 12.734 2.193 12.734 12.675 0 10.686-4.05 12.708-12.625 12.708h-9.086V12.309zm24.3 0h7.225v25.383h-7.227V12.309h.001zm66.921 19.696c3.942 0 4.489-2.57 4.489-6.748 0-4.144-.547-6.713-4.489-6.713-3.977 0-4.525 2.569-4.525 6.712 0 4.178.548 6.749 4.525 6.749zm0-20.004c10.071 0 11.824 6.199 11.824 13.016C151.354 31.8 149.566 38 139.53 38c-10.071 0-11.859-6.2-11.859-12.983 0-6.817 1.788-13.016 11.859-13.016zm50.648 20.004c3.938 0 4.488-2.57 4.488-6.748 0-4.144-.55-6.713-4.488-6.713-3.977 0-4.526 2.569-4.526 6.712 0 4.178.549 6.749 4.526 6.749zm0-20.004C200.249 12.001 202 18.2 202 25.017 202 31.8 200.213 38 190.178 38c-10.072 0-11.862-6.2-11.862-12.983 0-6.817 1.79-13.016 11.862-13.016zm-76.363 15.894l.798-5.517h10.469v15.313h-6.645c-1.163.207-2.513.308-4.084.308-8.866 0-11.057-5.31-11.057-12.983 0-8.802 2.994-13.016 12.334-13.016 3.357 0 6.349.82 8.395 2.055l-3.869 5.653c-1.241-.653-2.737-1.165-4.853-1.165-2.848 0-4.745.72-4.745 6.679 0 5.72 1.133 7.158 4.454 7.158 3.559 0 3.466-1.236 3.466-4.04v-.445h-4.663zm50.647 0l.797-5.517h10.469v15.313h-6.644c-1.164.207-2.513.308-4.084.308-8.868 0-11.057-5.31-11.057-12.983 0-8.802 2.993-13.016 12.334-13.016 3.357 0 6.348.82 8.393 2.055l-3.867 5.653c-1.241-.653-2.739-1.165-4.854-1.165-2.848 0-4.745.72-4.745 6.679 0 5.72 1.132 7.158 4.455 7.158 3.557 0 3.464-1.236 3.464-4.04v-.445h-4.661zm-63.068-9.386H90.52v3.324h8.015l-.873 6.027H90.52v3.804h10.874v6.028H83.441V12.309h17.953v6.2z" fill="#E51075"/><rect x=".5" y=".5" width="213" height="49" rx="3.5" stroke="#EBEBF0"/></svg>