<svg width="269" height="50" fill="none" xmlns="http://www.w3.org/2000/svg"><rect x=".5" y=".5" width="268" height="49" rx="3.5" fill="#FAFAFC"/><g clip-path="url(#clip0)" fill="#05CE78"><path d="M234.844 18.784v13.379c0 3.195 2.576 5.837 5.71 5.837 2.577 0 4.595-1.576 5.325-3.835l.601 1.066a5.694 5.694 0 004.895 2.77c3.134 0 5.625-2.472 5.625-5.625 0-1.065-.258-2.088-.859-3.025l-2.233-3.537c1.632-1.235 2.619-3.195 2.619-5.581 0-4.389-3.521-7.798-8.029-7.798h-7.428c-4.036 0-6.226 2.173-6.226 6.35zM233.143 33.102c0-2.45-1.567-4.297-3.726-4.727.974-.644 1.567-1.718 1.567-3.136 0-1.418-.551-2.492-1.567-3.136 2.202-.43 3.726-2.235 3.726-4.727 0-2.75-2.202-4.94-4.869-4.94h-8.891c-4.064 0-6.266 2.19-6.266 6.358v12.847c0 4.21 2.202 6.358 6.266 6.358h8.891c2.667.043 4.869-2.148 4.869-4.898zM206.204 32.248v-8.82c2.855-.128 5.198-2.514 5.198-5.496a5.482 5.482 0 00-5.496-5.496h-11.589c-3.025 0-5.497 2.386-5.497 5.496 0 2.983 2.344 5.326 5.198 5.496v8.82c0 3.153 2.685 5.752 6.008 5.752 3.537 0 6.178-2.599 6.178-5.752zM166.242 18.784v13.379c0 3.195 2.576 5.837 5.711 5.837 2.576 0 4.594-1.576 5.324-3.835l.601 1.066a5.695 5.695 0 004.895 2.77c3.135 0 5.625-2.472 5.625-5.625 0-1.065-.258-2.088-.859-3.025l-2.232-3.537c1.631-1.235 2.619-3.195 2.619-5.581 0-4.389-3.521-7.798-8.03-7.798h-7.428c-3.993 0-6.226 2.173-6.226 6.35zM152.146 33.12c1.454 3.006 3.506 4.445 6.028 4.445 4.532 0 7.739-4.106 5.772-8.72l-5.258-12.19c-1.283-3.004-3.207-4.655-6.499-4.655-3.249 0-5.173 1.65-6.499 4.656l-5.258 12.19c-2.01 4.613 1.24 8.719 5.729 8.719 2.479 0 4.532-1.44 5.985-4.445zM137.171 32.248v-8.82c2.86-.128 5.208-2.514 5.208-5.496a5.488 5.488 0 00-5.507-5.496h-11.568c-3.031 0-5.507 2.386-5.507 5.496 0 2.983 2.348 5.326 5.208 5.496v8.82c0 3.153 2.689 5.752 6.019 5.752 3.458 0 6.147-2.599 6.147-5.752zM119.803 29.698c0-2.565-1.281-4.36-3.202-6.07l-1.58-1.411c2.306-.342 3.843-1.881 3.843-4.147 0-3.804-3.032-6.07-9.436-6.07-6.276 0-9.948 3.163-9.948 8.165 0 2.565 1.323 4.317 3.245 6.07l1.537 1.41h-.043c-2.861 0-4.867 1.668-4.867 4.276 0 3.761 3.159 6.07 9.905 6.07 6.618 0 10.546-3.206 10.546-8.293zM98.07 31.84a5.653 5.653 0 00-1.074-3.348l-2.753-3.774 2.753-3.773c.73-.975 1.075-2.162 1.075-3.349 0-3.137-2.624-5.554-5.72-5.554-1.806 0-3.613.89-4.73 2.417l-1.334 1.865C85.771 13.823 83.577 12 80.782 12c-3.225 0-5.72 2.544-5.72 5.68v14.203c0 3.137 2.538 5.681 5.72 5.681 2.753 0 4.903-1.696 5.462-4.155l1.204 1.696c1.118 1.611 2.968 2.46 4.774 2.46 3.225.041 5.849-2.587 5.849-5.724zM72.925 30.539c0-2.71-1.355-4.614-4.066-5.757 2.71-1.142 4.066-3.005 4.066-5.756 0-4.105-3.43-7.026-8.937-7.026-7.37 0-12.793 5.46-12.793 12.782 0 7.323 5.422 12.783 12.793 12.783 5.506 0 8.937-2.92 8.937-7.026zM42.914 12c-3.444 0-6.2 2.803-6.2 6.115V31.45c0 3.354 2.756 6.115 6.157 6.115 3.487 0 6.2-2.803 6.2-6.115V18.114C49.114 14.803 46.358 12 42.914 12zM35.008 31.84a5.661 5.661 0 00-1.073-3.348l-2.747-3.774 2.747-3.773c.73-.975 1.073-2.162 1.073-3.349 0-3.137-2.618-5.554-5.709-5.554-1.803 0-3.606.89-4.722 2.417l-1.373 1.865C22.689 13.823 20.499 12 17.709 12 14.49 12 12 14.544 12 17.68v14.203a5.68 5.68 0 005.71 5.681c2.746 0 4.893-1.696 5.45-4.155l1.203 1.696c1.116 1.611 2.961 2.46 4.764 2.46 3.263.041 5.881-2.587 5.881-5.724z"/></g><rect x=".5" y=".5" width="268" height="49" rx="3.5" stroke="#EBEBF0"/><defs><clipPath id="clip0"><path fill="#fff" transform="translate(12 12)" d="M0 0h245v26H0z"/></clipPath></defs></svg>