<svg width="185" height="185" fill="none" xmlns="http://www.w3.org/2000/svg"><path d="M5.782 106.46c-7.71-7.71-7.71-20.21 0-27.92L78.54 5.782c7.71-7.71 20.21-7.71 27.92 0l72.758 72.758c7.709 7.71 7.709 20.21 0 27.92l-72.758 72.758c-7.71 7.709-20.21 7.709-27.92 0L5.782 106.46z" fill="#000"/><g clip-path="url(#clip0)"><mask id="a" maskUnits="userSpaceOnUse" x="43" y="44" width="98" height="98"><path d="M43.633 122.76l78.506-78.506 18.652 18.652-78.506 78.506-18.652-18.652z" fill="#fff"/></mask><g mask="url(#a)" fill-rule="evenodd" clip-rule="evenodd" fill="#fff"><path d="M83.239 117.349l-17.056-17.056-1.453 1.453 18.48 18.479 5.949-5.949-1.424-1.424-4.496 4.497zm4.262-10.07c-.176-.176-.272-.392-.35-.587-.018-.176-.038-.352.003-.508 0-.156.02-.216.02-.216l.911-3.329s.04-.078.061-.254c.038-.157.04-.352.06-.568l3.879 3.879c.293.292.468.625.563.996.097.371.115.743.016 1.075a2.34 2.34 0 01-.59 1.021 2.138 2.138 0 01-.981.551c-.353.118-.724.1-1.115.023a2.389 2.389 0 01-.976-.583l-1.5-1.5zm-1.858-10.891a4.092 4.092 0 00-1.795-1.05 4.653 4.653 0 00-2.015.027c-.666.16-1.274.534-1.804 1.024-.51.55-.864 1.138-1.024 1.804a4.144 4.144 0 00-.027 2.016 4.11 4.11 0 001.05 1.795l1.735 1.735 1.277-1.589-1.579-1.58c-.253-.253-.447-.565-.524-.878a1.724 1.724 0 01.023-.998c.079-.313.237-.626.492-.882a2.09 2.09 0 01.902-.512c.313-.08.645-.1.959.016.331.058.644.252.897.505l1.326 1.326c.293.292.448.605.564.956.115.313.174.646.172.959-.02.292-.041.547-.061.762-.04.196-.08.276-.08.276l-.912 3.368s-.02.097-.041.311c-.058.177-.079.472-.04.783-.003.314.075.705.21 1.076.156.352.37.723.72 1.073l1.5 1.501c.566.565 1.21.896 1.895 1.109.704.192 1.427.17 2.151-.008a4.294 4.294 0 001.882-1.103c.412-.412.707-.824.886-1.313.236-.47.355-.981.357-1.489.391-.001.764-.022 1.116-.18.352-.119.686-.335.98-.629l-1.423-1.424a.592.592 0 01-.49.178.604.604 0 01-.507-.194l-8.772-8.771zm6.712-16.575l.04-.04 15.633 15.634 1.433-1.433-18.48-18.48-2.18 2.18 13.215 19.377-.06.06L82.617 83.86l-2.16 2.16 18.48 18.479 1.433-1.433-15.496-15.497.059-.058 18.441 12.551 1.63-1.63-12.649-18.618zm19.612 2.844l1.578 1.578c.293.293.488.606.584.976.096.372.095.763-.004 1.096a2.153 2.153 0 01-.571 1 2.154 2.154 0 01-1 .57c-.332.1-.724.1-1.095.005-.371-.096-.684-.291-.996-.564l-3.606-3.606 4.516-4.516-4.113-4.113c-.545-.545-1.17-.934-1.893-1.107-.685-.174-1.408-.153-2.133.026-.685.178-1.332.554-1.902 1.083a4.682 4.682 0 00-1.102 1.921 4.813 4.813 0 00-.007 2.113 4.253 4.253 0 001.088 1.913l7.719 7.719c.565.565 1.209.896 1.914 1.089a4.607 4.607 0 002.131.011 4.322 4.322 0 001.902-1.122 4.137 4.137 0 001.102-1.881c.179-.725.201-1.448.008-2.152-.173-.724-.543-1.33-1.108-1.894l-1.754-1.754-1.258 1.609zm-9.223-3.058c-.273-.312-.467-.624-.544-.976a2.094 2.094 0 01.004-1.095c.08-.392.276-.706.552-1.02.314-.275.627-.47 1.019-.551.333-.099.724-.1 1.095-.005.352.078.664.272.957.564l2.69 2.69-3.083 3.083-2.69-2.69zm4.389-7.156l1.728-1.728 10.097 10.097c.389.35.799.603 1.269.719.468.115.938.153 1.408-.005a2.718 2.718 0 001.274-.73l-1.422-1.422c-.158.158-.335.217-.549.238a1.221 1.221 0 01-.547-.233l-10.097-10.097 1.748-1.748-1.423-1.424-1.748 1.748-2.748-2.748-1.258 1.61 2.572 2.572-1.727 1.727 1.423 1.424zm8.985-12.143c-.727.767-1.239 1.472-1.495 2.158-.257.685-.318 1.33-.203 1.918l-1.288-.779-.982.982 13.353 13.353 1.432-1.433-10.389-10.39a2.674 2.674 0 01-.662-1.093c-.076-.39-.113-.782.025-1.193.099-.373.296-.725.611-1.078l1.021-1.022-1.423-1.423zm14.941 12.076l1.434-1.434-15.068-15.068-1.434 1.434 15.068 15.068zm-16.608-16.608l1.434-1.434-1.91-1.91-1.434 1.434 1.91 1.91zm20.39 4.015l1.578 1.578c.274.312.469.625.545 1.016.097.37.115.742-.004 1.094a2.051 2.051 0 01-.551.98 2.15 2.15 0 01-1.001.572c-.352.118-.724.1-1.094.004a2.113 2.113 0 01-.997-.564l-7.718-7.719a1.946 1.946 0 01-.544-.976c-.097-.37-.115-.742.004-1.095.079-.39.276-.706.552-1.02.293-.255.627-.47 1-.532.352-.118.724-.1 1.094-.004.372.059.685.252.996.525l1.735 1.735 1.238-1.588-1.56-1.56a4.005 4.005 0 00-1.911-1.09 4.448 4.448 0 00-2.095-.01 4.67 4.67 0 00-1.921 1.1c-.549.59-.923 1.237-1.102 1.923a4.256 4.256 0 00-.007 2.112 3.982 3.982 0 001.088 1.913l7.718 7.72c.566.564 1.19.915 1.915 1.088a4.128 4.128 0 002.131.012c.686-.179 1.332-.553 1.902-1.123a4.31 4.31 0 001.121-1.9c.16-.706.163-1.41-.03-2.114-.174-.723-.525-1.347-1.09-1.913l-1.578-1.578-1.414 1.414zM73.283 125.564l-11.13-11.129-1.457 1.458 11.802 11.802c-.376.746-.921 1.546-1.422 2.167l-6.496-6.496-1.458 1.458 6.504 6.504c-.845.726-1.663 1.253-2.447 1.591l-11.755-11.755-1.57 1.57 11.047 11.047c-3.649.838-7.78-.101-10.675-2.995-4.42-4.42-4.38-11.626.073-16.078 4.452-4.452 11.65-4.485 16.07-.065 2.953 2.953 3.882 7.179 2.914 10.921zm-20.277-12.177c-5.179 5.179-5.21 13.545-.068 18.687 5.141 5.141 13.507 5.11 18.686-.069 5.18-5.179 5.21-13.545.069-18.686-5.142-5.141-13.508-5.111-18.687.068z"/></g></g><defs><clipPath id="clip0"><path fill="#fff" transform="rotate(-45 169.92 8.755)" d="M0 0h111.919v26.454H0z"/></clipPath></defs></svg>