<svg width="142" height="37" fill="none" xmlns="http://www.w3.org/2000/svg"><g clip-path="url(#clip0)" fill="#1D2028"><path d="M24.547.75H11.133v18.363h18.089V5.496c0-2.621-2.093-4.746-4.675-4.746zM6.957.75H4.675C2.093.75 0 2.875 0 5.496v2.316h6.957V.75zM6.957 12.05H0v7.062h6.957V12.05zM22.262 30.413h2.282c2.582 0 4.675-2.125 4.675-4.747v-2.315h-6.957v7.062zM18.09 23.35h-6.957v7.063h6.957V23.35zM0 23.35v2.317c0 2.621 2.093 4.746 4.675 4.746h2.282V23.35H0zM47.07 2.652h-2.734v25.93h14.462v-2.52H47.07V2.651zM67.52 9.519c-5.326 0-9.047 4.016-9.047 9.769 0 5.638 4.031 9.731 9.587 9.731 4.069 0 6.752-2.566 6.778-2.591l.073-.071-1.25-2.127-.115.116c-.02.022-2.198 2.19-5.414 2.19-3.982 0-6.735-2.812-6.885-7.012h13.87l.012-.116c.002-.035.071-.85.071-1.29 0-4.28-2.374-8.6-7.68-8.6zm-6.146 7.705c.569-3.267 2.938-5.369 6.074-5.369 2.301 0 4.811 1.414 5.013 5.37H61.374zM91.03 11.728c0 .366.017.702.034.953-.553-.916-2.272-3.162-5.808-3.162-4.938 0-8.256 3.91-8.256 9.731 0 5.935 3.142 9.769 8.004 9.769 3.803 0 5.559-2.362 6.125-3.346-.014.22-.027.506-.027.845v2.063h2.626V2.652H91.03v9.076zm-5.666 14.807c-3.346 0-5.594-2.927-5.594-7.285 0-4.268 2.345-7.248 5.702-7.248 2.802 0 5.63 2.24 5.63 7.248 0 5.372-2.964 7.285-5.738 7.285zM109.518 12.093c0 .067.001.13.003.187-.516-.842-2.107-2.761-5.885-2.761-4.84 0-7.968 3.69-7.968 9.404 0 5.711 3.29 9.548 8.184 9.548 2.567 0 4.458-.982 5.628-2.921-.018.242-.034.562-.034.896v1.679c0 3.586-2.262 5.642-6.206 5.642-2.596 0-4.808-1.249-4.83-1.262l-.119-.068-1.044 2.283.109.056c1.835.95 3.964 1.474 5.993 1.474 4.252 0 8.795-2.163 8.795-8.235V9.957h-2.626v2.136zm-5.63-.055c3.764 0 5.594 2.252 5.594 6.885 0 2.638-.68 7.066-5.234 7.066-3.53 0-5.81-2.788-5.81-7.103 0-4.352 1.986-6.848 5.45-6.848zM123.059 9.519c-5.327 0-9.047 4.016-9.047 9.769 0 5.638 4.031 9.731 9.586 9.731 4.069 0 6.752-2.566 6.779-2.591l.072-.071-1.249-2.128-.114.117c-.022.022-2.199 2.19-5.415 2.19-3.982 0-6.734-2.812-6.886-7.012h13.871l.012-.116c.003-.035.071-.85.071-1.29 0-4.28-2.374-8.6-7.68-8.6zm-6.146 7.705c.569-3.267 2.939-5.369 6.074-5.369 2.301 0 4.811 1.414 5.013 5.37h-11.087zM141.904 9.888c-.02-.005-.488-.113-1-.113-2.495 0-4.556 1.607-5.615 4.335.012-.225.021-.492.021-.774V9.958h-2.662v18.624h2.698v-7.87c0-1.276.168-2.467.498-3.542.842-2.872 2.807-4.657 5.132-4.657.451 0 .875.071.879.072l.146.025v-2.7l-.097-.022z"/></g><defs><clipPath id="clip0"><path fill="#fff" d="M0 0h142v37H0z"/></clipPath></defs></svg>