<svg width="185" height="185" fill="none" xmlns="http://www.w3.org/2000/svg"><path d="M5.782 106.46c-7.71-7.71-7.71-20.21 0-27.92L78.54 5.782c7.71-7.71 20.21-7.71 27.92 0l72.758 72.758c7.709 7.71 7.709 20.21 0 27.92l-72.758 72.758c-7.71 7.709-20.21 7.709-27.92 0L5.782 106.46z" fill="#41CCB4"/><path d="M56.766 111.826l-7.496 7.496 10.109 10.109 10.109-10.109-7.496-7.496a3.695 3.695 0 00-5.226 0zM46.935 121.655l-1.276 1.275a3.695 3.695 0 000 5.226l1.276 1.275 3.888-3.888-3.888-3.888zM53.157 127.876l-3.887 3.888 3.887 3.888 3.888-3.888-3.888-3.888zM71.818 129.431l1.275-1.275a3.696 3.696 0 000-5.226l-1.275-1.275-3.888 3.888 3.888 3.888zM65.599 127.876l-3.888 3.888 3.888 3.888 3.888-3.888-3.888-3.888zM55.488 137.984l1.276 1.276a3.695 3.695 0 005.225 0l1.276-1.275-3.889-3.889-3.888 3.888zM70.399 100.286l-1.528 1.527 14.274 14.275 8.082-8.083-1.387-1.387-6.554 6.555-12.887-12.887zM85.607 92.636c-2.977 2.977-2.845 7.268.322 10.434 3.104 3.105 7.61 3.105 10.715 0 2.274-2.274 2.36-5.186 2.361-5.215l.002-.08-1.87-.472v.128c0 .024-.022 2.434-1.82 4.232-2.225 2.225-5.311 2.215-7.707-.013l7.751-7.751-.058-.07c-.017-.021-.428-.509-.67-.75-2.356-2.357-6.061-3.408-9.026-.443zm.807 7.677c-1.48-2.116-1.313-4.598.439-6.35 1.286-1.286 3.467-1.91 5.757.154l-6.196 6.196zM99.962 80.715c.201.202.396.377.543.506-.813-.195-3.01-.472-4.986 1.505-2.76 2.76-2.461 6.767.743 9.97 3.267 3.268 7.134 3.623 9.852.906 2.124-2.126 1.805-4.407 1.58-5.265.113.128.264.293.45.48l1.136 1.136 1.467-1.468-14.274-14.274-1.507 1.508 4.996 4.996zm4.985 11.318c-1.87 1.87-4.738 1.515-7.137-.884-2.35-2.35-2.68-5.3-.804-7.177 1.567-1.566 4.381-1.913 7.137.844 2.958 2.957 2.355 5.667.804 7.217zM110.493 70.583c.037.038.072.071.105.102-.752-.176-2.698-.343-4.809 1.768-2.705 2.706-2.421 6.485.724 9.63 3.144 3.145 7.095 3.419 9.83.683 1.435-1.434 1.951-3.032 1.537-4.753a10 10 0 00.475.512l.924.924c1.974 1.974 1.842 4.37-.362 6.575-1.451 1.45-3.375 2-3.394 2.004l-.104.03.673 1.84.092-.03a10.622 10.622 0 004.16-2.538c2.377-2.376 3.725-6.106.382-9.449l-9.941-9.941-1.468 1.468 1.176 1.175zm-3.176 3.117c2.103-2.104 4.366-1.887 6.916.663 1.452 1.453 3.51 4.27.965 6.816-1.972 1.972-4.782 1.712-7.158-.664-2.395-2.395-2.659-4.88-.723-6.815zM116.646 61.598c-2.977 2.977-2.845 7.268.322 10.434 3.104 3.104 7.61 3.105 10.715 0 2.274-2.273 2.36-5.186 2.361-5.215l.002-.08-1.87-.472v.128c.001.024-.022 2.434-1.82 4.232-2.225 2.225-5.311 2.215-7.708-.013l7.752-7.751-.058-.07c-.017-.021-.428-.51-.669-.75-2.357-2.357-6.062-3.408-9.027-.443zm.807 7.677c-1.48-2.116-1.313-4.598.439-6.35 1.286-1.286 3.467-1.91 5.757.154l-6.196 6.196zM127.379 51.27c-.014.01-.335.211-.621.497-1.394 1.395-1.661 3.43-.751 5.524a12.62 12.62 0 00-.415-.437l-1.86-1.86-1.487 1.487 10.253 10.253 1.507-1.507-4.332-4.333c-.703-.702-1.265-1.452-1.671-2.228-1.111-2.052-.996-4.133.304-5.432.252-.252.527-.45.53-.452l.096-.068-1.486-1.486-.067.042z" fill="#fff"/></svg>