<svg width="185" height="185" fill="none" xmlns="http://www.w3.org/2000/svg"><path d="M5.782 106.46c-7.71-7.71-7.71-20.21 0-27.92L78.54 5.782c7.71-7.71 20.21-7.71 27.92 0l72.758 72.758c7.709 7.71 7.709 20.21 0 27.92l-72.758 72.758c-7.71 7.709-20.21 7.709-27.92 0L5.782 106.46z" fill="#8DC63F"/><g clip-path="url(#clip0)" fill="#fff"><path d="M102.845 61.681c-3.372 3.373-5.08 7.734-5.066 11.92l5.855 1.728c-.643-3.159.475-6.86 3.237-9.622 4.058-4.057 10.144-4.58 13.566-1.157 3.42 3.42 2.898 9.504-1.16 13.563-2.856 2.855-6.707 3.95-9.935 3.164l-.001.008-11.822-3.493-4.533 4.533 14.438 4.338c5.229 1.492 11.414-.06 15.877-4.524 6.284-6.284 6.81-15.985 1.17-21.625-5.641-5.64-15.342-5.116-21.626 1.167zM83.677 83.775a3.854 3.854 0 00-4.821 4.762l7.154 19.931-20.19-7.235a3.864 3.864 0 00-3.443 1.058 3.857 3.857 0 00-.965 3.844l-.021-.003 9.199 28.414 4.573-4.574-7.298-22.157 19.805 7.117v-.007a3.853 3.853 0 004.827-4.731l-7.164-19.96 22.244 7.324 4.574-4.574-28.475-9.216.001.007zM94.023 76.757l-4.686-1.385-4.478 4.478 4.653 1.418 4.511-4.511z"/></g><defs><clipPath id="clip0"><path fill="#fff" transform="rotate(-45 143.541 31.913)" d="M0 0h129.216v77.326H0z"/></clipPath></defs></svg>