<svg width="156" height="29" fill="none" xmlns="http://www.w3.org/2000/svg"><path d="M35.82 12.216c-2.35 0-4.302.8-5.963 2.448-1.661 1.641-2.47 3.576-2.47 5.914v7.885h3.384v-7.885c0-1.382.5-2.571 1.487-3.536.985-.966 2.19-1.456 3.578-1.456 1.368 0 2.563.497 3.548 1.474.986.979 1.485 2.16 1.485 3.518v7.885h3.383v-7.885c0-2.338-.807-4.27-2.47-5.914-1.66-1.646-3.611-2.448-5.962-2.448zM95.708 14.66c-1.648-1.644-3.593-2.444-5.947-2.444-2.35 0-4.3.8-5.963 2.448-1.661 1.641-2.47 3.576-2.47 5.913 0 2.361.805 4.306 2.456 5.95 1.648 1.64 3.605 2.44 5.977 2.44 2.355 0 4.297-.805 5.945-2.456 1.653-1.653 2.453-3.594 2.453-5.934 0-2.337-.8-4.273-2.45-5.916zm-2.39 9.464c-.97.98-2.167 1.476-3.556 1.476-1.386 0-2.587-.495-3.57-1.473-.983-.977-1.48-2.171-1.48-3.55 0-1.38.5-2.57 1.482-3.535.985-.966 2.182-1.456 3.567-1.456 1.364 0 2.556.497 3.537 1.474.983.975 1.48 2.16 1.48 3.517 0 1.379-.49 2.57-1.46 3.547zM102.554 3.136h-3.382v25.328h3.382V3.136zM111.99 12.251c-2.35 0-4.302.797-5.963 2.44-1.661 1.641-2.468 3.571-2.468 5.905 0 2.354.803 4.297 2.452 5.934 1.648 1.64 3.605 2.438 5.979 2.438 2.069 0 3.834-.64 5.372-1.942l-2.028-2.681c-.924.857-2.045 1.292-3.344 1.292a4.97 4.97 0 01-3-.977 4.933 4.933 0 01-1.824-2.576l-.229-.74h13.416c.025-.257.034-.51.034-.761 0-2.33-.8-4.257-2.45-5.896-1.652-1.64-3.596-2.436-5.947-2.436zm3.901 6.861h-8.787l.439-.839c.934-1.783 2.429-2.685 4.447-2.685 1.997 0 3.479.902 4.411 2.685l.442.839h-.952zM137.141 17.797a8.3 8.3 0 00-3.069-4.027c-1.427-1.008-3.052-1.519-4.826-1.519-.956 0-1.93.179-2.893.533-1.674.605-3.029 1.633-4.03 3.057-1.001 1.42-1.511 3.04-1.511 4.805 0 .998.171 1.954.503 2.843.609 1.668 1.643 3.014 3.07 4.01 1.431.996 3.056 1.501 4.83 1.501 2.628 0 4.726-.963 6.42-2.941l.646-.756.337.933.816 2.228h3.595l-3.888-10.666zm-4.36 6.414c-.982.97-2.184 1.46-3.57 1.46a4.851 4.851 0 01-2.852-.913c-1.433-.978-2.164-2.357-2.164-4.096 0-1.033.305-1.997.91-2.874.958-1.417 2.342-2.133 4.106-2.133 1.056 0 2.024.29 2.884.87 1.44 1.012 2.169 2.402 2.169 4.137 0 1.384-.5 2.578-1.483 3.55zM143.052 28.464v-6.656h4.469v-2.695h-4.469v-7.592c0-1.378.497-2.573 1.48-3.55.844-.838 1.846-1.32 2.989-1.442V3.153c-2.115.121-3.885.919-5.399 2.425-1.649 1.644-2.454 3.592-2.454 5.95v11.507l1.98 5.43h1.404zM61.174 17.797a8.333 8.333 0 00-3.069-4.027c-1.429-1.008-3.054-1.519-4.828-1.519-.957 0-1.93.179-2.89.533-1.673.605-3.03 1.633-4.03 3.057-1.003 1.42-1.51 3.04-1.51 4.805 0 .998.168 1.954.501 2.843.608 1.668 1.642 3.014 3.069 4.01 1.43.996 3.054 1.501 4.831 1.501 2.626 0 4.727-.963 6.42-2.941l.644-.756.34.933.812 2.228h3.598l-3.888-10.666zm-4.36 6.414c-.983.97-2.184 1.46-3.57 1.46a4.876 4.876 0 01-2.856-.913c-1.43-.978-2.16-2.357-2.16-4.096 0-1.033.305-2 .91-2.876.962-1.415 2.344-2.131 4.107-2.131 1.055 0 2.024.29 2.88.87 1.443 1.012 2.169 2.402 2.169 4.137 0 1.384-.497 2.578-1.48 3.55zM67.129 28.463v-7.885c0-1.383.498-2.57 1.489-3.536.984-.966 2.187-1.455 3.574-1.455 1.37 0 2.563.497 3.55 1.473.986.978 1.485 2.162 1.485 3.518v7.886h3.386v-7.886c0-2.338-.81-4.273-2.472-5.914-1.663-1.65-3.613-2.447-5.963-2.447s-4.3.797-5.963 2.447c-1.664 1.64-2.469 3.576-2.469 5.914v2.586l1.934 5.3h1.448z" fill="#333130"/><path d="M21.704 28.882c-1.5.738-1.502-3.726-2.592-2.918-4.871 3.176-5.288 2.38-7.249 1.704-2.612-.77-8.908-3.32-10.902-7.338C-.99 15.293.588 7.676.863 6.538c.798-3.269 2.764-3.855 4.288-4.186 5.68-.83 14.298 2.2 16.032 3.727 2.245 1.86 4.852 12.765 3.841 15.972-.337 1.024-3.743 1.936-4.117 2.699-.656.9 2.43 3.445.797 4.132zM8.892 12.512c.764 1.209 2.218 1.679 3.249 1.052 1.03-.624 1.247-2.111.49-3.318-.764-1.208-2.219-1.68-3.25-1.051-1.031.626-1.25 2.11-.489 3.317zm.368 7.998c.766 1.202 2.217 1.676 3.247 1.048 1.032-.622 1.251-2.107.486-3.315-.758-1.203-2.215-1.672-3.243-1.046-1.034.624-1.251 2.11-.49 3.313zm6.778-4.109c.764 1.205 2.216 1.676 3.248 1.05 1.032-.625 1.248-2.108.486-3.316-.762-1.206-2.216-1.677-3.246-1.051-1.03.627-1.252 2.112-.488 3.317z" fill="#3FAE2A"/><path d="M154.329 4.796h-.597l-.898-1.485h-.644v1.485h-.573V1.367h1.244c.399 0 .721.078.972.23.244.155.369.404.369.752 0 .269-.082.476-.252.621a1.13 1.13 0 01-.566.281l.945 1.545zm-.701-2.447a.516.516 0 00-.208-.439c-.141-.109-.37-.162-.682-.162h-.548v1.18h.695c.201 0 .375-.043.521-.127.15-.087.222-.241.222-.452z" fill="#333130"/><path d="M155.998 3.155a3.163 3.163 0 01-3.17 3.155 3.166 3.166 0 01-3.172-3.155A3.164 3.164 0 01152.828 0a3.161 3.161 0 013.17 3.155zM152.828.52a2.639 2.639 0 00-2.646 2.634 2.646 2.646 0 002.646 2.64 2.646 2.646 0 002.648-2.64A2.639 2.639 0 00152.828.52z" fill="#333130"/></svg>