<svg width="185" height="185" fill="none" xmlns="http://www.w3.org/2000/svg"><path d="M5.782 106.46c-7.71-7.71-7.71-20.21 0-27.92L78.54 5.782c7.71-7.71 20.21-7.71 27.92 0l72.758 72.758c7.709 7.71 7.709 20.21 0 27.92l-72.758 72.758c-7.71 7.709-20.21 7.709-27.92 0L5.782 106.46z" fill="#000"/><g clip-path="url(#clip0)" fill="#fff"><path d="M96.416 102.859c-1.43-.195-2.512-.505-3.44-1.124-1.121-.736-2.127-1.741-2.63-3.017-.156-.464-.35-1.044-.273-1.584 0-.464.193-.889.54-1.236.309-.309.618-.463.888-.579.309-.154.618-.308.888-.81.038-.116.193-.348.27-.657.038-.193.076-.386.076-.618 0-.386 0-.695.038-.888 0-.232.038-.348 0-.464-.04-.27-.542-.31-.967-.426-.193-.039-.348-.04-.503-.117l-.116-.038-.077-.078c-.27-.27-.735-.735-1.238-1.16a3.09 3.09 0 00-.889-.504 9.992 9.992 0 00-1.236-.078c-.502.038-1.005.076-1.352.192l-.31.076-.077-.309a7.591 7.591 0 01-.35-1.739v-.077l-.038.039a2.813 2.813 0 00-.154 1.159l-.152 2.318-.542-1.778a9.002 9.002 0 00-.465-1.16l-.31-.541c-.116-.039.077.154-.038.27-.193.27-.386.618-.502.888-.077.232-.23.696-.385 1.236-.23.773-.462 1.7-.538 2.009v.077l-.039.039c-2.315 3.243-1.73 7.764-1.378 11.358-2.014-4.562-.436-9.853.876-11.552.076-.386.307-1.236.538-2.009.154-.54.27-1.043.424-1.274.115-.27.308-.695.54-1.004.231-.386.578-.656.81-.579.116.039.426.348.658.812.039-.115.077-.309.154-.463.116-.27.231-.463.309-.54.077-.078.193-.116.309-.155.115-.038.309 0 .386.078.039.038.116.116.155.232.077.154.116.348.117.657.038.347.078.773.233 1.314.347-.039.734-.116 1.159-.154.54.001 1.082.002 1.39.08.31.077.735.348 1.16.619.503.348 1.006.85 1.277 1.122l.348.039c.618.078 1.314.233 1.469.928.077.232.039.426 0 .696-.038.193.001.464-.037.811 0 .31-.038.58-.115.811-.116.348-.27.657-.347.811-.347.657-.772.85-1.158 1.081-.193.116-.463.231-.695.463a1.109 1.109 0 00-.347.811c-.038.425.079.927.233 1.314.93 2.396 2.632 3.712 5.453 4.372zM79.817 80.47s-1.931 1.234-5.142-2.672c0 0-3.52-3.288-.973-6.145l.039-.038c.154-.155 2.74-2.2 3.707-1.233 0 0 3.677 5.452 3.91 6.612 0 .077 1.162 2.628-1.541 3.475z"/><path d="M76.906 70.614c.232-.309.502-.58.772-.772a6.37 6.37 0 01.965-.579c.695-.308 1.39-.539 2.163-.615.734-.115 1.507-.115 2.241-.075.734.04 1.507.195 2.242.311l.038.04c.077 0 .193.038.27.038.078 0 .194.039.271.039.193.039.386 0 .618 0 .387.001.812-.114 1.198-.191.772-.231 1.506-.655 2.201-1.118a12.685 12.685 0 001.853-1.698c.54-.618 1.08-1.313 1.543-2.008l.154-.231.31.077c.115.039.193.04.27.116.116.04.155.078.27.117.155.077.349.193.503.27.348.194.657.426.928.697.271.27.542.542.735.89.194.348.388.696.465 1.082l-.039-.116.078.077v.078c.038.038.039.116.077.154.04.116.04.194.117.27l.116.58c.04.348.04.735-.037 1.121-.115.734-.346 1.43-.616 2.086-.27.656-.656 1.274-1.003 1.853-.424.58-.81 1.12-1.273 1.66l-.039.039-.038.038-.309.31-.309.308a4.772 4.772 0 00-.54.695c-.347.502-.656.965-.887 1.506a7.253 7.253 0 00-.692 3.399c.002 1.16.312 2.319.738 3.44.233.54.465 1.082.813 1.585.155.231.31.54.465.773l.077.077.078.078.116.193.27.348c1.432 1.972 2.826 3.983 4.257 6.032.349.503.697 1.005 1.007 1.547.193.27.348.502.503.811.116.271.271.58.349.89.193.58.387 1.159.465 1.777.078.619.079 1.237.002 1.855.077-.618-.001-1.237-.118-1.816a7.642 7.642 0 00-.581-1.74c-.116-.27-.233-.54-.426-.811-.155-.232-.348-.503-.503-.735-.349-.503-.697-1.005-1.084-1.47-1.431-1.972-2.979-3.905-4.45-5.838l-.27-.349-.116-.193-.078-.077-.038-.039-.039-.039-.039-.038a5.738 5.738 0 01-.503-.812c-.31-.541-.62-1.083-.89-1.663-.465-1.16-.814-2.435-.855-3.71-.04-1.275.19-2.588.73-3.747.27-.579.579-1.12.965-1.66.192-.27.385-.54.617-.772l.347-.347.348-.348-.039.039c.424-.502.849-1.004 1.196-1.583.386-.54.694-1.081.964-1.738.27-.656.462-1.236.539-1.854a1.883 1.883 0 00-.001-.927c0-.154-.039-.27-.078-.464 0-.077-.039-.116-.039-.193l-.038-.116-.04-.038s-.038-.04 0 0l-.038-.04v-.076a2.97 2.97 0 00-.968-1.586 4.827 4.827 0 00-.734-.58c-.155-.078-.271-.194-.426-.27-.038-.04-.154-.078-.193-.117-.077 0-.155-.078-.232-.078l.464-.154c-.502.734-1.042 1.429-1.66 2.046a10.56 10.56 0 01-1.968 1.737c-.734.501-1.545.925-2.394 1.156a5.194 5.194 0 01-1.352.192c-.232 0-.464 0-.657-.04-.116-.038-.194-.038-.348-.038l-.348-.117.039.039c-.735-.194-1.43-.35-2.164-.389-.735-.117-1.469-.079-2.203-.04a6.566 6.566 0 00-2.124.5 3.797 3.797 0 00-.966.5c-.463.077-.733.27-.965.579z"/><path d="M95.1 65.187s-2.395.538-1.856-.775c0 0 1.081-.772 1.856.775zM76.879 82.09c.503.966.813 1.97 1.162 3.014.272 1.044.505 2.126.622 3.17a18.1 18.1 0 01.158 3.245c.001 1.082-.152 2.163-.306 3.245-.384 2.163-1.154 4.249-2.273 6.063-1.08 1.854-2.584 3.514-4.244 4.787 1.427-1.583 2.662-3.281 3.664-5.135a22.915 22.915 0 002.003-5.87c.192-1.043.307-2.087.344-3.13.038-1.043-.002-2.086-.042-3.13-.04-1.043-.195-2.125-.35-3.13-.195-1.043-.467-2.086-.738-3.13zM63.386 142.232a8.061 8.061 0 011.698-1.311c.58-.27 1.082-.463 1.623-.462.502-.038 1.043.04 1.507.272.502.194.928.542 1.392 1.006.425.426.735.89.967 1.431.194.502.31 1.005.272 1.584.001.541-.153 1.082-.423 1.661s-.655 1.12-1.234 1.699l-1.39 1.389 3.481 3.481-1.234 1.235-9.322-9.321 2.663-2.664zm4.796 4.797c.347-.348.617-.695.772-1.081.192-.348.27-.734.307-1.082.039-.347-.078-.695-.194-1.043-.155-.309-.348-.657-.62-.928-.58-.58-1.236-.851-1.932-.852-.695-.001-1.39.385-2.124 1.118l-1.466 1.466 3.829 3.83 1.428-1.428zM85.323 136.77l1.006 1.006-5.596 5.596-9.245-9.244 5.597-5.596 1.005 1.005-4.361 4.362 3.094 3.094 3.513-3.512 1.005 1.006-3.512 3.512 3.172 3.171 4.361-4.361-.039-.039zM89.013 118.692l-2.933 2.933 8.2 8.2-1.235 1.235-8.2-8.2-2.933 2.933-1.045-1.044 7.102-7.101 1.044 1.044zM104.728 110.17a8.356 8.356 0 011.586 2.204c.349.812.581 1.585.582 2.435.04.812-.114 1.584-.461 2.395-.308.772-.809 1.506-1.465 2.162-.657.656-1.39 1.158-2.163 1.466a6.291 6.291 0 01-2.395.461 7.028 7.028 0 01-2.434-.582c-.812-.349-1.508-.891-2.204-1.587a8.358 8.358 0 01-1.587-2.204 5.382 5.382 0 01-.582-2.435c-.04-.811.114-1.584.46-2.395.31-.772.81-1.506 1.467-2.162.656-.656 1.39-1.157 2.162-1.466a6.312 6.312 0 012.395-.461c.811.04 1.623.234 2.435.583.811.348 1.507.89 2.204 1.586zm-1.235 1.235c-.581-.58-1.161-1.006-1.779-1.315a4.786 4.786 0 00-1.817-.505c-.58-.039-1.159.076-1.738.269-.54.231-1.12.578-1.583 1.041-.502.502-.849 1.004-1.041 1.583-.232.541-.308 1.159-.27 1.739a4.77 4.77 0 00.505 1.816c.31.619.736 1.199 1.316 1.779.58.58 1.16 1.006 1.779 1.316a4.778 4.778 0 001.816.504c.58.039 1.159-.076 1.738-.269.541-.231 1.082-.617 1.545-1.08.501-.502.849-1.003 1.08-1.544.231-.541.346-1.12.268-1.738a4.765 4.765 0 00-.504-1.817c-.31-.618-.735-1.199-1.315-1.779zM112.208 93.41l9.244 9.245-.618.618c-.115.115-.193.193-.27.193-.116.038-.193.038-.386-.001l-12.211-1.713.309.309.309.309 6.615 6.615-1.081 1.08-9.283-9.283.617-.617.155-.155c.038-.038.077-.077.154-.077a.118.118 0 01.155 0c.077 0 .154 0 .193.04l12.211 1.713c-.116-.116-.232-.232-.348-.271l-.309-.31-6.576-6.575 1.12-1.12zM131.292 90.804l1.006 1.005-5.597 5.597-9.244-9.245 5.596-5.596 1.006 1.006-4.361 4.36 3.094 3.095 3.512-3.512 1.006 1.006-3.512 3.512 3.172 3.172 4.361-4.362-.039-.038zM141.636 80.46l1.005 1.007-5.596 5.596-9.244-9.245 5.596-5.596 1.006 1.006-4.362 4.361 3.095 3.094 3.512-3.512 1.006 1.006-3.512 3.512 3.171 3.172 4.361-4.361-.038-.04zM154.178 70.004l-1.08 1.08c-.232.232-.464.31-.773.232l-5.681-.972c-.193-.04-.347-.04-.463 0a1.172 1.172 0 00-.464.308l-.926.926 3.868 3.868-1.235 1.235-9.244-9.245 2.547-2.547c.579-.579 1.158-1.003 1.66-1.273a4.628 4.628 0 011.545-.54 3.57 3.57 0 011.43.196c.425.193.85.464 1.237.851.309.31.58.657.774 1.083.155.386.31.773.349 1.198.039.425.001.85-.115 1.275-.115.425-.308.85-.578 1.274.232-.077.541-.077.773.001l6.376 1.05zm-8.964-.628c.347-.347.617-.695.81-1.042.193-.348.27-.734.308-1.082.038-.347-.039-.657-.156-1.004-.155-.31-.31-.619-.58-.89-.542-.541-1.16-.774-1.778-.697-.618.076-1.313.462-2.008 1.157l-1.351 1.35 3.481 3.482 1.274-1.274z"/></g><defs><clipPath id="clip0"><path fill="#fff" transform="rotate(-45 153.894 20.43)" d="M0 0h119.041v55.96H0z"/></clipPath></defs></svg>