<svg width="157" height="74" viewBox="0 0 157 74" fill="none" xmlns="http://www.w3.org/2000/svg">
<path d="M72.4904 50.2823C71.3387 48.7673 70.6189 47.4687 70.3309 46.0259C69.971 44.2945 69.971 42.4188 70.6908 40.7595C70.9788 40.1823 71.3387 39.4609 71.9146 39.0281C72.3465 38.5952 72.9223 38.3788 73.5702 38.3788C74.1461 38.3788 74.578 38.5231 74.9379 38.6674C75.3698 38.8116 75.8017 38.9559 76.5215 38.7395C76.6655 38.6674 77.0254 38.5952 77.3853 38.3788C77.6013 38.2345 77.8172 38.0902 78.0332 37.8738C78.3931 37.5131 78.681 37.2245 78.897 37.0802C79.1129 36.8638 79.2569 36.7917 79.3289 36.6474C79.5448 36.3588 79.1129 35.8538 78.825 35.3488C78.681 35.1324 78.5371 34.9881 78.4651 34.7717L78.3931 34.6274V34.4831C78.3931 33.9781 78.3931 33.1124 78.3211 32.2467C78.2491 31.6695 78.1052 31.2367 77.9612 30.9481C77.7452 30.6596 77.3133 30.1546 76.8814 29.7217C76.3776 29.2888 75.8737 28.856 75.4418 28.6396L75.0818 28.4231L75.2978 28.0624C75.7297 27.1967 76.2336 26.5474 76.5935 26.1146L76.6655 26.0424H76.5935C76.1616 26.2589 75.7297 26.5474 75.3698 26.9803L73.0663 29.0003L74.218 26.836C74.506 26.2589 74.7219 25.7539 74.8659 25.321L75.0818 24.5275C75.0099 24.3832 75.0099 24.7439 74.7939 24.7439C74.362 24.816 73.8581 24.9603 73.4982 25.1046C73.2103 25.2489 72.6344 25.5374 71.9866 25.8982C71.0508 26.4032 69.971 27.0524 69.6111 27.2689L69.5391 27.341H69.4671C64.2843 28.2067 60.6132 32.9681 57.5898 36.6474C59.9653 30.5153 66.3718 27.0524 69.1792 26.6917C69.6111 26.4032 70.6189 25.826 71.5547 25.321C72.2025 24.9603 72.7784 24.5996 73.1383 24.5275C73.4982 24.3832 74.0741 24.1667 74.578 24.0946C75.1538 23.9503 75.7297 24.0225 75.8737 24.311C75.9456 24.4553 75.9456 25.0325 75.7297 25.6817C75.8737 25.6096 76.0896 25.4653 76.3056 25.3932C76.6655 25.2489 76.9534 25.1767 77.0974 25.1767C77.2413 25.1767 77.3853 25.2489 77.5293 25.321C77.6732 25.3932 77.8172 25.6096 77.8172 25.7539C77.8172 25.826 77.8172 25.9703 77.7452 26.1146C77.6733 26.331 77.5293 26.5474 77.2414 26.836C76.9534 27.1967 76.5935 27.6296 76.2336 28.2789C76.5935 28.5674 77.0254 28.856 77.4573 29.2167C77.9612 29.7217 78.4651 30.2267 78.681 30.5874C78.897 30.9481 79.0409 31.5974 79.1849 32.2467C79.3289 33.0402 79.3289 33.9781 79.3289 34.4831L79.6168 34.8438C80.1207 35.4931 80.6246 36.2867 80.1207 37.0802C79.9767 37.3688 79.7608 37.5131 79.4728 37.7295C79.2569 37.8738 79.0409 38.1624 78.681 38.4509C78.3931 38.7395 78.1052 38.9559 77.8172 39.1002C77.3853 39.3166 76.9534 39.4609 76.7375 39.5331C75.8017 39.8216 75.2258 39.6052 74.6499 39.4609C74.362 39.3888 74.0021 39.2445 73.5702 39.2445C73.1383 39.2445 72.7784 39.3888 72.4904 39.6773C72.0585 40.0381 71.6986 40.6152 71.4827 41.1202C70.115 44.2223 70.4749 47.0359 72.4904 50.2823Z" fill="#90C42F"/>
<path d="M77.8847 13.9235C77.8847 13.9235 74.9334 13.2742 75.5812 6.63709C75.5812 6.63709 75.3653 0.288569 80.4041 0H80.4761C80.764 0 85.083 0.504996 85.083 2.30855C85.083 2.30855 83.4274 10.8213 82.5636 12.1199C82.4916 12.192 81.1959 15.6549 77.8847 13.9235Z" fill="#90C42F"/>
<path d="M84.3664 2.01846C84.8703 1.94632 85.3742 1.94632 85.8061 2.01846C86.3099 2.0906 86.8138 2.23489 87.2457 2.37917C88.1815 2.73989 89.0453 3.17274 89.8371 3.82202C90.629 4.39916 91.3488 5.12058 91.9966 5.842C92.6445 6.56343 93.2204 7.42913 93.7962 8.2227V8.29484C93.8682 8.36698 93.9402 8.51127 94.0122 8.58341C94.0842 8.65555 94.1561 8.79984 94.2281 8.87198C94.3721 9.08841 94.588 9.23269 94.804 9.44912C95.1639 9.80983 95.6678 10.0984 96.0997 10.387C97.0355 10.892 98.1152 11.1805 99.195 11.397C100.275 11.5412 101.354 11.6134 102.506 11.5412C103.586 11.4691 104.738 11.3248 105.817 11.1084L106.177 11.0363L106.393 11.397C106.465 11.5412 106.537 11.6134 106.537 11.7577C106.609 11.902 106.609 11.9741 106.681 12.1184C106.753 12.3348 106.825 12.6234 106.897 12.8398C107.041 13.3448 107.113 13.8498 107.113 14.3548C107.113 14.8598 107.113 15.3648 106.969 15.8698C106.825 16.3748 106.681 16.8798 106.393 17.3126L106.465 17.1683C106.465 17.2405 106.465 17.2405 106.465 17.3126L106.393 17.3848C106.393 17.4569 106.321 17.5291 106.321 17.6012C106.249 17.7455 106.177 17.8176 106.177 17.9619C106.033 18.1783 105.889 18.3948 105.745 18.6112C105.458 18.9719 105.098 19.3326 104.666 19.6212C103.874 20.1983 103.01 20.6312 102.146 20.9919C101.283 21.3526 100.347 21.569 99.4829 21.7855C98.5471 21.9297 97.6833 22.074 96.7476 22.1462H96.6756H96.6036C96.4596 22.1462 96.2437 22.1462 96.0277 22.1462C95.8118 22.1462 95.6678 22.1462 95.4519 22.1462C95.0919 22.1462 94.66 22.2183 94.3001 22.2904C93.5083 22.4347 92.7885 22.579 92.0686 22.8676C90.629 23.3726 89.3333 24.2383 88.2535 25.3926C87.1737 26.4747 86.3819 27.8454 85.7341 29.2883C85.4461 30.0097 85.1582 30.7311 85.0142 31.5247C84.9423 31.8854 84.7983 32.3182 84.7263 32.6789V32.8232V32.9675L84.6543 33.2561L84.5823 33.8332C84.0785 37.0075 83.5026 40.1817 82.9267 43.4281C82.7827 44.2217 82.6388 45.0153 82.4228 45.8088C82.3508 46.2417 82.2789 46.6024 82.1349 47.0353C81.9909 47.396 81.847 47.8288 81.631 48.1895C81.2711 48.911 80.9112 49.6324 80.4073 50.2817C79.9034 50.9309 79.3275 51.5081 78.6797 52.0131C79.3275 51.5081 79.8314 50.8588 80.2633 50.2095C80.6952 49.5602 81.0551 48.8388 81.3431 48.0452C81.487 47.6845 81.631 47.3238 81.703 46.891C81.775 46.5303 81.847 46.0974 81.9189 45.7367C82.0629 44.9431 82.2069 44.1496 82.2789 43.356C82.7828 40.1817 83.1427 36.9353 83.5746 33.7611L83.6465 33.1839L83.7185 32.8954V32.7511V32.6789V32.6068V32.5347C83.7905 32.1018 83.8625 31.7411 84.0065 31.3082C84.2224 30.5147 84.4384 29.7211 84.7263 28.9275C85.3742 27.4126 86.238 25.8976 87.3897 24.6711C88.5414 23.4447 89.9811 22.4347 91.5647 21.8576C92.3566 21.569 93.1484 21.3526 94.0122 21.2083C94.4441 21.1362 94.876 21.064 95.3079 21.064C95.5238 21.064 95.7398 21.064 95.9557 21.064C96.1717 21.064 96.3876 21.064 96.6036 21.064H96.5316C97.3954 20.9919 98.2592 20.9197 99.123 20.7033C99.9868 20.559 100.779 20.3426 101.642 19.9819C102.506 19.6212 103.226 19.2605 103.874 18.7555C104.234 18.539 104.522 18.2505 104.738 17.8898C104.882 17.7455 104.954 17.6012 105.098 17.3848C105.17 17.3126 105.17 17.2405 105.242 17.1683L105.314 17.0241V16.9519C105.314 16.9519 105.314 16.8798 105.314 16.9519V16.8798L105.386 16.8076C105.817 16.0862 106.033 15.2926 105.961 14.4269C105.961 13.9941 105.889 13.5612 105.817 13.2005C105.746 12.9841 105.746 12.7677 105.674 12.5512C105.674 12.4791 105.602 12.3348 105.602 12.2627C105.53 12.1905 105.53 12.0462 105.458 11.9741L106.033 12.2627C104.882 12.4791 103.73 12.6234 102.578 12.6234C101.426 12.6955 100.275 12.6234 99.123 12.407C97.9713 12.1905 96.8195 11.8298 95.8118 11.2527C95.3079 10.9641 94.804 10.6034 94.3721 10.1705C94.1562 9.95412 93.9402 9.73769 93.7962 9.52126C93.7242 9.37698 93.6523 9.30483 93.5083 9.16055C93.4363 9.01627 93.3643 8.87198 93.2924 8.7277V8.79984C92.7885 7.93413 92.2846 7.14057 91.6367 6.41914C91.0609 5.62558 90.341 4.9763 89.6212 4.32702C88.9014 3.67774 88.0375 3.17274 87.1737 2.81203C86.7418 2.5956 86.238 2.45132 85.8061 2.37917C85.3022 2.01846 84.8703 1.94632 84.3664 2.01846Z" fill="#90C42F"/>
<path d="M106.389 13.9231C106.389 13.9231 103.653 12.1916 105.381 11.4702C105.381 11.4702 107.108 11.7588 106.389 13.9231Z" fill="#90C42F"/>
<path d="M73.6423 12.6968C73.2104 14.0675 72.5625 15.2939 71.9147 16.5925C71.1948 17.8189 70.403 19.0453 69.5392 20.1274C68.6754 21.2817 67.7396 22.2917 66.6599 23.3017C65.6521 24.3117 64.5004 25.1774 63.3486 26.0431C60.9732 27.7024 58.3098 28.9288 55.5744 29.5781C52.839 30.2995 49.8877 30.4438 47.1523 30.0831C49.9597 29.9388 52.6951 29.5059 55.3585 28.7124C57.9499 27.8467 60.4693 26.6202 62.7008 25.1053C63.8525 24.3117 64.9323 23.446 65.94 22.5081C66.9478 21.5703 67.8836 20.5603 68.8194 19.5503C69.7552 18.5403 70.619 17.386 71.4108 16.3039C72.2026 15.1496 72.9224 13.9232 73.6423 12.6968Z" fill="#90C42F"/>
<path d="M4.96686 56.2002C6.04662 56.2002 6.9824 56.3445 7.77422 56.5609C8.56604 56.8495 9.21389 57.138 9.71778 57.643C10.2217 58.0759 10.6536 58.653 10.8695 59.3023C11.1574 59.9516 11.2294 60.673 11.2294 61.5387C11.2294 62.3323 11.0855 63.0537 10.7975 63.7751C10.5096 64.4244 10.1497 65.0016 9.57381 65.5065C9.06993 66.0115 8.42207 66.3723 7.63026 66.6608C6.83844 66.9494 5.97463 67.0937 4.89488 67.0937H2.30347V73.5865H0V56.2002H4.96686ZM4.96686 65.1458C5.61472 65.1458 6.19058 65.0737 6.69447 64.8573C7.19835 64.713 7.63026 64.4244 7.99017 64.1358C8.35009 63.8473 8.56604 63.4144 8.78199 62.9816C8.92596 62.5487 9.06993 62.0437 9.06993 61.5387C9.06993 60.4566 8.71001 59.5909 8.06216 58.9416C7.4143 58.2923 6.40654 58.0038 5.03885 58.0038H2.30347V65.1458H4.96686Z" fill="#90C42F"/>
<path d="M30.5196 71.5641V73.4398H20.082V56.1978H30.5196V58.0735H22.3855V63.8448H28.936V65.7205H22.3855V71.6362H30.5196V71.5641Z" fill="#90C42F"/>
<path d="M50.8192 58.148H45.3484V73.4422H43.045V58.148H37.5742V56.2002H50.8192V58.148Z" fill="#90C42F"/>
<path d="M73.4189 64.8541C73.4189 66.1527 73.203 67.3069 72.8431 68.3891C72.4112 69.4712 71.9073 70.409 71.1155 71.2026C70.3956 71.9962 69.5318 72.5733 68.4521 73.0062C67.4443 73.439 66.2926 73.6555 65.0688 73.6555C63.8451 73.6555 62.6934 73.439 61.6856 73.0062C60.6778 72.5733 59.814 71.9962 59.0222 71.2026C58.3024 70.409 57.7265 69.4712 57.2946 68.3891C56.8627 67.3069 56.7188 66.1527 56.7188 64.8541C56.7188 63.5555 56.9347 62.4013 57.2946 61.3191C57.6545 60.237 58.2304 59.2991 59.0222 58.5056C59.7421 57.712 60.6059 57.1349 61.6856 56.702C62.6934 56.2692 63.8451 56.0527 65.0688 56.0527C66.2926 56.0527 67.4443 56.2692 68.4521 56.702C69.4598 57.1349 70.3236 57.712 71.1155 58.5056C71.8353 59.2991 72.4112 60.237 72.8431 61.3191C73.275 62.4013 73.4189 63.5555 73.4189 64.8541ZM71.1155 64.8541C71.1155 63.772 70.9715 62.8341 70.6836 61.9684C70.3956 61.1027 69.9637 60.3813 69.4598 59.8041C68.956 59.227 68.3081 58.7941 67.5883 58.4334C66.8684 58.1449 66.0046 57.9284 65.1408 57.9284C64.205 57.9284 63.4132 58.0727 62.6934 58.4334C61.9735 58.722 61.3257 59.227 60.8218 59.8041C60.3179 60.3813 59.886 61.1027 59.5981 61.9684C59.3102 62.8341 59.1662 63.772 59.1662 64.8541C59.1662 65.9362 59.3102 66.8741 59.5981 67.7398C59.886 68.6055 60.3179 69.3269 60.8218 69.9041C61.3257 70.4812 61.9735 70.914 62.6934 71.2748C63.4132 71.5633 64.277 71.7076 65.1408 71.7076C66.0766 71.7076 66.8684 71.5633 67.5883 71.2748C68.3081 70.9862 68.956 70.5533 69.4598 69.9041C69.9637 69.3269 70.3956 68.6055 70.6836 67.7398C70.9715 66.8741 71.1155 65.9362 71.1155 64.8541Z" fill="#90C42F"/>
<path d="M96.0301 56.1978V73.4398H94.8784C94.6624 73.4398 94.5184 73.4398 94.4465 73.3676C94.3025 73.2955 94.2305 73.2233 94.0865 73.0069L84.2968 60.0213C84.2968 60.2377 84.2968 60.4541 84.2968 60.5984C84.2968 60.8149 84.2968 60.9591 84.2968 61.1756V73.5119H82.2812V56.1978H83.433C83.505 56.1978 83.6489 56.1978 83.7209 56.1978C83.7929 56.1978 83.8649 56.1978 83.9369 56.2699C84.0089 56.2699 84.0808 56.342 84.0808 56.4142C84.1528 56.4863 84.2248 56.5585 84.2248 56.6306L94.0146 69.6162C94.0146 69.3998 94.0146 69.1834 93.9426 69.0391C93.9426 68.8227 93.9426 68.6784 93.9426 68.4619V56.1978H96.0301Z" fill="#90C42F"/>
<path d="M116.254 71.5641V73.4398H105.816V56.1978H116.254V58.0735H108.12V63.8448H114.67V65.7205H108.12V71.6362H116.254V71.5641Z" fill="#90C42F"/>
<path d="M135.547 71.5641V73.4398H125.109V56.1978H135.547V58.0735H127.413V63.8448H133.963V65.7205H127.413V71.6362H135.547V71.5641Z" fill="#90C42F"/>
<path d="M156.998 73.5119H154.982C154.55 73.5119 154.262 73.3676 154.046 73.0069L149.655 66.8027C149.511 66.5862 149.368 66.442 149.224 66.3698C149.08 66.2977 148.864 66.2255 148.504 66.2255H146.776V73.4398H144.473V56.1978H149.224C150.303 56.1978 151.239 56.342 151.959 56.5585C152.751 56.7749 153.399 57.1356 153.902 57.4963C154.406 57.9292 154.766 58.4342 155.054 59.0113C155.27 59.5884 155.414 60.2377 155.414 60.9591C155.414 61.5363 155.342 62.1134 155.126 62.6906C154.91 63.1956 154.694 63.7006 154.334 64.1334C153.974 64.5663 153.543 64.927 153.039 65.2155C152.535 65.5041 151.959 65.7205 151.311 65.8648C151.599 66.0091 151.887 66.2977 152.031 66.5862L156.998 73.5119ZM149.224 64.5663C149.871 64.5663 150.447 64.4941 150.951 64.3498C151.455 64.2055 151.887 63.917 152.247 63.6284C152.607 63.3398 152.823 62.9791 153.039 62.5463C153.183 62.1134 153.327 61.6806 153.327 61.1756C153.327 60.1656 152.967 59.372 152.319 58.867C151.671 58.362 150.663 58.0735 149.368 58.0735H146.848V64.5663H149.224Z" fill="#90C42F"/>
</svg>
