<svg width="116" height="29" fill="none" xmlns="http://www.w3.org/2000/svg"><path d="M51.582 27.945h2.133V.743h-2.133v27.202zM94.906.743h-.583a6.322 6.322 0 00-4.45 1.828 6.176 6.176 0 00-1.85 4.398v14.75c0 1.713.712 3.275 1.85 4.399a6.323 6.323 0 004.45 1.827h.582a6.322 6.322 0 004.45-1.827 6.173 6.173 0 001.849-4.399V6.97a6.173 6.173 0 00-1.85-4.398A6.323 6.323 0 0094.907.743zm4.166 20.976a4.077 4.077 0 01-1.225 2.908 4.174 4.174 0 01-2.942 1.211h-.582a4.174 4.174 0 01-2.942-1.21 4.077 4.077 0 01-1.225-2.909V6.97c0-1.132.466-2.157 1.225-2.908a4.176 4.176 0 012.942-1.21h.582c1.145 0 2.182.46 2.942 1.21a4.077 4.077 0 011.225 2.908v14.75zM41.601.743h-.583a6.322 6.322 0 00-4.45 1.828 6.176 6.176 0 00-1.85 4.398v21.168h2.133V26.03a.774.774 0 01.775-.766H41.6a6.322 6.322 0 004.45-1.828 6.176 6.176 0 001.85-4.398V6.969a6.175 6.175 0 00-1.85-4.398A6.322 6.322 0 0041.6.743zm4.166 18.295a4.078 4.078 0 01-1.225 2.907 4.176 4.176 0 01-2.942 1.211h-3.976a2.94 2.94 0 00-.773.104V6.969c0-1.132.466-2.157 1.225-2.908a4.176 4.176 0 012.942-1.21h.582c1.145 0 2.182.46 2.942 1.21a4.078 4.078 0 011.225 2.908v12.069zM78.236.742h-.583a6.322 6.322 0 00-4.45 1.828 6.176 6.176 0 00-1.85 4.398v14.75c0 1.713.712 3.275 1.85 4.399a6.323 6.323 0 004.45 1.827h.582a6.322 6.322 0 004.45-1.827 6.176 6.176 0 001.85-4.399V6.97a6.176 6.176 0 00-1.85-4.398 6.322 6.322 0 00-4.45-1.828zm4.166 20.976a4.077 4.077 0 01-1.225 2.908 4.174 4.174 0 01-2.942 1.211h-.582a4.174 4.174 0 01-2.942-1.21 4.077 4.077 0 01-1.225-2.909V6.97c0-1.132.466-2.157 1.225-2.908a4.176 4.176 0 012.942-1.21h.582c1.145 0 2.182.46 2.942 1.21a4.078 4.078 0 011.225 2.908v14.75zM60.561 4.061a4.176 4.176 0 012.942-1.21h.582a4.176 4.176 0 013.22 1.515l1.206-1.818A6.322 6.322 0 0064.086.743h-.583a6.322 6.322 0 00-4.45 1.828 6.175 6.175 0 00-1.85 4.398v14.75c0 1.713.712 3.275 1.85 4.399a6.323 6.323 0 004.45 1.827h.582a6.32 6.32 0 004.348-1.73l-1.2-1.811a4.221 4.221 0 01-.206.223 4.174 4.174 0 01-2.942 1.211h-.582a4.174 4.174 0 01-2.942-1.21 4.077 4.077 0 01-1.225-2.909V6.97c0-1.132.466-2.157 1.225-2.908zm53.956 20.566a4.173 4.173 0 01-2.942 1.211h-.582a4.173 4.173 0 01-2.942-1.21 4.075 4.075 0 01-1.225-2.909V6.97c0-1.132.466-2.157 1.225-2.908a4.175 4.175 0 012.942-1.21h.582a4.175 4.175 0 013.221 1.515L116 2.548a6.32 6.32 0 00-4.425-1.805h-.582a6.322 6.322 0 00-4.45 1.828 6.178 6.178 0 00-1.85 4.398v14.75c0 1.713.712 3.275 1.85 4.399a6.323 6.323 0 004.449 1.827h.583a6.317 6.317 0 004.347-1.73l-1.2-1.811a3.97 3.97 0 01-.205.223zM0 3.116L9.292 12.3a3.69 3.69 0 011.101 2.64 3.695 3.695 0 01-1.101 2.642L0 26.766l1.508 1.49 9.292-9.184a5.795 5.795 0 001.725-4.131A5.794 5.794 0 0010.8 10.81L1.509 1.626 0 3.116z" fill="#58506E"/><path d="M14.455 17.711l10.67 10.545 1.508-1.49-10.67-10.545-1.508 1.49z" fill="#E5007F"/><path d="M25.122 1.626l-10.696 10.57 1.507 1.49L26.63 3.117l-1.508-1.49z" fill="#9ED9F7"/></svg>