<svg width="185" height="185" fill="none" xmlns="http://www.w3.org/2000/svg"><path d="M5.782 106.46c-7.71-7.71-7.71-20.21 0-27.92L78.54 5.782c7.71-7.71 20.21-7.71 27.92 0l72.758 72.758c7.709 7.71 7.709 20.21 0 27.92l-72.758 72.758c-7.71 7.709-20.21 7.709-27.92 0L5.782 106.46z" fill="#58506E"/><path d="M96.684 103.894l1.216-1.216-15.65-15.65-1.215 1.216 15.649 15.65zm9.047-40.346l-.332.332a5.074 5.074 0 00-1.485 3.589 5.043 5.043 0 001.476 3.584l8.485 8.486a5.05 5.05 0 003.585 1.476 5.076 5.076 0 003.588-1.485l.332-.332a5.074 5.074 0 001.485-3.588 5.048 5.048 0 00-1.476-3.585l-8.486-8.486a5.047 5.047 0 00-3.584-1.475c-1.295 0-2.6.497-3.588 1.484zm14.443 9.693c.651.65.974 1.506.974 2.37a3.35 3.35 0 01-.981 2.375l-.331.331a3.35 3.35 0 01-2.374.98c-.865.001-1.72-.323-2.371-.974l-8.486-8.485a3.329 3.329 0 01-.974-2.372c.002-.864.328-1.72.98-2.373l.332-.332a3.35 3.35 0 012.374-.98c.864 0 1.72.323 2.371.974l8.486 8.486zM75.345 93.934l-.332.332a5.073 5.073 0 00-1.485 3.589 5.046 5.046 0 001.476 3.584l12.177 12.178 1.216-1.216-1.213-1.212a.622.622 0 01.001-.883l2.266-2.265a5.073 5.073 0 001.485-3.588 5.049 5.049 0 00-1.476-3.585l-6.943-6.942a5.046 5.046 0 00-3.584-1.476c-1.295 0-2.6.497-3.588 1.484zm12.9 8.15c.65.651.974 1.506.974 2.371a3.35 3.35 0 01-.98 2.374l-2.267 2.266c-.152.152-.28.321-.381.501l-9.372-9.372a3.334 3.334 0 01-.974-2.372 3.35 3.35 0 01.98-2.373l.332-.332a3.35 3.35 0 012.373-.98c.865 0 1.72.323 2.372.974l6.943 6.943zm7.983-29.033l-.331.332a5.073 5.073 0 00-1.486 3.588 5.047 5.047 0 001.476 3.585l8.486 8.485a5.046 5.046 0 003.584 1.476c1.295 0 2.6-.497 3.588-1.484l.332-.332a5.074 5.074 0 001.485-3.589 5.044 5.044 0 00-1.476-3.584l-8.485-8.486a5.048 5.048 0 00-3.585-1.476c-1.295.001-2.6.497-3.588 1.485zm14.443 9.692c.651.651.975 1.507.975 2.371a3.349 3.349 0 01-.981 2.374l-.332.332a3.35 3.35 0 01-2.373.98 3.333 3.333 0 01-2.372-.974l-8.485-8.486a3.333 3.333 0 01-.975-2.371 3.35 3.35 0 01.98-2.374l.332-.331a3.35 3.35 0 012.374-.981c.865 0 1.72.323 2.371.974l8.486 8.486zm-22.61 2.292a3.35 3.35 0 01.982-2.374l.331-.331a3.35 3.35 0 012.708-.964l-.359-1.733a5.073 5.073 0 00-3.56 1.484l-.333.332a5.073 5.073 0 00-1.485 3.588 5.047 5.047 0 001.476 3.585l8.486 8.486a5.047 5.047 0 003.584 1.475c1.295 0 2.6-.497 3.588-1.484l.332-.332a5.07 5.07 0 001.482-3.475l-1.725-.357a3.348 3.348 0 01-.969 2.62l-.332.33a3.35 3.35 0 01-2.374.982c-.864 0-1.72-.324-2.37-.975l-8.487-8.486a3.333 3.333 0 01-.974-2.371zm42.59-18.926a3.349 3.349 0 01-.981 2.374l-.332.332a3.347 3.347 0 01-2.373.98c-.865 0-1.72-.323-2.372-.974l-8.485-8.486a3.335 3.335 0 01-.975-2.371 3.35 3.35 0 01.981-2.374l.331-.332a3.35 3.35 0 012.708-.964l-.359-1.732a5.07 5.07 0 00-3.56 1.484l-.332.332a5.07 5.07 0 00-1.486 3.588 5.051 5.051 0 001.476 3.584l8.486 8.486a5.045 5.045 0 003.584 1.476c1.295 0 2.6-.497 3.588-1.485l.332-.332a5.072 5.072 0 001.483-3.474l-1.726-.358c.006.082.012.164.012.246zM52.998 119.013l10.58-.014a3.024 3.024 0 012.147.892c.276.277.5.606.654.969.153.363.238.759.238 1.179l-.014 10.58 1.717-.003.013-10.58a4.719 4.719 0 00-1.393-3.36 4.76 4.76 0 00-1.51-1.019 4.704 4.704 0 00-1.85-.374l-10.58.014-.002 1.716z" fill="#fff"/><path d="M69.632 119.17l12.15-.016.002-1.716-12.15.015-.002 1.717z" fill="#E5007F"/><path d="M66.465 103.835l-.016 12.179 1.717-.003.016-12.178-1.717.002z" fill="#9ED9F7"/></svg>