<svg width="188" height="185" fill="none" xmlns="http://www.w3.org/2000/svg"><path d="M8.782 106.46c-7.71-7.71-7.71-20.21 0-27.92L81.54 5.782c7.71-7.71 20.21-7.71 27.92 0l72.758 72.758c7.709 7.71 7.709 20.21 0 27.92l-72.758 72.758c-7.71 7.709-20.21 7.709-27.92 0L8.782 106.46z" fill="#46A543"/><g clip-path="url(#clip0)"><path d="M77.358 124.106a7.375 7.375 0 00-1.096.267 11.043 11.043 0 00-.197-2.165 11.088 11.088 0 00-3.053-5.741 11.125 11.125 0 00-3.679-2.442 11.15 11.15 0 00-6.303-.612 11.074 11.074 0 00-5.741 3.053 11.11 11.11 0 00-2.443 3.68 11.149 11.149 0 00-.611 6.304 11.133 11.133 0 006.73 8.182 11.162 11.162 0 006.306.61 11.073 11.073 0 005.742-3.052 11.028 11.028 0 001.741-2.259c.057-.071.219-.268.465-.514.394-.399 1.005-.903 1.688-1.228.342-.161.698-.28 1.063-.339.366-.059.74-.063 1.153.018l.727-3.728a7.171 7.171 0 00-2.492-.034zm-9.453 7.012a7.372 7.372 0 01-4.156.402 7.276 7.276 0 01-3.777-2.01 7.298 7.298 0 01-1.608-2.422 7.379 7.379 0 01-.402-4.156 7.324 7.324 0 014.43-5.385 7.37 7.37 0 014.159-.402c1.386.268 2.7.933 3.777 2.011a7.267 7.267 0 011.608 2.423 7.371 7.371 0 01.404 4.154 7.293 7.293 0 01-2.01 3.778 7.4 7.4 0 01-2.425 1.607z" fill="#fff"/><path d="M129.056 52.11a9.535 9.535 0 00-6.758 2.8 9.54 9.54 0 00-2.801 6.759 9.54 9.54 0 002.801 6.76 9.543 9.543 0 006.76 2.8c2.44 0 4.896-.936 6.759-2.8a9.534 9.534 0 002.8-6.759 9.541 9.541 0 00-2.8-6.76 9.537 9.537 0 00-6.761-2.8zm6.849 9.559a6.824 6.824 0 01-2.005 4.842 6.82 6.82 0 01-4.844 2.006 6.819 6.819 0 01-4.841-2.006 6.828 6.828 0 01-2.007-4.842 6.824 6.824 0 012.007-4.842 6.828 6.828 0 014.841-2.006 6.83 6.83 0 014.844 2.006 6.822 6.822 0 012.005 4.842zM110.796 66.413a.275.275 0 000 .39l13.128 13.127a.275.275 0 00.39 0l1.527-1.528a.275.275 0 000-.39l-13.128-13.127a.274.274 0 00-.389 0l-1.528 1.528zM107.771 73.394a9.533 9.533 0 00-6.759 2.8l-2.83 2.828-.479.48-1.243 1.243a.274.274 0 000 .39l13.132 13.13a.274.274 0 00.389 0l1.147-1.146.576-.576 2.828-2.829a9.527 9.527 0 002.798-6.76 9.533 9.533 0 00-2.799-6.76 9.536 9.536 0 00-6.76-2.8zm6.847 9.561a6.82 6.82 0 01-2.005 4.842l-2.83 2.83-9.684-9.684 2.83-2.83a6.825 6.825 0 014.841-2.006 6.826 6.826 0 014.842 2.007 6.81 6.81 0 012.006 4.841zM99.056 94.407c.365-.79.549-1.643.547-2.492a5.912 5.912 0 00-1.735-4.193 5.912 5.912 0 00-4.193-1.735 5.91 5.91 0 00-4.19 1.735l-1.845 1.845-1.636 1.636-.24.24-1.483 1.483a.275.275 0 000 .39l13.158 13.159a.24.24 0 00.338 0l1.582-1.583a.238.238 0 000-.337l-4.97-4.97 1.583-1.581 1.313-1.313 7.634 2.427a.273.273 0 00.279-.067l1.699-1.7a.276.276 0 00-.109-.458l-7.732-2.486zm-6.586 3.26l-4.547-4.548 1.635-1.636 1.844-1.844a3.19 3.19 0 012.273-.941c.83.001 1.643.311 2.273.941a3.19 3.19 0 01.943 2.275 3.192 3.192 0 01-.941 2.273l-1.898 1.898-1.582 1.581zM94.488 109.284l-18.732-7.165a.791.791 0 00-.844.179.706.706 0 00-.161.75l7.186 18.787a.234.234 0 00.174.149c.08.017.16-.008.218-.066l1.73-1.731a.238.238 0 00.055-.254l-1.537-4.018 5.966-5.966-.052-.053 4.094 1.566c.09.035.187.013.254-.054l1.731-1.731a.24.24 0 00-.082-.393zm-12.971 3.859l-2.652-6.932 6.933 2.651-4.281 4.281z" fill="#4A4F55"/></g><defs><clipPath id="clip0"><path fill="#fff" transform="rotate(-45 140.583 57.475)" d="M0 0h167.879v100.727H0z"/></clipPath></defs></svg>