<svg xmlns="http://www.w3.org/2000/svg" data-bind="attr: { alt: showAs, viewBox: svgViewBox, title: showAs }, css : { 'wh-messenger-icon' : true }, html: svgPath" style="width:37px;height:45px" viewBox="0 0 32 32" class="wh-messenger-icon" fill="#fff"><path d="M15.02 20.814l9.31-12.48L9.554 17.24l1.92 6.42c.225.63.114.88.767.88l.344-5.22 2.436 1.494z" opacity=".6" fill-rule="evenodd"/><path d="M12.24 24.54c.504 0 .727-.234 1.008-.51l2.687-2.655-3.35-2.054-.344 5.22z" opacity=".3" fill-rule="evenodd"/><path d="M12.583 19.322l8.12 6.095c.926.52 1.595.25 1.826-.874l3.304-15.825c.338-1.378-.517-2.003-1.403-1.594L5.024 14.727c-1.325.54-1.317 1.29-.24 1.625l4.98 1.58 11.53-7.39c.543-.336 1.043-.156.633.214" fill-rule="evenodd"/></svg>