<svg width="185" height="185" fill="none" xmlns="http://www.w3.org/2000/svg"><path d="M5.782 106.46c-7.71-7.71-7.71-20.21 0-27.92L78.54 5.782c7.71-7.71 20.21-7.71 27.92 0l72.758 72.758c7.709 7.71 7.709 20.21 0 27.92l-72.758 72.758c-7.71 7.709-20.21 7.709-27.92 0L5.782 106.46z" fill="#A4E2FE"/><g clip-path="url(#clip0)"><path d="M75.867 100.627l-.595-.595-1.397 1.398 6.44 6.441 1.398-1.398-3.657-3.657c-.438-.528-.846-1.245-.746-2.193.138-1.298 2.078-1.905 2.078-1.905l-1.444-1.444c-1.809 1.239-2.057 2.732-2.077 3.353zm4.96-6.754c-1.348 1.349-1.82 2.832-1.82 2.832l1.333 1.332s-.147-1.112 1.51-2.77c1.658-1.657 2.744-.534 2.744-.534l.13.13-1.368 1.366s-3.067 2.697-.71 5.054c2.356 2.357 4.398-.129 4.485-.215.077-.078 1.463-1.386 1.06-2.736l.832.831 1.398-1.398-4.43-4.43c-1.66-1.659-3.816-.81-5.164.538zm5.81 2.903c.568 1.249.098 2.24.04 2.377-.076.173-1.387 2.053-2.683.757-1.073-1.073.152-2.273.98-3.102l.848-.847.815.815zM89.329 86l2.997 6.867-6.868-2.996-1.398 1.398 8.952 3.905 1.62-1.62-3.904-8.952L89.329 86zM71.68 97.664l-7.817 7.817 1.395 1.395 3.21-3.21 8.026 8.026 1.397-1.397-8.026-8.026 3.21-3.21-1.395-1.395zm47.91-31.425c-1.374 1.374-2.712-.224-2.712-.224l-3.967-3.967-1.398 1.398 3.968 3.967c.884.884 2.992 2.336 4.996.333 1.596-1.596.967-2.868.967-2.868l-1.998-1.998c.579.58 1.516 1.987.144 3.36zm2.804-.448l1.397-1.396-6.613-6.614-1.397 1.397 6.613 6.614zm-6.419 6.42l1.397-1.397-9.352-9.353-1.398 1.398 9.353 9.352zm-22.186 8.7c-2.696 2.696-1.65 5.35-.033 6.967s4.062 2.206 6.238.4c2.177-1.806 2.734-3.87 2.734-3.87l-1.27-1.27c-1.389 4.103-4.108 5.045-5.749 3.7-.05-.04-.098-.082-.147-.124l5.033-5.033c-1.64-1.641-4.11-3.466-6.806-.77zm.702 4.59c-.66-1.057-.679-2.22.408-3.307 1.571-1.57 3.132-.232 3.132-.232l-3.54 3.54zm28.338-25.782l-.148-.124 4.891-4.89c-1.641-1.642-4.101-3.476-6.72-.856-2.62 2.62-1.551 5.251.065 6.868 1.617 1.617 4.036 2.232 6.156.482 2.12-1.75 2.64-3.776 2.64-3.776l-1.27-1.27c-1.31 4.025-3.978 4.915-5.614 3.566zm-.865-4.59c1.527-1.526 3.084-.184 3.084-.184l-3.44 3.44c-.664-1.054-.7-2.2.356-3.256zm-13.461 14.479c.6-.928.722-2.02-.68-3.422-2.314-2.313-4.998.494-4.998.494l-4.094 4.094 9.34 9.34 1.398-1.397 2.696-2.697s3.099-3.135.527-5.707c-1.471-1.47-2.966-1.33-4.189-.705zm-6.987.923l1.967-1.967c.079-.08 1.634-2.078 3.04-.671 1.407 1.406-.226 2.706-.447 2.928l-2.135 2.134-2.425-2.424zm9.483 4.138l-2.672 2.672-3.072-3.072 2.617-2.616c.222-.223 1.669-1.41 3.076-.004 1.406 1.406.129 2.942.051 3.02zm-6.713 9.23l1.397-1.396-9.352-9.354-1.397 1.398 9.352 9.353zM124.061 46.054a2.047 2.047 0 00-2.047 2.047 2.029 2.029 0 00.598 1.444 2.041 2.041 0 002.889-.003 2.041 2.041 0 00-1.44-3.488zm1.727 2.043c-.001.443-.17.885-.509 1.224a1.727 1.727 0 11-2.443-2.444 1.728 1.728 0 012.952 1.22z" fill="#2F56A5"/><path d="M125.118 47.886c-.143-.119-.394-.262-.582-.149a.55.55 0 00-.143-.579c-.342-.342-.733-.138-.964.093l-.796.796 1.477 1.477.45-.45-.521-.52.191-.191c.213-.213.368-.11.55.048l.09.076a.622.622 0 00.166.112l.45-.45c-.073-.014-.142-.074-.198-.122l-.17-.14zm-1.14.107l-.25.25-.303-.303.224-.224c.14-.14.26-.161.36-.061.116.116.072.235-.031.338zM61.009 135.62c.367.908.781 1.802 1.24 2.677a.425.425 0 00.678.102l13.23-13.23a1.578 1.578 0 00.002-2.224l-13.042-13.043a.427.427 0 00-.675.1 29.986 29.986 0 00-3.064 8.55 30.18 30.18 0 001.631 17.068z" fill="#2F56A5"/><path d="M57.304 130.449a32.321 32.321 0 011.79-18.258c.392-.964.833-1.913 1.323-2.844a.153.153 0 00-.044-.194.153.153 0 00-.198.014l-.012.012-13.804 13.804a1.576 1.576 0 00-.003 2.223l13.77 13.77.009.008a.048.048 0 00.063.004.05.05 0 00.014-.062 31.95 31.95 0 01-2.908-8.477z" fill="#FED104"/><path d="M79.995 113.793l.6.858.55-.55.328.467-.547.548 1.558 2.188a.973.973 0 00.131.137c.158.131.31.124.454-.021a2.01 2.01 0 00.218-.273l.381.459a1.904 1.904 0 01-.318.418c-.204.198-.43.274-.673.231-.245-.043-.477-.197-.698-.462l-1.558-2.173-.532.533-.329-.467.533-.533-.6-.857.502-.503zM84.137 112.027l-.262.212c-.324.324-.433.724-.328 1.202l1.77 2.512-.505.504-2.488-3.536.486-.491.275.426c-.066-.494.05-.882.347-1.166.061-.061.155-.127.282-.197l.423.534zM89.021 112.248a.971.971 0 01-.178-.139l-.15-.167c-.022.533-.191.951-.51 1.254-.27.262-.57.395-.9.397a1.078 1.078 0 01-.844-.389 1.31 1.31 0 01-.327-1.167c.082-.441.336-.874.762-1.3l.53-.524-.206-.273c-.16-.199-.339-.307-.531-.323-.194-.017-.38.062-.56.235a1.098 1.098 0 00-.333.586.756.756 0 00.105.592l-.505.511a1.14 1.14 0 01-.263-.675 1.711 1.711 0 01.149-.784c.114-.265.275-.496.481-.695.322-.308.662-.457 1.02-.449.357.008.673.177.948.508l1.246 1.737.2.228c.099.106.212.197.338.27l.041.054-.513.513zm-1.182.402c.165-.158.28-.349.343-.574a1.64 1.64 0 00.037-.708l-.512-.73-.384.38c-.319.318-.512.612-.582.881a.785.785 0 00.14.714.61.61 0 00.45.253c.177.011.346-.061.508-.216zM91.14 108.721l-1.219-3.396.533-.533 1.491 4.533-.385.385-3.603-2.421.497-.497 2.686 1.929zM95.358 106.023c-.383.368-.815.523-1.296.467-.481-.057-.915-.312-1.3-.765l-.106-.134a2.814 2.814 0 01-.552-1.084 2.184 2.184 0 01-.024-1.093c.085-.335.252-.622.501-.861.319-.303.665-.443 1.04-.421.376.021.741.194 1.097.516.127.115.243.24.35.373l.202.262-1.973 1.973c.24.306.516.493.831.561.315.067.599-.018.852-.256.305-.29.447-.699.425-1.227l.535-.045c.056.308.035.614-.062.916-.098.304-.27.576-.52.818zm-2.381-3.024a1.042 1.042 0 00-.334.757c-.01.302.086.644.285 1.024l1.47-1.465-.034-.056c-.204-.263-.436-.42-.696-.47a.753.753 0 00-.691.21zM98.079 103.192l-.503.502-3.533-5.017.505-.506 3.53 5.021zM103.295 97.975a.928.928 0 01-.179-.139l-.149-.167c-.021.533-.191.951-.51 1.255-.269.261-.57.394-.9.396a1.08 1.08 0 01-.845-.389 1.308 1.308 0 01-.326-1.167c.081-.44.336-.874.762-1.3l.531-.524-.207-.273c-.16-.199-.339-.306-.531-.323-.195-.016-.381.063-.561.235-.177.17-.287.364-.332.586a.755.755 0 00.104.593l-.505.51a1.153 1.153 0 01-.263-.675 1.713 1.713 0 01.15-.784c.114-.264.275-.496.481-.695.321-.307.661-.457 1.019-.449.358.008.674.177.949.508l1.246 1.738.2.228c.099.105.211.196.337.27l.042.053-.513.513zm-1.183.402a1.24 1.24 0 00.344-.574c.064-.224.076-.461.036-.707l-.511-.73-.384.38c-.319.318-.512.611-.582.88a.782.782 0 00.139.714.606.606 0 00.451.252c.177.012.347-.06.507-.215zM105.976 94.57c.184-.177.295-.392.331-.646a1.063 1.063 0 00-.142-.712l.474-.48c.161.216.258.466.29.746.033.279-.001.556-.102.831a1.811 1.811 0 01-.455.7c-.256.248-.533.394-.834.442a1.564 1.564 0 01-.916-.149 2.5 2.5 0 01-.851-.682l-.125-.153a2.817 2.817 0 01-.522-1.031 2.086 2.086 0 01-.008-1.058c.089-.343.267-.64.534-.894.324-.308.683-.455 1.076-.442.394.015.748.18 1.061.493l-.474.469c-.2-.193-.414-.297-.642-.313a.811.811 0 00-.623.236 1.136 1.136 0 00-.362.947c.026.374.199.763.515 1.165l.065.08c.107.13.228.256.361.374.231.205.464.314.7.33.236.018.452-.068.649-.253zM109.476 91.069c.184-.178.294-.393.331-.647a1.056 1.056 0 00-.143-.71l.474-.48c.161.216.258.464.29.744.032.28-.002.557-.102.833a1.803 1.803 0 01-.456.7c-.254.246-.532.394-.833.44a1.555 1.555 0 01-.916-.148 2.5 2.5 0 01-.85-.683l-.125-.153a2.818 2.818 0 01-.523-1.03 2.084 2.084 0 01-.009-1.058c.089-.342.268-.64.535-.894.324-.308.683-.455 1.077-.442.393.015.747.179 1.06.492l-.473.47c-.201-.193-.415-.297-.643-.314a.807.807 0 00-.622.237 1.133 1.133 0 00-.362.946c.026.374.197.764.514 1.166l.065.081c.107.13.229.254.362.373.23.204.463.314.698.33.237.018.453-.068.651-.253zM113.425 87.954c-.384.368-.816.524-1.297.467-.481-.058-.914-.312-1.3-.765l-.106-.134a2.823 2.823 0 01-.552-1.084 2.176 2.176 0 01-.024-1.093c.085-.335.252-.622.501-.86.318-.303.665-.444 1.04-.422.376.021.742.193 1.098.516.125.116.243.24.35.373l.201.262-1.973 1.973c.239.306.516.493.831.56.316.068.599-.018.852-.255.305-.29.447-.699.425-1.227l.536-.046a1.88 1.88 0 01-.063.917 1.972 1.972 0 01-.519.818zm-2.383-3.023a1.04 1.04 0 00-.333.756c-.009.303.086.644.284 1.024l1.47-1.465-.033-.055c-.204-.264-.436-.42-.696-.47a.751.751 0 00-.692.21zM116.651 82.985c-.18-.236-.441-.268-.783-.096l-.678.371c-.595.29-1.061.253-1.398-.116-.253-.277-.349-.616-.289-1.015.06-.4.248-.754.561-1.061.309-.302.647-.46 1.01-.478.363-.017.682.117.953.403l-.505.5a.668.668 0 00-.51-.225c-.193.004-.374.086-.541.246-.179.17-.287.365-.324.58a.661.661 0 00.124.532c.151.198.385.219.703.06l.323-.184c.435-.257.797-.387 1.085-.39a.939.939 0 01.732.332c.177.198.279.424.306.674a1.5 1.5 0 01-.127.765c-.113.26-.278.492-.493.696-.324.316-.681.487-1.073.513a1.225 1.225 0 01-1.007-.405l.508-.502c.169.17.359.25.568.245.211-.007.41-.104.598-.292a1.23 1.23 0 00.361-.591.627.627 0 00-.104-.562zM120.108 79.528c-.18-.236-.442-.268-.783-.097l-.678.372c-.594.29-1.06.252-1.399-.115-.251-.279-.348-.617-.287-1.017.059-.4.246-.752.56-1.06.309-.301.646-.46 1.01-.478.364-.017.681.118.952.404l-.505.499a.66.66 0 00-.509-.225c-.193.004-.373.085-.542.246-.178.17-.285.364-.323.579-.034.2.008.378.124.533.151.198.385.22.703.06l.323-.185c.435-.256.797-.386 1.085-.388a.94.94 0 01.732.331c.176.199.279.423.306.674.028.25-.015.505-.128.765s-.276.49-.493.696c-.323.316-.68.487-1.071.512a1.218 1.218 0 01-1.008-.404l.509-.502c.169.17.358.25.568.245.21-.006.408-.103.596-.29.189-.182.309-.379.362-.594a.628.628 0 00-.104-.56zM121.122 74.012c.256-.249.542-.397.856-.443.313-.047.632.003.953.152.32.148.606.375.857.682l.056.066c.258.329.436.68.532 1.057.097.376.101.742.011 1.094-.089.353-.27.659-.541.914-.255.247-.54.396-.855.444a1.632 1.632 0 01-.943-.148 2.505 2.505 0 01-.849-.67 2.915 2.915 0 01-.587-1.095 2.217 2.217 0 01-.032-1.124c.086-.358.267-.668.542-.929zm.587 2.642c.105.13.227.251.365.365.237.2.478.308.72.326a.84.84 0 00.654-.247 1.13 1.13 0 00.338-.587c.055-.23.04-.482-.042-.757a2.382 2.382 0 00-.405-.78 3.764 3.764 0 00-.423-.44c-.247-.202-.493-.31-.735-.328a.853.853 0 00-.658.247c-.267.254-.386.578-.359.97.028.392.19.78.487 1.161l.058.07zM125.598 70.567l-.263.211c-.323.324-.432.724-.327 1.201l1.77 2.512-.505.505-2.488-3.536.485-.491.276.426c-.066-.494.05-.882.347-1.165.061-.062.155-.128.282-.198l.423.535zM129.294 71.974l-.503.503-2.487-3.537.502-.502 2.488 3.536zm-3.695-4.527a.39.39 0 01.288-.137.406.406 0 01.302.13.421.421 0 01.005.602.395.395 0 01-.291.14.383.383 0 01-.292-.13.448.448 0 01-.133-.301.411.411 0 01.121-.304zM132.053 69.327c-.383.368-.815.523-1.297.467-.48-.058-.913-.312-1.299-.765l-.106-.134a2.824 2.824 0 01-.552-1.084 2.176 2.176 0 01-.024-1.093c.085-.335.252-.622.501-.86.318-.303.665-.444 1.04-.422.376.021.742.193 1.098.516.125.116.243.24.35.373l.201.262-1.973 1.973c.239.306.516.493.831.56.315.068.599-.018.852-.255.305-.29.447-.699.424-1.227l.537-.046a1.88 1.88 0 01-.063.917 1.966 1.966 0 01-.52.818zm-2.382-3.023a1.037 1.037 0 00-.333.756c-.009.303.086.644.284 1.024l1.47-1.465-.033-.055c-.204-.264-.436-.42-.696-.47a.753.753 0 00-.692.21zM135.28 64.358c-.18-.236-.441-.268-.784-.096l-.677.371c-.595.29-1.061.253-1.399-.116-.252-.277-.348-.616-.288-1.015.06-.4.248-.754.561-1.06.309-.303.646-.462 1.009-.479.364-.017.683.117.954.403l-.506.5a.665.665 0 00-.509-.225.802.802 0 00-.541.246 1.048 1.048 0 00-.325.58.662.662 0 00.125.532c.151.198.385.219.703.06l.323-.184c.435-.257.797-.387 1.085-.39a.942.942 0 01.732.332c.177.198.279.423.306.674a1.5 1.5 0 01-.127.765c-.113.26-.278.492-.493.696-.324.316-.681.487-1.073.513a1.225 1.225 0 01-1.007-.405l.508-.502c.169.17.358.25.568.245.21-.006.41-.104.598-.291a1.23 1.23 0 00.361-.592.628.628 0 00-.104-.562z" fill="#2F56A5"/></g><defs><clipPath id="clip0"><path fill="#fff" transform="rotate(-45 142.4 39.577)" d="M0 0h139.39v83.431H0z"/></clipPath></defs></svg>