<svg width="40" height="40" viewBox="0 0 40 40" fill="none" xmlns="http://www.w3.org/2000/svg"><path d="M0 8a8 8 0 0 1 8-8h24a8 8 0 0 1 8 8v24a8 8 0 0 1-8 8H8a8 8 0 0 1-8-8V8Z" fill="#4A76A8"/><path d="M16.676 20.317c-1.153.664-3.678-4.652-4.185-5.909a1.164 1.164 0 0 0-.323-.442 1.63 1.63 0 0 0-.6-.244h-3.7s-.565.035-.773.28c-.207.243-.011.697-.011.697s2.905 6.619 6.191 10.074c.806.906 1.8 1.62 2.913 2.091a8.075 8.075 0 0 0 3.52.63c.77.042 1.542.014 2.306-.08.623-.675-.161-2.502 1.153-2.92.957-.303 2.18 2.058 3.46 2.954a2.51 2.51 0 0 0 1.729.547h3.458s1.81-.105.957-1.547a11.684 11.684 0 0 0-2.57-3.001c-2.226-2.117-1.938-1.768.68-5.258 1.59-2.14 2.225-3.49 2.029-4.013-.196-.524-1.395-.43-1.395-.43h-3.897a.88.88 0 0 0-.508.092 1.09 1.09 0 0 0-.345.42c-.542 1.442-3.102 6.7-4.163 6.013-1.406-.919.704-6.549-1.337-7.05a6.593 6.593 0 0 0-1.822-.185 8.357 8.357 0 0 0-3.24.337c-.438.221-.783.71-.576.733.444.039.856.247 1.153.582.588.767.692 5.187-.104 5.63Z" fill="#fff"/></svg>