<svg width="40" height="40" viewBox="0 0 40 40" fill="none" xmlns="http://www.w3.org/2000/svg"><path d="M20.005 0h-.01C8.967 0 0 8.97 0 20c0 4.375 1.41 8.43 3.808 11.723l-2.493 7.43 7.688-2.458A19.827 19.827 0 0 0 20.005 40C31.032 40 40 31.027 40 20S31.032 0 20.005 0Z" fill="#4CAF50"/><path d="M31.641 28.242c-.482 1.363-2.397 2.493-3.925 2.823-1.045.223-2.41.4-7.005-1.505-5.877-2.435-9.662-8.407-9.957-8.795-.283-.387-2.375-3.163-2.375-6.033 0-2.87 1.457-4.267 2.045-4.867.482-.493 1.28-.718 2.045-.718.247 0 .47.013.67.023.587.025.882.06 1.27.988.482 1.162 1.657 4.032 1.797 4.327.143.295.285.695.085 1.083-.187.4-.352.577-.647.917-.295.34-.575.6-.87.965-.27.317-.575.658-.235 1.245.34.575 1.515 2.492 3.245 4.032 2.232 1.988 4.042 2.623 4.69 2.893.482.2 1.057.152 1.41-.223.447-.482 1-1.282 1.562-2.07.4-.565.905-.635 1.435-.435.54.188 3.398 1.6 3.985 1.893.588.295.975.435 1.118.683.14.247.14 1.41-.343 2.774Z" fill="#FAFAFA"/></svg>