<svg width="157" height="25" fill="none" xmlns="http://www.w3.org/2000/svg"><path fill-rule="evenodd" clip-rule="evenodd" d="M8.263 12.074L0 23.974h5.758L21.694 1.024h-5.758l-4.794 6.906-4.794-6.906H.59l7.673 11.05zm4.315 6.21l3.951 5.69h5.758l-6.83-9.835-2.879 4.146zm20.07 5.69c7.23 0 12.223-5.018 12.223-11.474v-.067c0-6.454-4.992-11.408-12.223-11.408h-8.97v22.948h5.061V5.585h3.91c4.141 0 6.933 2.85 6.933 6.915v.065c0 4.068-2.792 6.85-6.934 6.85H31.06v4.559h1.588zm22.413 0c7.23 0 12.223-5.018 12.223-11.474v-.067c0-6.454-4.994-11.408-12.223-11.408h-7.656v22.948h7.657zm15.412 0H87v-1.575H72.183v-9.21h13.175v-1.572H72.183V2.602h14.654V1.025H70.473v22.949zm27.174.327c4.439 0 7.625-2.558 7.625-6.262v-.067c0-3.34-2.236-5.242-7.555-6.321-5.455-1.118-6.703-2.594-6.703-5.017v-.068c0-2.392 2.23-4.324 5.616-4.324 2.53 0 4.699.718 6.867 2.588l1.087-1.344C102.249 1.618 100.05.7 96.695.7c-4.27 0-7.39 2.622-7.39 6.032v.065c0 3.475 2.233 5.342 7.756 6.46 5.22 1.047 6.501 2.454 6.501 4.883v.064c0 2.62-2.366 4.556-5.813 4.556-3.386 0-5.718-1.084-8.25-3.407l-1.118 1.275c2.763 2.46 5.588 3.673 9.266 3.673zm10.847-.327h1.709V1.027h-1.709v22.946zm16.694.394c3.746 0 6.963-1.608 9.036-3.443v-8.85h-9.335v1.571h7.69v6.59c-1.674 1.41-4.403 2.62-7.326 2.62-6.146 0-9.859-4.424-9.859-10.356v-.067c0-5.537 3.91-10.257 9.495-10.257 3.484 0 5.591 1.18 7.397 2.752l1.115-1.278c-2.301-1.9-4.664-3.013-8.41-3.013-6.87 0-11.371 5.667-11.371 11.863v.065c0 6.458 4.304 11.803 11.568 11.803zm30.428-.394h1.281V1.024h-1.642v19.962L139.383 1.025h-1.611v22.949h1.645V3.584l16.199 20.39zM49.115 2.602h5.947c6.408 0 10.447 4.458 10.447 9.898v.064c0 5.475-4.039 9.834-10.447 9.834h-5.947V2.602z" fill="#000"/></svg>