<svg width="185" height="185" fill="none" xmlns="http://www.w3.org/2000/svg"><path d="M5.782 106.46c-7.71-7.71-7.71-20.21 0-27.92L78.54 5.782c7.71-7.71 20.21-7.71 27.92 0l72.758 72.758c7.709 7.71 7.709 20.21 0 27.92l-72.758 72.758c-7.71 7.709-20.21 7.709-27.92 0L5.782 106.46z" fill="#1C1C28"/><path fill-rule="evenodd" clip-rule="evenodd" d="M57.79 126.537l1.794 9.835 2.801-2.802-3.46-18.968-2.802 2.802 1.043 5.707-5.708-1.042-2.801 2.801 9.132 1.667zm5.134.935l4.702.858 2.802-2.802-8.13-1.483.626 3.427zm12.545-6.985c3.518-3.518 3.495-8.399.34-11.554l-.033-.033c-3.154-3.154-8.004-3.145-11.521.373l-4.365 4.364 11.214 11.215 2.463-2.463-8.986-8.986 1.902-1.902c2.015-2.015 4.766-1.98 6.752.006l.032.031c1.988 1.988 1.99 4.706-.026 6.721l-.773.773 2.228 2.228.773-.773zm10.905-10.905c3.517-3.517 3.495-8.399.34-11.554l-.033-.033c-3.154-3.154-8.004-3.145-11.522.373l-3.725 3.725 11.214 11.214 3.726-3.725zm7.498-7.498l8.042-8.042-.77-.77-7.209 7.21-4.5-4.5 6.41-6.41-.769-.77-6.41 6.411-4.405-4.405 7.13-7.13-.771-.77-7.962 7.961 11.214 11.215zm13.382-13.062c2.16-2.16 2.46-4.96.65-6.77l-.033-.032c-1.632-1.633-3.65-1.474-6.765.586-3.2 2.108-4.53 1.994-5.713.81l-.033-.033c-1.17-1.169-1.028-3.199.62-4.846 1.23-1.23 2.636-1.935 4.605-2.076l-.128-1.186c-2.049.223-3.568.845-5.2 2.477-2.077 2.078-2.314 4.878-.648 6.544l.032.031c1.698 1.699 3.697 1.524 6.93-.617 3.052-2.028 4.363-1.964 5.55-.777l.032.032c1.28 1.28 1.075 3.377-.603 5.055-1.647 1.647-3.311 2.252-5.679 2.349l.079 1.167c2.547-.142 4.514-.924 6.304-2.714zm5.117-5.437l.832-.832L101.99 71.54l-.832.832 11.213 11.213zm8.316-7.93c1.822-1.822 2.602-4.173 2.713-6.079l-4.325-4.325-4.542 4.541.769.769 3.741-3.742 3.22 3.22c-.125 1.504-.862 3.423-2.284 4.846-2.99 2.99-6.958 2.634-9.857-.265l-.033-.032c-2.706-2.706-3.11-6.915-.392-9.632 1.695-1.696 3.296-2.144 4.943-2.254l-.082-1.167c-2.048.19-3.742.796-5.565 2.619-3.342 3.342-2.762 8.302.265 11.33l.032.031c3.156 3.156 7.862 3.674 11.397.14zm14.611-14.997l.624-.624-11.215-11.214-.799.799 9.755 9.755-17.477-2.033-.784.784 11.215 11.214.8-.8-9.964-9.964 17.845 2.083zM73.037 102.03l2.893-2.893c3.118-3.118 7.262-2.905 9.92-.246l.032.031c2.675 2.675 2.84 6.771-.278 9.889l-2.893 2.894-9.674-9.675z" fill="#fff"/></svg>