<svg width="40" height="40" viewBox="0 0 40 40" fill="none" xmlns="http://www.w3.org/2000/svg"><g clip-path="url(#a)"><path d="M39.176 10.398a5.012 5.012 0 0 0-3.526-3.526C32.52 6.016 20 6.016 20 6.016s-12.52 0-15.651.824c-1.68.46-3.064 1.845-3.525 3.558C0 13.528 0 20.018 0 20.018s0 6.525.824 9.622a5.012 5.012 0 0 0 3.525 3.526c3.163.856 15.65.856 15.65.856s12.521 0 15.652-.824a5.012 5.012 0 0 0 3.525-3.525c.824-3.13.824-9.621.824-9.621s.033-6.524-.824-9.654Z" fill="red"/><path d="m16.012 26.016 10.411-5.997-10.411-5.996v11.993Z" fill="#fff"/></g><defs><clipPath id="a"><path fill="#fff" d="M0 0h40v40H0z"/></clipPath></defs></svg>