<svg width="60" height="60" viewBox="0 0 60 60" fill="none" xmlns="http://www.w3.org/2000/svg"><path fill="#03A9F4" d="M0 0h60v60H0z"/><path fill-rule="evenodd" clip-rule="evenodd" d="M19.013 14.87h2.228v.001l3.111 10.803h-2.415l-.525-2.205h-2.555l-.008.032-.277 1.07c-.1.374-.2.74-.302 1.104H15.9l3.113-10.805Zm.65 5.045-.31 1.552 1.548.001-.294-1.537-.434-2.159h-.077l-.433 2.143ZM29.271 34.696c.175.164.321.355.434.567.113.212.197.44.247.674.052.24.078.472.078.7 0 .529-.078.995-.233 1.403-.154.41-.37.754-.65 1.033-.278.28-.614.491-1.005.637a3.724 3.724 0 0 1-1.301.217h-3.637V29.124h3.481c1.054 0 1.854.268 2.402.806.546.54.817 1.284.817 2.238a2.7 2.7 0 0 1-.292 1.2c-.197.399-.521.691-.975.879v.076c.236.077.452.204.634.373Zm-2.586 3.103c.445 0 .749-.123.915-.37.165-.25.246-.554.246-.916 0-.361-.09-.653-.27-.87-.18-.216-.471-.326-.873-.326h-1.256v2.482h1.238Zm-.138-6.626h-1.1v2.189h1.115c.414 0 .708-.103.882-.31.176-.209.264-.476.264-.809 0-.36-.088-.63-.264-.806-.174-.176-.474-.264-.897-.264Z" fill="#fff"/><path d="M41.785 31.172H39.48v-2.048h6.842v2.05h-2.307v8.752h-2.23v-8.754ZM53.903 34.735c.214.268.369.577.456.909.09.354.135.72.131 1.085 0 1.035-.316 1.838-.952 2.412-.635.577-1.535.862-2.702.862a5.042 5.042 0 0 1-1.23-.137 4.244 4.244 0 0 1-.99-.38 3.86 3.86 0 0 1-.797-.574 4.492 4.492 0 0 1-.635-.74l1.764-1.427c.28.393.571.684.875.87.304.185.653.279 1.044.279.475 0 .803-.104.985-.31.179-.208.269-.462.269-.762a.969.969 0 0 0-.147-.535 1.405 1.405 0 0 0-.402-.396 2.77 2.77 0 0 0-.596-.294 9.963 9.963 0 0 0-.742-.234 6.68 6.68 0 0 1-1.271-.528 3.315 3.315 0 0 1-.858-.666 2.369 2.369 0 0 1-.488-.854 3.538 3.538 0 0 1-.156-1.087 3.24 3.24 0 0 1 .248-1.28c.16-.38.398-.725.697-1.01a3.14 3.14 0 0 1 1.077-.66c.444-.16.913-.238 1.385-.233.815 0 1.485.128 2.004.381.528.26.983.646 1.323 1.125l-1.61 1.522c-.514-.609-1.087-.916-1.718-.916-.33 0-.599.088-.811.264a.862.862 0 0 0-.317.7.63.63 0 0 0 .154.417c.119.137.26.253.417.342.199.114.406.212.62.294.249.098.501.186.757.264.538.167.987.356 1.348.57.333.185.627.432.868.727Z" fill="#fff"/><path fill-rule="evenodd" clip-rule="evenodd" d="M36.558 29.35c.41.181.773.452 1.067.791.279.326.492.702.627 1.11.14.415.21.833.21 1.258v4.02c0 .536-.086 1.018-.255 1.451-.17.43-.407.797-.713 1.101a3.064 3.064 0 0 1-1.083.7c-.418.158-.88.24-1.386.24-.62 0-1.148-.1-1.587-.295a2.91 2.91 0 0 1-1.074-.8 3.18 3.18 0 0 1-.612-1.173 4.935 4.935 0 0 1-.195-1.396V32.51c.002-.414.065-.825.186-1.22.123-.407.329-.785.604-1.11a3.218 3.218 0 0 1 1.076-.815c.44-.214.972-.319 1.602-.319.59 0 1.1.102 1.533.303Zm-.704 8.186c.232-.208.347-.492.347-.853v-4.269c0-.105-.018-.222-.054-.357a1.127 1.127 0 0 0-.192-.389 1.223 1.223 0 0 0-.365-.316 1.093 1.093 0 0 0-.565-.133c-.227 0-.417.04-.571.115-.155.08-.281.178-.38.295a1.255 1.255 0 0 0-.287.786v4.004c0 .414.095.753.286 1.023.192.27.51.405.952.405.306.005.602-.106.83-.31Z" fill="#fff"/><path d="M18.865 51.767c.232-.222.347-.515.347-.877l.001-7.511h2.26v7.404a3.89 3.89 0 0 1-.255 1.449 3.18 3.18 0 0 1-.713 1.101 3.073 3.073 0 0 1-1.083.7 3.87 3.87 0 0 1-1.385.24c-.62 0-1.148-.099-1.588-.295a2.917 2.917 0 0 1-1.075-.8 3.195 3.195 0 0 1-.61-1.17 4.983 4.983 0 0 1-.194-1.396V43.38h2.23v7.293c0 .414.095.756.285 1.025.19.268.508.403.952.403a1.155 1.155 0 0 0 .828-.333Z" fill="#fff"/><path fill-rule="evenodd" clip-rule="evenodd" d="M32.43 22.126c-.01.658-.105 1.219-.28 1.685a2.84 2.84 0 0 1-.518.9c-.212.24-.457.427-.735.568a3.498 3.498 0 0 1-.905.302 5.52 5.52 0 0 1-1.015.094h-3.359V14.87h3.561c.722 0 1.338.135 1.848.405.512.27.882.714 1.124 1.335.14.363.23.809.255 1.343.026.532.039 1.124.039 1.775 0 .943-.006 1.742-.015 2.398Zm-2.5 1.033c.189-.29.285-.687.285-1.194v-2.609c0-.31-.014-.61-.046-.9a2.598 2.598 0 0 0-.193-.768 1.196 1.196 0 0 0-.434-.526c-.19-.13-.446-.195-.766-.195h-.929v6.627h.945c.567 0 .947-.145 1.137-.435ZM12.87 32.306c0 .693-.132 1.287-.4 1.785-.27.496-.679.901-1.178 1.164l1.734 4.672h-2.43l-1.44-4.267h-.945v4.267H5.967V29.124h3.56c.438-.002.874.06 1.293.186.392.117.756.312 1.07.575.31.27.556.606.718.985.175.398.262.878.262 1.436Zm-3.45 1.305c.36 0 .667-.096.92-.288.254-.193.38-.527.38-1 0-.416-.116-.71-.349-.886-.232-.176-.528-.264-.89-.264h-1.27v2.438H9.42Z" fill="#fff"/><path d="m8.258 20.552-.062.015v5.108h-2.23V14.87h2.06l1.254 3.012 1.068 2.7h.078l1.037-2.716 1.24-2.996h2.104v10.805h-2.23v-5.093l-.06-.015-.745 1.94-.573 1.399H9.59l-.602-1.493-.73-1.861Z" fill="#fff"/><path fill-rule="evenodd" clip-rule="evenodd" d="M16.311 39.725a2.924 2.924 0 0 1-1.076-.8 3.201 3.201 0 0 1-.611-1.173 4.987 4.987 0 0 1-.193-1.396V32.51c.001-.413.064-.824.185-1.22.124-.41.326-.779.604-1.11a3.212 3.212 0 0 1 1.076-.815c.44-.214.972-.319 1.602-.319.59 0 1.098.102 1.533.303.409.183.773.454 1.067.792.279.326.492.703.627 1.11.14.415.21.833.21 1.258v4.02c0 .536-.086 1.019-.257 1.451a3.22 3.22 0 0 1-.71 1.101 3.075 3.075 0 0 1-1.084.7c-.419.158-.88.24-1.386.24-.62 0-1.149-.1-1.587-.295Zm.634-8.095a1.27 1.27 0 0 0-.285.785v4.004c0 .413.095.753.286 1.023.191.269.508.404.952.404a1.2 1.2 0 0 0 .828-.31c.233-.208.348-.492.348-.854v-4.268c0-.105-.018-.222-.054-.357a1.127 1.127 0 0 0-.192-.389 1.223 1.223 0 0 0-.365-.316 1.099 1.099 0 0 0-.565-.133 1.298 1.298 0 0 0-.573.115 1.197 1.197 0 0 0-.38.296ZM12.87 46.56c0 .69-.133 1.287-.4 1.784v.002c-.27.495-.679.9-1.178 1.162l1.734 4.673h-2.43l-1.44-4.268H8.21v4.267H5.967V43.377h3.56c.438-.002.873.06 1.293.185.392.116.756.312 1.07.575.31.27.556.608.718.987.175.398.262.877.262 1.435Zm-3.45 1.304c.36 0 .667-.098.92-.287.253-.194.379-.527.379-1.003 0-.414-.116-.71-.348-.885-.232-.175-.53-.263-.89-.263h-1.27v2.438H9.42Z" fill="#fff"/></svg>
