<svg width="194" height="90" viewBox="0 0 194 90" fill="none" xmlns="http://www.w3.org/2000/svg"><path d="M130.85 6.042c0 3.323-2.673 6.042-5.943 6.042-3.27 0-5.943-2.719-5.943-6.042S121.637 0 124.907 0c3.27 0 5.943 2.719 5.943 6.042ZM49.118 30.284c-3.862.302-6.39 2.266-7.579 4.909V15.859h-7.358v43.804h7.434v-14.35c0-4.531 1.56-8.156 7.427-8.156 5.874 0 7.434 3.625 7.434 8.156v14.35h7.427v-14.35c-.075-10.573-6.61-15.71-14.785-15.03ZM151.585 15.859h7.434v43.804h-7.434V15.86Z" fill="#1C1C28"/><path fill-rule="evenodd" clip-rule="evenodd" d="M98.826 30.21c-8.918 0-14.86 6.041-14.86 16.615V75.6h7.433V56.945c1.15 1.45 2.811 2.435 4.472 2.976 1.025.333 2.05.498 2.955.498 8.176 0 14.786-6.721 14.786-15.104.075-8.383-6.61-15.105-14.786-15.105Zm0 23.26c-4.459 0-7.427-3.548-7.427-8.155 0-4.607 2.893-8.157 7.427-8.157 4.535 0 7.434 3.625 7.434 8.157 0 4.607-3.05 8.156-7.434 8.156ZM117.48 45.315c0-8.383 6.685-15.105 14.861-15.105 8.176 0 14.785 6.721 14.861 15.105 0 8.383-6.685 15.104-14.861 15.104-8.245 0-14.861-6.797-14.861-15.104Zm7.358.075c0 4.532 2.968 8.08 7.427 8.08s7.434-3.548 7.434-8.08c0-4.531-2.899-8.157-7.434-8.157-4.528 0-7.427 3.626-7.427 8.157ZM163.478 45.315c0-8.383 6.685-15.105 14.861-15.105 8.251 0 14.861 6.721 14.861 15.105 0 8.383-6.685 15.104-14.861 15.104-8.245 0-14.861-6.721-14.861-15.104Zm7.434.075c0 4.532 2.968 8.08 7.427 8.08 4.383 0 7.434-3.548 7.434-8.08 0-4.531-2.9-8.157-7.434-8.157-4.534 0-7.427 3.626-7.427 8.157Z" fill="#1C1C28"/><path d="M70.217 30.965h7.434v28.699h-7.434v-28.7ZM7.434 45.239c0 4.23 2.968 7.855 7.427 7.855 2.9 0 5.572-1.89 6.616-4.381h7.874c-1.56 6.722-7.427 11.706-14.49 11.706C6.616 60.419 0 53.622 0 45.315 0 36.932 6.685 30.21 14.861 30.21c7.063 0 12.93 4.984 14.415 11.555h-7.799c-1.044-2.492-3.717-4.38-6.616-4.38-4.383 0-7.427 3.625-7.427 7.854Z" fill="#1C1C28"/></svg>