<svg width="187" height="90" viewBox="0 0 187 90" fill="none" xmlns="http://www.w3.org/2000/svg"><path fill-rule="evenodd" clip-rule="evenodd" d="M159.309 73.096v3.903h26.89V59.395h-3.918v13.7h-22.972Zm0-58.096v3.903h22.972v13.702h3.918V15h-26.89Zm-13.863 30.197v-9.07h6.147c2.997 0 4.072.994 4.072 3.712v1.607c0 2.794-1.038 3.75-4.072 3.75h-6.147Zm9.753 1.608c2.804-.727 4.763-3.33 4.763-6.43 0-1.951-.768-3.712-2.228-5.129-1.844-1.76-4.303-2.64-7.491-2.64H141.6v26.79h3.842V48.718h5.762c2.958 0 4.149 1.225 4.149 4.287v6.392h3.918v-5.78c0-4.21-.998-5.816-4.072-6.276v-.536Zm-32.344.88h11.832v-3.521h-11.832v-8.038h12.984v-3.52h-16.903v26.79h17.479v-3.521h-13.56v-8.19ZM109.987 49.1v1.837c0 3.865-1.421 5.128-4.993 5.128h-.845c-3.573 0-5.302-1.148-5.302-6.468v-7.195c0-5.358 1.806-6.468 5.378-6.468h.768c3.496 0 4.61 1.301 4.648 4.899h4.226c-.384-5.282-3.918-8.611-9.22-8.611-2.573 0-4.725.804-6.338 2.334-2.42 2.258-3.764 6.086-3.764 11.444 0 5.166 1.152 8.994 3.534 11.366 1.613 1.569 3.841 2.411 6.031 2.411 2.304 0 4.418-.919 5.493-2.908h.537v2.526h3.534V45.58h-10.41v3.52h6.723ZM76.105 36.125h4.188c3.957 0 6.108.995 6.108 6.353v7.042c0 5.358-2.151 6.353-6.108 6.353h-4.188V36.125Zm4.532 23.27c7.338 0 10.064-5.549 10.064-13.394 0-7.96-2.919-13.395-10.141-13.395h-8.298v26.79h8.375Zm-26.926-11.71h11.832v-3.521H53.711v-8.038h12.984v-3.52H49.792v26.79h17.48v-3.521H53.71v-8.19Zm-22.665-15.08h-3.918v26.79h17.67v-3.52H31.046v-23.27ZM.199 59.396V77h26.89v-3.904H4.117v-13.7H.2ZM.2 15v17.605h3.918V18.903H27.09V15H.2Z" fill="#1C1C28"/></svg>