<svg width="160" height="90" viewBox="0 0 160 90" fill="none" xmlns="http://www.w3.org/2000/svg"><path fill-rule="evenodd" clip-rule="evenodd" d="M32.694 26H7.472C3.345 26 0 29.33 0 33.436V58.54c0 4.107 3.345 7.437 7.472 7.437h25.222c4.127 0 7.472-3.33 7.472-7.437V33.436c0-4.107-3.345-7.436-7.472-7.436ZM10.52 60.338a2.262 2.262 0 0 1-1.607-.66c-7.04-7.007-2.742-11.649.108-14.716l.005-.005c3.003-3.245 4.515-4.878-.113-9.484a2.253 2.253 0 0 1-.661-1.594c0-.597.24-1.17.665-1.592a2.27 2.27 0 0 1 3.202.004c7.693 7.666 3.199 12.513.225 15.72l-.002.002c-2.973 3.207-4.2 4.534-.223 8.492a2.247 2.247 0 0 1 .49 2.452 2.269 2.269 0 0 1-2.089 1.39v-.009Zm8.496-.169c.275.114.57.17.867.169a2.23 2.23 0 0 0 1.582-.652 2.245 2.245 0 0 0 .665-1.59 2.233 2.233 0 0 0-.665-1.592c-3.962-3.951-2.73-5.28.235-8.477l.015-.016c2.974-3.208 7.468-8.055-.233-15.72a2.267 2.267 0 0 0-3.166.032 2.245 2.245 0 0 0-.032 3.15c4.622 4.608 3.115 6.24.1 9.489-2.85 3.067-7.149 7.708-.1 14.716.209.211.458.378.732.491Zm10.202.17a2.262 2.262 0 0 1-1.607-.66c-7.04-7.008-2.742-11.65.108-14.717l.005-.005c3.003-3.245 4.515-4.878-.113-9.484a2.248 2.248 0 0 1 .004-3.186 2.27 2.27 0 0 1 3.202.004c7.693 7.666 3.199 12.513.225 15.72l-.002.002c-2.973 3.207-4.2 4.534-.223 8.492a2.247 2.247 0 0 1-.343 3.462c-.372.247-.809.38-1.256.38v-.009Z" fill="#1C1C28"/><path d="M82.51 62.596a3.613 3.613 0 0 1-1.173 2.432c-.692.63-1.6.97-2.538.949-2.046 0-3.827-1.559-3.827-3.38v-18.46l-6.137 12.029a4.048 4.048 0 0 1-1.487 1.49 4.073 4.073 0 0 1-5.563-1.49l-6.138-12.029v18.46c0 1.821-1.78 3.38-3.876 3.38a3.563 3.563 0 0 1-2.528-.943 3.53 3.53 0 0 1-1.133-2.438v-31.83a3.597 3.597 0 0 1 1.175-2.597 3.632 3.632 0 0 1 2.701-.94 3.95 3.95 0 0 1 2.194.476c.67.367 1.217.92 1.575 1.593L65.34 48.26l9.584-18.962c.344-.67.88-1.22 1.542-1.584a3.801 3.801 0 0 1 2.169-.453 3.712 3.712 0 0 1 2.68.962 3.678 3.678 0 0 1 1.196 2.575v31.798ZM89.016 30.658a3.761 3.761 0 0 1 1.22-2.434 3.795 3.795 0 0 1 5.098 0 3.762 3.762 0 0 1 1.22 2.434v31.889a3.762 3.762 0 0 1-1.22 2.434 3.796 3.796 0 0 1-5.098 0 3.761 3.761 0 0 1-1.22-2.434v-31.89ZM128.539 60.56l-11.795-15.54 10.718-12.053c.317-.292.563-.652.72-1.051.158-.4.224-.83.192-1.258 0-1.871-2.096-3.43-3.711-3.43a4.291 4.291 0 0 0-3.073 1.559L110.929 40.84V30.658a3.76 3.76 0 0 0-1.22-2.434 3.796 3.796 0 0 0-5.098 0 3.76 3.76 0 0 0-1.22 2.434V62.49a3.754 3.754 0 0 0 1.188 2.497 3.788 3.788 0 0 0 5.162 0 3.75 3.75 0 0 0 1.188-2.497V51.558l.969-1.072 10.445 13.933a3.748 3.748 0 0 0 4.124 1.395 3.742 3.742 0 0 0 1.883-1.291 3.713 3.713 0 0 0 .777-2.14 2.692 2.692 0 0 0-.588-1.823ZM146.514 65.976c-8.673 0-13.519-5.68-13.519-13.347V30.765a3.599 3.599 0 0 1 2.394-3.33 3.634 3.634 0 0 1 1.433-.207 3.706 3.706 0 0 1 2.575 1.021c.692.66 1.1 1.562 1.136 2.516v21.864c0 3.858 1.889 6.537 5.981 6.537s5.898-2.728 5.898-6.537V30.765a3.636 3.636 0 0 1 1.127-2.525 3.67 3.67 0 0 1 2.583-1.012 3.747 3.747 0 0 1 2.67.974 3.71 3.71 0 0 1 1.207 2.563v21.864c.025 7.716-4.978 13.347-13.485 13.347Z" fill="#1C1C28"/></svg>