<svg width="171" height="90" viewBox="0 0 171 90" fill="none" xmlns="http://www.w3.org/2000/svg"><path d="M78.83 60.614c-1.248-1.645-2.029-3.055-2.34-4.622-.391-1.881-.391-3.918.39-5.72.312-.627.702-1.411 1.326-1.881.468-.47 1.093-.705 1.795-.705.624 0 1.093.157 1.483.313.468.157.937.314 1.717.078.156-.078.546-.156.936-.391.235-.157.469-.314.703-.549.39-.392.702-.705.936-.862.234-.235.39-.313.469-.47.234-.313-.235-.862-.547-1.41-.156-.235-.312-.392-.39-.627l-.078-.157v-.157c0-.548 0-1.488-.078-2.428-.078-.628-.234-1.098-.39-1.411a14.312 14.312 0 0 0-1.17-1.332c-.547-.47-1.093-.94-1.562-1.175l-.39-.235.234-.392a10.882 10.882 0 0 1 1.405-2.116l.078-.078h-.078c-.468.235-.936.548-1.327 1.018L79.455 37.5l1.249-2.35c.312-.627.546-1.176.702-1.646l.234-.862c-.078-.156-.078.235-.312.235a7.368 7.368 0 0 0-1.405.392c-.312.157-.936.47-1.639.862a69.523 69.523 0 0 0-2.575 1.489l-.078.078h-.078c-5.62.94-9.6 6.112-12.877 10.108 2.575-6.66 9.52-10.421 12.565-10.813.468-.313 1.56-.94 2.575-1.489.702-.392 1.327-.783 1.717-.862.39-.156 1.015-.392 1.56-.47.625-.157 1.25-.078 1.406.235.078.157.078.784-.156 1.489.156-.078.39-.235.624-.314.39-.156.702-.234.858-.234.156 0 .312.078.468.156.157.078.313.314.313.47 0 .079 0 .236-.078.392-.078.235-.235.47-.547.784-.312.392-.702.862-1.092 1.567.39.313.858.627 1.327 1.018.546.549 1.092 1.097 1.326 1.49.234.39.39 1.096.547 1.802.156.861.156 1.88.156 2.428l.312.392c.546.706 1.092 1.567.546 2.43-.156.313-.39.47-.702.704-.234.157-.468.47-.859.784a3.675 3.675 0 0 1-.936.705c-.469.235-.937.392-1.17.47-1.016.314-1.64.079-2.264-.078-.312-.078-.703-.235-1.17-.235-.469 0-.86.157-1.171.47-.469.392-.859 1.019-1.093 1.567-1.483 3.37-1.093 6.426 1.093 9.952ZM84.684 21.123s-3.2-.705-2.497-7.914c0 0-.234-6.896 5.229-7.209h.078c.312 0 4.994.548 4.994 2.507 0 0-1.795 9.246-2.731 10.657-.078.078-1.483 3.84-5.073 1.959Z" fill="#1C1C28"/><path d="M91.708 8.192a5.204 5.204 0 0 1 1.561 0 9.103 9.103 0 0 1 1.561.391c1.014.392 1.951.862 2.81 1.567.858.627 1.639 1.41 2.34 2.194.703.784 1.328 1.724 1.952 2.586v.079c.078.078.156.234.234.313.078.078.156.235.234.313.156.236.39.392.625.627.39.392.936.705 1.404 1.019 1.015.548 2.186.862 3.356 1.097 1.171.157 2.341.235 3.59.157a28.165 28.165 0 0 0 3.59-.47l.39-.079.234.392c.078.157.157.235.157.392.078.156.078.235.156.391.078.235.156.549.234.784.156.549.234 1.097.234 1.645 0 .549 0 1.098-.156 1.646-.156.548-.312 1.097-.625 1.567l.078-.157v.157l-.078.078c0 .079-.078.157-.078.236-.078.156-.156.235-.156.391l-.468.706a5.244 5.244 0 0 1-1.171 1.097c-.858.626-1.794 1.096-2.731 1.488-.937.392-1.951.627-2.888.862-1.014.157-1.951.314-2.965.392h-1.405c-.39 0-.858.078-1.249.157-.858.156-1.639.313-2.419.627-1.561.548-2.966 1.488-4.136 2.742-1.17 1.175-2.03 2.664-2.732 4.231-.312.784-.624 1.567-.78 2.43-.078.391-.234.861-.312 1.253v.313l-.079.314-.078.627c-.546 3.447-1.17 6.895-1.794 10.421-.157.862-.313 1.724-.547 2.586-.078.47-.156.862-.312 1.332-.156.392-.312.862-.546 1.254-.39.783-.78 1.567-1.327 2.272a10.654 10.654 0 0 1-1.873 1.88c.702-.548 1.249-1.253 1.717-1.959.468-.705.858-1.488 1.17-2.35.157-.392.313-.784.39-1.254.079-.392.157-.862.235-1.254.156-.862.312-1.723.39-2.585.546-3.448.937-6.974 1.405-10.422l.078-.627.078-.313v-.392c.078-.47.156-.862.312-1.332.234-.862.469-1.724.78-2.586.703-1.645 1.64-3.29 2.888-4.623 1.249-1.332 2.81-2.429 4.527-3.056a14.709 14.709 0 0 1 2.653-.705c.468-.078.937-.156 1.405-.156H104.976h-.078c.936-.079 1.873-.157 2.809-.392a11.949 11.949 0 0 0 2.732-.784c.936-.392 1.717-.783 2.419-1.332.39-.235.702-.548.937-.94.156-.157.234-.313.39-.549.078-.078.078-.156.156-.235l.078-.156v-.079s0-.078 0 0v-.078l.078-.078c.468-.784.702-1.646.624-2.586 0-.47-.078-.94-.156-1.332-.078-.235-.078-.47-.156-.705 0-.079-.078-.236-.078-.314-.078-.078-.078-.235-.156-.313l.624.313c-1.248.235-2.497.392-3.746.392a15.07 15.07 0 0 1-3.746-.235c-1.249-.235-2.497-.627-3.59-1.254a7.452 7.452 0 0 1-1.561-1.175c-.234-.235-.468-.47-.624-.705-.078-.157-.156-.236-.312-.392l-.234-.47v.078c-.547-.94-1.093-1.802-1.795-2.586-.625-.862-1.405-1.567-2.186-2.272-.78-.705-1.716-1.254-2.653-1.646a5.425 5.425 0 0 0-1.483-.47c-.546-.391-1.014-.47-1.56-.391Z" fill="#1C1C28"/><path d="M115.58 21.124s-2.966-1.88-1.092-2.664c0 0 1.873.313 1.092 2.664ZM80.08 19.79c-.47 1.489-1.171 2.82-1.874 4.231-.78 1.332-1.639 2.664-2.575 3.84-.937 1.253-1.951 2.35-3.122 3.447-1.093 1.098-2.341 2.038-3.59 2.978-2.575 1.802-5.463 3.134-8.429 3.84-2.965.783-6.165.94-9.13.548 3.043-.157 6.009-.627 8.896-1.489 2.81-.94 5.541-2.272 7.96-3.918a30.77 30.77 0 0 0 3.513-2.82c1.092-1.02 2.107-2.116 3.121-3.213 1.015-1.097 1.951-2.35 2.81-3.526.858-1.254 1.639-2.586 2.42-3.918ZM5.623 67.04c1.17 0 2.185.157 3.044.392.858.313 1.56.627 2.107 1.175.546.47 1.015 1.097 1.249 1.802.312.706.39 1.49.39 2.43a6.41 6.41 0 0 1-.468 2.428c-.313.706-.703 1.332-1.327 1.881-.546.549-1.249.94-2.107 1.254-.859.313-1.795.47-2.966.47h-2.81v7.052H.239V67.04h5.385Zm0 9.716c.703 0 1.327-.078 1.873-.313.547-.157 1.015-.47 1.405-.784.39-.313.624-.783.858-1.254.157-.47.313-1.018.313-1.567 0-1.175-.39-2.115-1.093-2.82-.702-.706-1.795-1.02-3.278-1.02H2.736v7.758h2.887ZM33.332 83.729v2.037H22.016V67.04h11.316v2.037h-8.819v6.269h7.102v2.037h-7.102v6.425h8.819v-.078ZM55.344 69.156h-5.931v16.611h-2.497V69.156h-5.932V67.04h14.36v2.116ZM79.844 76.441c0 1.41-.234 2.664-.624 3.84-.468 1.175-1.015 2.194-1.873 3.056-.78.861-1.717 1.488-2.888 1.959-1.092.47-2.34.705-3.668.705-1.326 0-2.575-.235-3.668-.705a8.996 8.996 0 0 1-2.887-1.96c-.78-.861-1.405-1.88-1.873-3.055-.469-1.176-.625-2.43-.625-3.84 0-1.41.234-2.664.625-3.84a7.71 7.71 0 0 1 1.873-3.055c.78-.862 1.717-1.489 2.887-1.959 1.093-.47 2.342-.705 3.668-.705 1.327 0 2.576.235 3.668.705a8.994 8.994 0 0 1 2.888 1.959c.78.862 1.405 1.88 1.873 3.056.468 1.175.624 2.429.624 3.84Zm-2.497 0c0-1.175-.156-2.194-.468-3.134a6.837 6.837 0 0 0-1.327-2.35c-.546-.628-1.249-1.098-2.03-1.49-.78-.313-1.716-.548-2.653-.548-1.014 0-1.873.157-2.653.549-.78.313-1.483.861-2.03 1.488a6.84 6.84 0 0 0-1.326 2.35c-.312.941-.468 1.96-.468 3.135 0 1.176.156 2.194.468 3.135a6.84 6.84 0 0 0 1.327 2.35c.546.627 1.249 1.097 2.029 1.489.78.313 1.717.47 2.653.47 1.015 0 1.874-.157 2.654-.47.78-.313 1.483-.784 2.029-1.489a6.836 6.836 0 0 0 1.327-2.35c.312-.94.468-1.96.468-3.135ZM104.34 67.04v18.726h-1.249c-.234 0-.39 0-.468-.078-.156-.079-.234-.157-.39-.392L91.619 71.192v14.652h-2.185V67.04h1.561c.078 0 .155 0 .233.078.079 0 .157.079.157.157.078.079.156.157.156.235l10.614 14.104c0-.235 0-.47-.078-.626V67.04h2.263ZM126.277 83.729v2.037h-11.316V67.04h11.316v2.037h-8.819v6.269h7.102v2.037h-7.102v6.425h8.819v-.078ZM147.187 83.729v2.037h-11.316V67.04h11.316v2.037h-8.819v6.269h7.102v2.037h-7.102v6.425h8.819v-.078ZM170.447 85.845h-2.185c-.468 0-.781-.157-1.015-.549l-4.761-6.739c-.155-.235-.313-.391-.468-.47-.156-.078-.39-.156-.781-.156h-1.872v7.835h-2.498V67.04h5.151c1.17 0 2.185.157 2.966.392a6.622 6.622 0 0 1 2.108 1.018c.545.47.936 1.02 1.248 1.646.234.627.39 1.332.39 2.115 0 .628-.079 1.254-.313 1.881-.234.549-.468 1.097-.857 1.567-.391.47-.86.862-1.406 1.176a6.623 6.623 0 0 1-1.873.705c.313.156.624.47.781.783l5.385 7.523Zm-8.429-9.717c.702 0 1.327-.078 1.874-.235.545-.156 1.013-.47 1.404-.783.39-.314.624-.705.858-1.176.157-.47.312-.94.312-1.488 0-1.097-.389-1.96-1.091-2.508-.704-.548-1.796-.862-3.202-.862h-2.731v7.052h2.576Z" fill="#1C1C28"/></svg>