<svg width="209" height="90" viewBox="0 0 209 90" fill="none" xmlns="http://www.w3.org/2000/svg"><path d="M96.776 70.435h-3.842V21h3.842v49.435Z" fill="#1C1C28"/><path fill-rule="evenodd" clip-rule="evenodd" d="M169.945 21h1.047a11.34 11.34 0 0 1 8.017 3.322 11.267 11.267 0 0 1 3.335 7.992V59.12c0 3.113-1.282 5.951-3.335 7.993a11.336 11.336 0 0 1-8.017 3.322h-1.047a11.343 11.343 0 0 1-8.016-3.322 11.266 11.266 0 0 1-3.335-7.993V32.314c0-3.112 1.282-5.95 3.335-7.992A11.335 11.335 0 0 1 169.945 21Zm8.119 40.637a7.375 7.375 0 0 0 .438-2.517V32.314c0-2.057-.84-3.92-2.205-5.284a7.513 7.513 0 0 0-5.305-2.2h-1.047a7.483 7.483 0 0 0-5.299 2.2 7.43 7.43 0 0 0-2.21 5.284V59.12c0 2.057.84 3.92 2.21 5.285a7.554 7.554 0 0 0 2.896 1.805 7.472 7.472 0 0 0 2.403.395h1.047a7.51 7.51 0 0 0 5.305-2.2 7.561 7.561 0 0 0 1.767-2.768ZM73.903 21h1.047a11.34 11.34 0 0 1 8.016 3.322 11.268 11.268 0 0 1 3.335 7.992v21.932c0 3.113-1.282 5.95-3.335 7.993a11.335 11.335 0 0 1-8.016 3.321h-7.16a1.388 1.388 0 0 0-.986.408c-.258.259-.41.595-.41.985v3.83H62.55V32.314c0-3.112 1.282-5.95 3.33-7.992A11.354 11.354 0 0 1 73.903 21Zm7.92 36.255a7.49 7.49 0 0 0 .637-3.008V32.313a7.43 7.43 0 0 0-2.21-5.284 7.492 7.492 0 0 0-5.3-2.2h-1.047a7.494 7.494 0 0 0-5.305 2.2 7.445 7.445 0 0 0-2.205 5.284V61.92a5.224 5.224 0 0 1 1.393-.189h7.164a7.507 7.507 0 0 0 2.338-.375c.337-.11.66-.242.969-.396a7.66 7.66 0 0 0 2.934-2.568 8.308 8.308 0 0 0 .631-1.138ZM139.908 21h1.052a11.34 11.34 0 0 1 8.017 3.322 11.283 11.283 0 0 1 3.33 7.992V59.12c0 3.113-1.282 5.951-3.33 7.993a11.348 11.348 0 0 1-8.022 3.322h-1.047a11.343 11.343 0 0 1-8.016-3.322 11.266 11.266 0 0 1-3.335-7.993V32.314c0-3.112 1.282-5.95 3.335-7.992A11.335 11.335 0 0 1 139.908 21Zm6.352 43.405a7.448 7.448 0 0 0 2.205-5.285V32.314a7.347 7.347 0 0 0-.637-3.004 7.588 7.588 0 0 0-1.568-2.28 7.495 7.495 0 0 0-5.305-2.2h-1.047a7.49 7.49 0 0 0-5.299 2.2c-1.366 1.365-2.21 3.227-2.21 5.284V59.12c0 2.057.844 3.92 2.21 5.285a7.487 7.487 0 0 0 5.299 2.2h1.047a7.492 7.492 0 0 0 5.305-2.2Z" fill="#1C1C28"/><path d="M110.955 25.678a7.682 7.682 0 0 0-1.84 1.352 7.43 7.43 0 0 0-2.21 5.284V59.12a7.34 7.34 0 0 0 .766 3.28c.369.744.858 1.42 1.444 2.005a7.49 7.49 0 0 0 5.3 2.2h1.047a7.49 7.49 0 0 0 5.3-2.2l.161-.164.212-.243 2.159 3.29a11.329 11.329 0 0 1-7.832 3.147h-1.047a11.343 11.343 0 0 1-8.017-3.322 11.266 11.266 0 0 1-3.335-7.993V32.314a11.232 11.232 0 0 1 1.933-6.296c.41-.61.881-1.178 1.402-1.696A11.336 11.336 0 0 1 114.415 21h1.047c3.104 0 5.932 1.261 7.975 3.28l-2.173 3.304a7.492 7.492 0 0 0-5.802-2.755h-1.047a7.456 7.456 0 0 0-3.46.849ZM201.025 66.605a7.492 7.492 0 0 0 5.304-2.2l.157-.17.212-.237 2.164 3.29a11.34 11.34 0 0 1-7.837 3.147h-1.047a11.343 11.343 0 0 1-8.017-3.322 11.283 11.283 0 0 1-3.33-7.993V32.314a11.24 11.24 0 0 1 1.439-5.5 11.461 11.461 0 0 1 1.891-2.492A11.338 11.338 0 0 1 199.982 21h1.047c3.1 0 5.928 1.261 7.971 3.28l-2.168 3.304-.184-.214a7.494 7.494 0 0 0-5.623-2.54h-1.043c-.761 0-1.494.113-2.186.324a7.565 7.565 0 0 0-3.118 1.876 7.446 7.446 0 0 0-2.205 5.284V59.12c0 2.057.84 3.92 2.205 5.285a7.492 7.492 0 0 0 5.304 2.2h1.043ZM16.744 42.002 0 25.314l2.717-2.708L19.46 39.294a10.526 10.526 0 0 1 2.33 3.513c.23.57.41 1.156.54 1.75.078.367.138.736.175 1.108a10.595 10.595 0 0 1-.715 5.134 10.526 10.526 0 0 1-2.33 3.511L2.717 71 0 68.291l16.744-16.69a6.776 6.776 0 0 0 1.485-2.237 6.54 6.54 0 0 0 .429-1.608l.041-.381a5.94 5.94 0 0 0 .028-.574 6.803 6.803 0 0 0-.701-3.012 8.07 8.07 0 0 0-.392-.69 6.848 6.848 0 0 0-.89-1.098ZM26.043 51.836 45.268 71l2.716-2.708L28.76 49.128l-2.716 2.708ZM25.996 41.816l19.272-19.21 2.716 2.708-19.27 19.21-2.718-2.708Z" fill="#1C1C28"/></svg>