<svg width="182" height="90" viewBox="0 0 182 90" fill="none" xmlns="http://www.w3.org/2000/svg"><path d="M64.26 37.07h5.324c5.732 0 9.345 4.022 9.345 8.93v.058c0 4.94-3.613 8.872-9.345 8.872H64.26V37.07Z" fill="#1C1C28"/><path fill-rule="evenodd" clip-rule="evenodd" d="M181.238 77h-181V15h181v62ZM27.706 45.616 20.312 56.35h5.153l14.26-20.703h-5.153l-4.29 6.23-4.289-6.23H20.84l6.866 9.968Zm3.862 5.603 3.535 5.132h5.153l-6.112-8.872-2.576 3.74Zm17.958 5.132c6.47 0 10.939-4.527 10.939-10.351v-.06c0-5.823-4.469-10.292-10.939-10.292h-8.025V56.35h4.528v-16.59h3.497c3.708 0 6.203 2.572 6.203 6.239v.058c0 3.67-2.495 6.18-6.203 6.18h-1.42v4.113h1.42Zm20.055 0c6.47 0 10.938-4.527 10.938-10.351v-.06c0-5.823-4.468-10.292-10.938-10.292h-6.85V56.35h6.85Zm13.792 0H98.16v-1.42H84.903v-8.31h11.79v-1.417h-11.79V37.07h13.113v-1.423H83.373V56.35Zm24.315.296c3.972 0 6.822-2.308 6.822-5.65v-.06c0-3.014-2.001-4.73-6.759-5.703-4.883-1.009-5.999-2.34-5.999-4.526v-.062c0-2.157 1.996-3.9 5.025-3.9 2.266 0 4.204.647 6.146 2.334l.971-1.212c-2.086-1.686-4.056-2.514-7.057-2.514-3.822 0-6.615 2.366-6.615 5.442v.059c0 3.135 1.998 4.819 6.941 5.827 4.67.946 5.817 2.215 5.817 4.406v.059c0 2.363-2.115 4.11-5.201 4.11-3.029 0-5.115-.979-7.381-3.074l-1.002 1.15c2.473 2.22 4.999 3.314 8.292 3.314Zm9.707-.296h1.527v-20.7h-1.527v20.7Zm14.936.356c3.352 0 6.231-1.45 8.085-3.106v-7.985h-8.353v1.418h6.882v5.945c-1.496 1.271-3.94 2.364-6.555 2.364-5.499 0-8.82-3.992-8.82-9.343v-.06c0-4.995 3.497-9.254 8.493-9.254 3.121 0 5.003 1.064 6.621 2.483l.997-1.153c-2.059-1.714-4.174-2.719-7.526-2.719-6.147 0-10.175 5.113-10.175 10.703v.058c0 5.827 3.852 10.65 10.351 10.65Zm27.228-.356h1.147V35.648h-1.471v18.009l-14.2-18.01h-1.442v20.704h1.47V37.956l14.496 18.395Z" fill="#1C1C28"/></svg>