<svg width="176" height="90" viewBox="0 0 176 90" fill="none" xmlns="http://www.w3.org/2000/svg"><path fill-rule="evenodd" clip-rule="evenodd" d="M38.188 54.824h15.28l3.752 8.538h5.896L46.07 26 30.758 58.373h-21.7L26.59 28.21H3.07v4.984h14.67L.199 63.357l34.008.005 3.981-8.538Zm7.789-16.936 5.298 11.95-10.851-.002 5.553-11.948ZM70.764 52.569l-9.88-24.358h-5.901L70.643 66l13.92-32.804h13.141V63.36h5.389V33.196H116.1v30.166h5.387v-14.39h.973l10.199 14.39h6.592L128.198 48.38c2.372-.5 4.283-1.647 5.733-3.435 1.451-1.79 2.176-3.932 2.176-6.421 0-3.188-1.161-5.755-3.47-7.698-2.099-1.744-5.504-2.615-10.228-2.615h-41.63L70.764 52.569Zm52.431-8.219h-1.708V33.196h1.922c4.961 0 7.446 1.797 7.446 5.396 0 3.84-2.55 5.758-7.66 5.758ZM150.306 54.824h15.298l3.746 8.538h5.89L158.199 26l-17.68 37.362h5.811l3.976-8.538Zm7.794-16.936 5.3 11.95-10.845-.002 5.545-11.948Z" fill="#1C1C28"/></svg>