<svg width="24" height="24" viewBox="0 0 24 24" fill="none" xmlns="http://www.w3.org/2000/svg">
<path d="M21.5 11.8V10.4C21.5 10.1 21.3 9.9 21 9.9V9.5C21 8.7 20.5 8.1 19.8 8C19.3 7.4 19 6.7 19 6C19 5.7 18.8 5.5 18.5 5.5C18.2 5.5 18 5.7 18 6C18 6.7 18.2 7.4 18.5 8H15.4C15.8 7.4 16 6.7 16 6C16 5.7 15.8 5.5 15.5 5.5C15.2 5.5 15 5.7 15 6C15 6.7 14.7 7.4 14.2 8C13.5 8.1 13 8.7 13 9.5V15.5C13 16.3 13.5 16.9 14.2 17C14.7 17.7 15 18.3 15 19C15 19.3 15.2 19.5 15.5 19.5C15.8 19.5 16 19.3 16 19C16 18.3 15.8 17.6 15.5 17H18.6C18.2 17.6 18.1 18.3 18.1 19C18.1 19.3 18.3 19.5 18.6 19.5C18.9 19.5 19 19.3 19 19C19 18.3 19.3 17.6 19.8 17C20.5 16.9 21 16.3 21 15.5V14.8C21.3 14.8 21.5 14.6 21.5 14.3V13.9C21.5 13.6 21.3 13.4 21 13.4V12.3C21.3 12.3 21.5 12.1 21.5 11.8ZM20 15.5C20 15.8 19.8 16 19.5 16H14.5C14.2 16 14 15.8 14 15.5V9.5C14 9.2 14.2 9 14.5 9H19.5C19.8 9 20 9.2 20 9.5V15.5Z" fill="#029AAD"/>
<path d="M13.5 17.5C13.2 17.5 13 17.7 13 18V20.5C13 20.8 12.8 21 12.5 21H3.5C3.2 21 3 20.8 3 20.5V3.5C3 3.2 3.2 3 3.5 3H12.5C12.8 3 13 3.2 13 3.5V7C13 7.3 13.2 7.5 13.5 7.5C13.8 7.5 14 7.3 14 7V3.5C14 2.6 13.4 2 12.5 2H3.5C2.6 2 2 2.6 2 3.5V20.5C2 21.4 2.6 22 3.5 22H12.5C13.4 22 14 21.4 14 20.5V18C14 17.7 13.8 17.5 13.5 17.5Z" fill="#029AAD"/>
<path d="M8 20C8.55228 20 9 19.5523 9 19C9 18.4477 8.55228 18 8 18C7.44772 18 7 18.4477 7 19C7 19.5523 7.44772 20 8 20Z" fill="#029AAD"/>
<path d="M10 5.5C10 5.2 9.8 5 9.5 5H6.5C6.2 5 6 5.2 6 5.5C6 5.8 6.2 6 6.5 6H9.5C9.8 6 10 5.8 10 5.5ZM18.2 10.8L17 12.1L16.4 11.5C16.2 11.3 15.9 11.3 15.7 11.5C15.5 11.7 15.5 12 15.7 12.2L16.7 13.2C16.8 13.3 16.9 13.3 17.1 13.3C17.3 13.3 17.4 13.3 17.5 13.2L19.1 11.6C19.3 11.4 19.3 11.1 19.1 10.9C18.9 10.7 18.4 10.7 18.2 10.8Z" fill="#029AAD"/>
</svg>
