
<svg height="800px" width="800px" version="1.1" id="Capa_1" xmlns="http://www.w3.org/2000/svg" xmlns:xlink="http://www.w3.org/1999/xlink" 
	 viewBox="0 0 503.768 503.768" xml:space="preserve">
<g>
	<g>
		<path    d="M188.144,430.205H155.54l0,0h7.706v-86.017h-81.53V43.212H63.679
			c-9.527,0-17.249,7.722-17.249,17.249v402.519c0,9.527,7.722,17.249,17.249,17.249h170.05l-10.364-17.948l-29.125-16.818
			l-6.096-3.52v-7.039V430.205z M138.86,368.574v44.951l-44.951-44.951H138.86z"/>
		<path    d="M338.913,43.212v182.186l15.916,9.193h19.37V60.46c0-9.527-7.722-17.249-17.249-17.249H338.913z"/>
		<path    d="M112.491,81.936h194.07c9.527,0,15.054-7.405,12.347-16.542l-6.576-22.191l-0.87-2.943
			c-0.179-0.602-0.463-1.171-0.707-1.756c-3.381-8.299-12.551-14.786-21.451-14.786h-56.063C233.241,10.616,222.617,0,209.522,0
			c-13.103,0-23.719,10.616-23.719,23.719H129.74c-8.901,0-18.062,6.487-21.451,14.786c-0.236,0.585-0.52,1.154-0.699,1.756
			l-0.878,2.951l-6.576,22.191C97.437,74.531,102.965,81.936,112.491,81.936z M209.53,9.267c7.982,0,14.453,6.47,14.453,14.453
			h-28.905C195.07,15.737,201.548,9.267,209.53,9.267z"/>
		<path    d="M316.332,140.852c-13.932-6.21-33.197-22.362-49.861-18.558
			c-27.816,6.357-52.779,21.159-80.432,28.604c-17.005,4.576-28.759-20.972-46.032-21.89c-13.079-0.691-27.223,14.339-35.579,22.492
			c-11.957,11.664,6.348,29.954,18.297,18.297c19.379-18.907,36.05,10.884,58.981,7.641c19.817-2.804,37.521-10.014,56.063-17.249
			c25.938-10.128,41.391-7.738,65.5,3.008C318.372,169.928,331.548,147.631,316.332,140.852z"/>
		<path    d="M294.718,228.616l18.785-10.844l6.096-3.52l2.764,1.593c-0.927-2.406-2.812-4.56-6.04-5.991
			c-13.932-6.21-33.197-22.362-49.861-18.558c-27.816,6.357-52.779,21.159-80.432,28.604c-17.005,4.576-28.759-20.972-46.032-21.89
			c-13.079-0.691-27.223,14.339-35.579,22.492c-11.957,11.665,6.348,29.954,18.297,18.297c19.379-18.907,36.05,10.884,58.981,7.641
			c19.817-2.804,37.522-10.014,56.063-17.249C260.505,220.309,275.193,221.057,294.718,228.616z"/>
		<path    d="M188.144,297.189v-7.039l6.096-3.52l19.907-11.494c-9.202,3.707-18.493,7.202-28.109,9.795
			c-17.005,4.576-28.759-20.972-46.032-21.89c-13.079-0.691-27.223,14.339-35.579,22.492c-11.957,11.665,6.348,29.954,18.297,18.297
			c19.379-18.907,36.05,10.884,58.981,7.641c2.203-0.309,4.292-0.853,6.446-1.268v-13.014H188.144z"/>
		<path    d="M438.87,297.189l-31.953-18.452l-18.452-31.953h-14.266h-22.638l-12.648-7.299l-19.305-11.144
			l-0.138,0.081l-8.372,4.828l-23.451,13.542h-36.904l-10.25,17.761l-8.194,14.201l-31.962,18.452v10.21v26.694l-18.452,31.953
			l18.452,31.953v32.197v4.698l31.962,18.452l15.517,26.873l2.934,5.08h36.904l31.962,18.452l31.962-18.452h36.904l18.452-31.953
			l31.953-18.452v-36.904l18.452-31.962l-18.452-31.962v-36.896H438.87z M390.944,338.636l-16.753,16.753l-35.286,35.286
			l-31.734,31.734c-2.569,2.569-5.95,3.812-9.315,3.772c-3.365,0.049-6.747-1.195-9.315-3.772l-40.277-40.277
			c-5.048-5.048-5.048-13.233,0-18.281l10.665-10.665c5.048-5.048,13.233-5.048,18.273,0l20.655,20.655l41.057-41.057l23.093-23.093
			c3.308-3.308,7.95-4.406,12.193-3.373c2.227,0.545,4.349,1.634,6.088,3.373l10.665,10.665
			C395.992,325.411,395.992,333.589,390.944,338.636z"/>
	</g>
</g>
</svg>