<svg width="164" height="208" viewBox="0 0 164 208" fill="none" xmlns="http://www.w3.org/2000/svg"><path d="M151.801 69.83c-3.383-3.395-7.298-6.063-11.626-8.03-11.344-5.155-20.264-14.384-25.277-25.823C105.62 14.806 84.544.019 60.022 0 27.912-.024 1.252 25.66.044 57.857c-.517 13.781 3.585 26.578 10.878 36.957 9.262 13.182 11.668 29.973 6.891 45.374-6.787 21.879-4.42 42.614 8.491 55.571 22.627 22.704 69.063 12.92 103.718-21.854 34.655-34.775 44.406-81.37 21.779-104.076Z" fill="url(#a)"/><path d="M106.152 75.373c-.077-1.347-1.128-2.596-2.693-2.596h-7.42V49.32c0-1.509-1.207-2.732-2.696-2.732h-20.49c-1.488 0-2.695 1.223-2.695 2.732v23.456h-7.42c-1.566 0-2.617 1.25-2.693 2.596l-.01 6.8h46.126l-.009-6.8Z" fill="#fff"/><path d="M96.039 80.014V56.648c0-1.503-1.207-2.722-2.696-2.722h-20.49c-1.488 0-2.695 1.219-2.695 2.722v23.366h-7.421c-2.402 0-3.605 2.932-1.906 4.647l20.36 20.559a2.678 2.678 0 0 0 3.813 0l20.362-20.559c1.698-1.715.495-4.647-1.907-4.647h-7.42Z" fill="#fff"/><path d="m59.413 85.015 20.608 20.543a4.086 4.086 0 0 0 2.894 1.194 4.087 4.087 0 0 0 2.895-1.194l20.608-20.543c.835-.832 1.251-1.918 1.204-3.027l-.009-6.488-.002-.076c-.127-2.205-1.884-3.867-4.087-3.867h-7.511c-.754 0-1.932.61-1.932 1.36v6.493c0 .751.611 1.36 1.365 1.36h7.105c.846 0 1.179.643 1.261.84.082.197.019.884-.579 1.48L83.88 102.35a1.368 1.368 0 0 1-1.929 0L62.416 83.09c-.598-.596-.665-1.283-.583-1.48.082-.197.414-.84 1.26-.84h7.11c.753 0 1.364-.609 1.364-1.36V56.062c0-.75.612-1.36 1.364-1.36h19.786c.752 0 1.364.61 1.364 1.36v7.604c0 .751 1.18 1.449 1.933 1.449.753 0 1.728-.698 1.728-1.449V49.57c0-2.25-2.2-4.08-4.457-4.08H72.183a4.091 4.091 0 0 0-4.093 4.08v21.988h-5.782c-2.203 0-3.96 1.662-4.088 3.866l-.002.077-.009 6.488c-.047 1.11.368 2.194 1.204 3.027Zm43.188-7.287h-4.86v-2.892h4.86c.822 0 1.309.649 1.36 1.27l.004 1.848a4.186 4.186 0 0 0-1.364-.226Zm-29.67-29.304h20.152c.752 0 1.364.396 1.364 1.145v2.34a4.076 4.076 0 0 0-1.364-.238H72.931c-.478 0-.936.086-1.364.237V49.57c0-.75.612-1.146 1.364-1.146Zm-9.887 26.412h5.046v2.752h-5.046c-.479 0-.937.08-1.364.227l.004-1.708c.05-.622.538-1.27 1.36-1.27Z" fill="#026592"/><path opacity=".1" d="M48.346 54.297c1.253-7.742-3.995-15.035-11.72-16.29-7.725-1.255-15.003 4.004-16.255 11.745-1.253 7.742 3.995 15.035 11.72 16.29 7.725 1.255 15.003-4.004 16.255-11.745ZM94.353 124.916h-64.95a4.057 4.057 0 0 0-4.052 4.061v17.596a4.057 4.057 0 0 0 4.052 4.061h2.957l3.389 14.675-10.031 10.053a6.338 6.338 0 0 0 0 8.951 6.306 6.306 0 0 0 8.932 0l4.456-4.465 4.702 20.365a4.056 4.056 0 0 0 3.951 3.143h74.937a4.056 4.056 0 0 0 3.951-3.143l4.702-20.365 4.456 4.465a6.306 6.306 0 0 0 8.932 0 6.338 6.338 0 0 0 0-8.951l-10.031-10.053 3.389-14.675h2.957a4.056 4.056 0 0 0 4.052-4.061v-17.596a4.056 4.056 0 0 0-4.052-4.061H94.353Z" fill="#026592"/><path d="m138.833 138.914-12.185 52.771a4.057 4.057 0 0 1-3.951 3.144H47.76a4.056 4.056 0 0 1-3.951-3.144l-12.186-52.771h107.21Z" fill="#fff"/><path d="M141.052 142.107H29.402a4.057 4.057 0 0 1-4.052-4.061v-17.597a4.057 4.057 0 0 1 4.052-4.061h111.651a4.056 4.056 0 0 1 4.052 4.061v17.597a4.057 4.057 0 0 1-4.053 4.061Z" fill="#fff"/><path d="M57.332 156.515v20.711a2.027 2.027 0 1 1-4.053 0v-20.711c0-1.12.908-2.03 2.027-2.03a2.03 2.03 0 0 1 2.026 2.03ZM70.268 154.486c1.12 0 2.026.909 2.026 2.03v20.711a2.028 2.028 0 0 1-2.026 2.031 2.028 2.028 0 0 1-2.026-2.031v-20.711c0-1.121.907-2.03 2.026-2.03ZM85.228 154.486c1.12 0 2.027.909 2.027 2.03v20.711a2.028 2.028 0 0 1-2.026 2.031 2.029 2.029 0 0 1-2.027-2.031v-20.711c0-1.121.907-2.03 2.026-2.03ZM100.19 154.486c1.119 0 2.026.909 2.026 2.03v20.711a2.028 2.028 0 0 1-2.026 2.031 2.028 2.028 0 0 1-2.026-2.031v-20.711c0-1.121.907-2.03 2.026-2.03ZM117.178 156.515v20.711a2.026 2.026 0 1 1-4.053 0v-20.711a2.03 2.03 0 0 1 2.026-2.031 2.03 2.03 0 0 1 2.027 2.031Z" fill="#026592"/><path d="M144.739 175.785a6.306 6.306 0 0 1-8.932 0L94.87 134.762a6.338 6.338 0 0 1 0-8.951 6.307 6.307 0 0 1 8.932 0l40.937 41.023a6.34 6.34 0 0 1 0 8.951ZM75.587 125.811a6.306 6.306 0 0 0-8.932 0l-40.937 41.023a6.338 6.338 0 0 0 0 8.951 6.306 6.306 0 0 0 8.932 0l40.937-41.023a6.338 6.338 0 0 0 0-8.951ZM48.347 45.77c1.253-7.742-3.995-15.035-11.72-16.29-7.725-1.255-15.003 4.004-16.255 11.745-1.253 7.742 3.995 15.035 11.72 16.29 7.725 1.255 15.003-4.004 16.255-11.745Z" fill="#03A9F4"/><path d="M34.371 50.3a2.029 2.029 0 0 1-2.026-2.03v-9.54c0-1.12.908-2.03 2.026-2.03 1.12 0 2.027.91 2.027 2.03v9.54c0 1.121-.908 2.03-2.027 2.03Z" fill="#026592"/><path d="M39.13 45.531h-9.518a2.029 2.029 0 0 1-2.026-2.03c0-1.121.907-2.03 2.026-2.03h9.518c1.12 0 2.027.909 2.027 2.03 0 1.12-.907 2.03-2.027 2.03Z" fill="#026592"/><path d="M148.444 87.577c2.661-7.373-1.146-15.512-8.503-18.179-7.358-2.667-15.479 1.148-18.14 8.521-2.662 7.373 1.145 15.512 8.503 18.179 7.357 2.666 15.479-1.149 18.14-8.521Z" fill="#03A9F4"/><path d="M92.837 114.455H27.683c-3.349 0-6.074 2.734-6.074 6.094v17.605c0 3.36 2.725 6.094 6.074 6.094h1.347l2.77 12.009-9.23 9.262c-3.25 3.261-3.25 8.567 0 11.828a8.293 8.293 0 0 0 5.894 2.446c2.135 0 4.27-.815 5.894-2.446l1.873-1.879 3.876 16.807a6.05 6.05 0 0 0 5.917 4.72h74.878a6.05 6.05 0 0 0 5.917-4.72l3.877-16.807 1.872 1.879a8.292 8.292 0 0 0 5.894 2.446 8.294 8.294 0 0 0 5.894-2.446c3.25-3.261 3.25-8.567 0-11.828l-9.23-9.262 2.77-12.009h1.346c3.349 0 6.074-2.734 6.074-6.094v-17.605c0-3.36-2.725-6.094-6.074-6.094H92.836Zm-59.65 29.793h10.582l-8.594 8.624-1.989-8.624Zm-1.691 30.227a4.281 4.281 0 0 1-6.062 0 4.316 4.316 0 0 1 0-6.083l40.903-41.042a4.264 4.264 0 0 1 3.031-1.259c1.098 0 2.196.42 3.03 1.259a4.314 4.314 0 0 1 0 6.081l-40.902 41.044Zm109.997 0a4.28 4.28 0 0 1-6.061 0l-40.904-41.042a4.316 4.316 0 0 1 0-6.083 4.253 4.253 0 0 1 3.03-1.26c1.146 0 2.222.447 3.031 1.26l40.904 41.042a4.315 4.315 0 0 1 0 6.083Zm-9.741-21.604-8.594-8.623h10.583l-1.989 8.623Zm9.515-32.322v17.605a2.03 2.03 0 0 1-2.024 2.032h-20.134l-15.656-15.709c-3.251-3.261-8.539-3.261-11.789 0s-3.25 8.567 0 11.828l3.868 3.881H79.857a2.028 2.028 0 0 0-2.025 2.031c0 1.122.907 2.031 2.025 2.031H99.58l27.74 27.834-4.446 19.277a2.017 2.017 0 0 1-1.973 1.573H46.024a2.016 2.016 0 0 1-1.972-1.573l-4.446-19.277 35.656-35.777c3.25-3.261 3.25-8.567 0-11.828-3.25-3.261-8.538-3.261-11.788 0l-15.656 15.709H27.684a2.03 2.03 0 0 1-2.024-2.032v-17.605a2.03 2.03 0 0 1 2.024-2.031h111.559a2.03 2.03 0 0 1 2.024 2.031Z" fill="#026592"/><path d="M100.12 129.129a2.004 2.004 0 0 0-2.013 1.995v.045c0 1.102.901 1.995 2.013 1.995a2.004 2.004 0 0 0 2.013-1.995v-.045a2.004 2.004 0 0 0-2.013-1.995ZM70.47 129.129a2.004 2.004 0 0 0-2.014 1.995v.045c0 1.102.901 1.995 2.013 1.995a2.004 2.004 0 0 0 2.014-1.995v-.045a2.004 2.004 0 0 0-2.014-1.995ZM135.196 89.531a2.028 2.028 0 0 1-2.026-2.03v-9.539c0-1.121.907-2.03 2.026-2.03 1.119 0 2.026.909 2.026 2.03v9.539c0 1.121-.907 2.03-2.026 2.03Z" fill="#026592"/><path d="M139.955 84.761h-9.519a2.029 2.029 0 0 1-2.026-2.03c0-1.122.908-2.03 2.026-2.03h9.519c1.119 0 2.026.908 2.026 2.03 0 1.12-.907 2.03-2.026 2.03Z" fill="#026592"/><path d="M28.37 94.279c-.515 0-1.03-.197-1.424-.591a2.02 2.02 0 0 1 0-2.854l4.027-4.035a2.01 2.01 0 0 1 2.847 0 2.02 2.02 0 0 1 0 2.853l-4.026 4.036c-.393.393-.908.59-1.424.59ZM149.632 159.576a2.2 2.2 0 0 1-1.488-.564c-.823-.752-.823-1.972 0-2.723l4.209-3.853c.822-.751 2.155-.751 2.977 0 .822.753.822 1.972 0 2.724l-4.21 3.852a2.2 2.2 0 0 1-1.488.564ZM82.537 12.995a2.02 2.02 0 0 1-1.433-.595l-2.62-2.625-2.619 2.625a2.024 2.024 0 0 1-2.865 0 2.033 2.033 0 0 1 0-2.871l4.052-4.061a2.024 2.024 0 0 1 2.865 0l4.053 4.06a2.033 2.033 0 0 1 0 2.872 2.018 2.018 0 0 1-1.433.595ZM161.963 56.04a2.02 2.02 0 0 1-1.433-.594l-2.619-2.625-2.619 2.625a2.024 2.024 0 0 1-2.866 0 2.034 2.034 0 0 1 0-2.872l4.052-4.06a2.024 2.024 0 0 1 2.866 0l4.052 4.06a2.032 2.032 0 0 1-1.433 3.466ZM17.888 152.306a2.02 2.02 0 0 1-1.433-.595l-2.62-2.625-2.384 2.39a2.025 2.025 0 0 1-2.865 0 2.034 2.034 0 0 1 0-2.872l3.817-3.825a2.023 2.023 0 0 1 2.865 0l4.053 4.061a2.034 2.034 0 0 1 0 2.872 2.023 2.023 0 0 1-1.433.594Z" fill="#03A9F4"/><defs><linearGradient id="a" x1="105.262" y1="-4.672" x2="102.282" y2="131.236" gradientUnits="userSpaceOnUse"><stop stop-color="#CBEEFE" stop-opacity="0"/><stop offset="1" stop-color="#97DEFE"/></linearGradient></defs></svg>
