<svg width="24" height="24" viewBox="0 0 24 24" fill="none" xmlns="http://www.w3.org/2000/svg"><path d="M5.63364 17.4821C5.28651 17.1349 4.72369 17.1349 4.37656 17.4821C4.02943 17.8292 4.02943 18.392 4.37656 18.7392L6.74693 21.1095C7.09406 21.4567 7.65688 21.4567 8.00401 21.1095L10.3744 18.7392C10.7215 18.392 10.7215 17.8292 10.3744 17.4821C10.0272 17.1349 9.46443 17.1349 9.1173 17.4821L8.26436 18.335V6.25876C8.26436 5.76784 7.86639 5.36987 7.37547 5.36987C6.88455 5.36987 6.48658 5.76784 6.48658 6.25876L6.48658 18.335L5.63364 17.4821Z" fill="#424763"></path><path d="M13.858 6.8873C14.2052 7.23443 14.768 7.23443 15.1151 6.8873L15.9681 6.03436L15.9681 18.1106C15.9681 18.6015 16.366 18.9995 16.857 18.9995C17.3479 18.9995 17.7458 18.6015 17.7458 18.1106V6.03436L18.5988 6.8873C18.9459 7.23443 19.5087 7.23443 19.8559 6.8873C20.203 6.54017 20.203 5.97735 19.8559 5.63022L17.4855 3.25985C17.1384 2.91272 16.5755 2.91272 16.2284 3.25985L13.858 5.63022C13.5109 5.97735 13.5109 6.54017 13.858 6.8873Z" fill="#424763"></path></svg>
