<svg width="60" height="40" viewBox="0 0 60 40" fill="none" xmlns="http://www.w3.org/2000/svg"><rect width="60" height="40" rx="4" fill="#F7F7F7"></rect><path d="M15.7808 14.5023C14.6536 14.5023 13.7443 15.1659 13.157 15.1659C12.5413 15.1659 11.7172 14.5392 10.7416 14.5392C8.88499 14.5392 7 16.0415 7 18.8525C7 20.6129 7.70095 22.4654 8.56293 23.6728C9.2923 24.6774 9.94589 25.5069 10.8742 25.5069C11.793 25.5069 12.2003 24.9171 13.3465 24.9171C14.5021 24.9171 14.7673 25.4885 15.7808 25.4885C16.7944 25.4885 17.4669 24.5945 18.1016 23.7097C18.8025 22.6866 19.1056 21.6912 19.1151 21.6452C19.0583 21.6267 17.1259 20.8618 17.1259 18.7051C17.1259 16.8433 18.6415 16.0138 18.7267 15.9493C17.7321 14.5392 16.2071 14.5023 15.7808 14.5023ZM15.2599 13.3134C15.7145 12.7696 16.0366 12.0323 16.0366 11.2857C16.0366 11.1843 16.0271 11.0829 16.0082 11C15.2693 11.0276 14.36 11.4793 13.8201 12.0968C13.4033 12.5668 13.0055 13.3134 13.0055 14.0599C13.0055 14.1705 13.0244 14.2903 13.0339 14.3272C13.0812 14.3364 13.157 14.3456 13.2328 14.3456C13.9053 14.3456 14.7578 13.9032 15.2599 13.3134Z" fill="black"></path><path d="M22.8385 12.0415V25.341H25.2824V20.9816H28.2472C31.0131 20.9816 32.9455 19.1751 32.9455 16.5392C32.9455 13.8571 31.0794 12.0415 28.3514 12.0415H22.8385ZM25.2824 14.0323H27.7073C29.4692 14.0323 30.4637 14.9078 30.4637 16.5392C30.4637 18.1244 29.4407 19.0092 27.6978 19.0092H25.2824V14.0323Z" fill="black"></path><path d="M37.5309 23.7097C36.4889 23.7097 35.7406 23.2028 35.7406 22.3548C35.7406 21.5346 36.3563 21.0737 37.673 20.9908L40.0126 20.8433V21.6452C40.0126 22.8157 38.9517 23.7097 37.5309 23.7097ZM36.8394 25.5069C38.194 25.5069 39.3306 24.9355 39.9084 23.9585H40.0695V25.341H42.3334V18.4562C42.3334 16.318 40.8367 15.0553 38.175 15.0553C35.7122 15.0553 33.9977 16.1889 33.8083 17.9677H36.0248C36.2427 17.2857 36.9815 16.9171 38.0613 16.9171C39.3306 16.9171 40.0126 17.47 40.0126 18.4562V19.3041L37.3414 19.4608C34.8218 19.6083 33.4104 20.659 33.4104 22.4839C33.4104 24.3272 34.8408 25.5069 36.8394 25.5069Z" fill="black"></path><path d="M44.9485 29C47.2692 29 48.3775 28.1705 49.2584 25.6636L53 15.2581H50.5182L48.1028 23.129H47.9418L45.5169 15.2581H42.9404L46.6441 25.3871L46.5209 25.8295C46.2178 26.7604 45.6589 27.129 44.6644 27.129C44.5033 27.129 44.1528 27.1198 44.0202 27.0922V28.9631C44.1718 28.9908 44.8064 29 44.9485 29Z" fill="black"></path></svg>