<svg width="60" height="40" viewBox="0 0 60 40" fill="none" xmlns="http://www.w3.org/2000/svg"><rect width="60" height="40" rx="4" fill="#F7F7F7"></rect><path d="M28.4661 19.2682V24.2804H26.7773V11.9033H31.2542C32.3888 11.9033 33.3563 12.2596 34.1479 12.972C34.9571 13.6845 35.3617 14.5544 35.3617 15.5816C35.3617 16.6338 34.9571 17.5036 34.1479 18.2078C33.3651 18.912 32.3976 19.26 31.2542 19.26H28.4661V19.2682ZM28.4661 13.4277V17.7439H31.2894C31.9578 17.7439 32.5208 17.5285 32.9605 17.106C33.4091 16.6835 33.6378 16.1698 33.6378 15.5899C33.6378 15.0183 33.4091 14.5129 32.9605 14.0904C32.5208 13.6514 31.9666 13.436 31.2894 13.436H28.4661V13.4277Z" fill="#5F6368"></path><path d="M39.7782 15.5312C41.0272 15.5312 42.0123 15.8461 42.7335 16.4757C43.4547 17.1053 43.8153 17.9669 43.8153 19.0605V24.2797H42.2058V23.1033H42.1354C41.4406 24.0726 40.5083 24.5531 39.3473 24.5531C38.3534 24.5531 37.5266 24.2797 36.8582 23.7246C36.1897 23.1696 35.8555 22.482 35.8555 21.6535C35.8555 20.7753 36.2073 20.0794 36.9109 19.5658C37.6146 19.0439 38.5557 18.7871 39.7255 18.7871C40.7281 18.7871 41.5549 18.961 42.197 19.309V18.9445C42.197 18.3894 41.9683 17.9255 41.5021 17.5361C41.036 17.1467 40.4907 16.9562 39.8662 16.9562C38.9251 16.9562 38.1775 17.329 37.6321 18.0829L36.1457 17.2047C36.9637 16.0863 38.1775 15.5312 39.7782 15.5312ZM37.597 21.6784C37.597 22.0926 37.7817 22.4405 38.1599 22.7139C38.5293 22.9873 38.9691 23.1281 39.4704 23.1281C40.1828 23.1281 40.8161 22.8796 41.3702 22.3825C41.9243 21.8855 42.2058 21.3056 42.2058 20.6345C41.678 20.2451 40.948 20.0463 40.0069 20.0463C39.3209 20.0463 38.7492 20.2037 38.2918 20.5102C37.8256 20.8333 37.597 21.2227 37.597 21.6784Z" fill="#5F6368"></path><path d="M52.9967 15.8057L47.3677 28.0005H45.6262L47.7195 23.7339L44.0078 15.8057H45.8461L48.5199 21.8865H48.555L51.1585 15.8057H52.9967Z" fill="#5F6368"></path><path d="M21.7544 18.2577C21.7544 17.7391 21.7052 17.2428 21.6137 16.7656H14.5352V19.4995L18.6118 19.5003C18.4465 20.41 17.9144 21.1854 17.099 21.7024V23.4761H19.5257C20.9426 22.2409 21.7544 20.415 21.7544 18.2577Z" fill="#4285F4"></path><path d="M17.0975 21.7014C16.4221 22.1305 15.5522 22.3816 14.5346 22.3816C12.5688 22.3816 10.9012 21.1339 10.304 19.4521H7.80078V21.2814C9.04094 23.5994 11.5898 25.19 14.5346 25.19C16.5698 25.19 18.2796 24.5596 19.5242 23.4743L17.0975 21.7014Z" fill="#34A853"></path><path d="M10.0687 18.0953C10.0687 17.623 10.1523 17.1666 10.3044 16.7374V14.9082H7.80126C7.28849 15.8667 7 16.9487 7 18.0953C7 19.2418 7.28937 20.3238 7.80126 21.2823L10.3044 19.4531C10.1523 19.0239 10.0687 18.5675 10.0687 18.0953Z" fill="#FABB05"></path><path d="M14.5346 13.8084C15.6454 13.8084 16.6402 14.1688 17.4256 14.873L19.5761 12.8491C18.27 11.7034 16.5672 11 14.5346 11C11.5907 11 9.04094 12.5906 7.80078 14.9086L10.304 16.7379C10.9012 15.0561 12.5688 13.8084 14.5346 13.8084Z" fill="#E94235"></path></svg>