<svg width="60" height="40" viewBox="0 0 60 40" fill="none" xmlns="http://www.w3.org/2000/svg"><rect width="60" height="40" fill="white"></rect><rect width="60" height="40" rx="4" fill="#F7F7F7"></rect><g clip-path="url(#clip0_13963_32314)"><path d="M39.8733 13.0983C39.1343 12.8052 37.9622 12.4814 36.5129 12.4814C32.813 12.4814 30.2076 14.4544 30.1916 17.2751C30.1609 19.3563 32.057 20.5122 33.4752 21.2061C34.9247 21.9152 35.4174 22.378 35.4174 23.01C35.4027 23.9808 34.2462 24.4282 33.1675 24.4282C31.6717 24.4282 30.8702 24.1975 29.6522 23.6575L29.1589 23.4259L28.6346 26.6786C29.5133 27.0789 31.1322 27.4341 32.813 27.4497C36.7442 27.4497 39.3035 25.5073 39.3339 22.5013C39.3488 20.8519 38.3476 19.588 36.189 18.5552C34.8786 17.8922 34.0761 17.4452 34.0761 16.7668C34.0915 16.1502 34.7549 15.5185 36.2341 15.5185C37.4521 15.4876 38.347 15.7804 39.0249 16.0733L39.3638 16.2272L39.8733 13.0983Z" fill="url(#paint0_linear_13963_32314)"></path><path d="M26.2916 27.2338H22.545L24.8884 12.7441H28.6348L26.2916 27.2338Z" fill="url(#paint1_linear_13963_32314)"></path><path fill-rule="evenodd" clip-rule="evenodd" d="M49.4775 12.7441H46.5795C45.6858 12.7441 45.0069 13.0059 44.6213 13.9463L39.0562 27.2336H42.9874C42.9874 27.2336 43.6346 25.4452 43.7737 25.06H48.584C48.6915 25.5687 49.031 27.2336 49.031 27.2336H52.5L49.4775 12.7441ZM44.8528 22.1006C45.1613 21.2682 46.3486 18.0465 46.3486 18.0465C46.3423 18.0589 46.3906 17.9251 46.4626 17.7255L46.4635 17.723L46.4641 17.7214C46.5716 17.4233 46.7313 16.9808 46.8415 16.6593L47.1034 17.9078C47.1034 17.9078 47.8128 21.3762 47.9669 22.1006H44.8528Z" fill="url(#paint2_linear_13963_32314)"></path><path d="M19.4158 12.7441L15.7466 22.6247L15.3457 20.6208L15.3453 20.6195L14.0353 13.9621C13.8196 13.0367 13.1566 12.7746 12.3395 12.7441H6.31167L6.25 13.0369C7.72018 13.4128 9.03511 13.9546 10.1873 14.6282L13.5266 27.2184H17.4885L23.3775 12.7441H19.4158Z" fill="url(#paint3_linear_13963_32314)"></path></g><defs><linearGradient id="paint0_linear_13963_32314" x1="6.25" y1="19.9971" x2="52.5" y2="19.9971" gradientUnits="userSpaceOnUse"><stop stop-color="#222357"></stop><stop offset="1" stop-color="#254AA5"></stop></linearGradient><linearGradient id="paint1_linear_13963_32314" x1="6.25" y1="19.9971" x2="52.5" y2="19.9971" gradientUnits="userSpaceOnUse"><stop stop-color="#222357"></stop><stop offset="1" stop-color="#254AA5"></stop></linearGradient><linearGradient id="paint2_linear_13963_32314" x1="6.25" y1="19.9971" x2="52.5" y2="19.9971" gradientUnits="userSpaceOnUse"><stop stop-color="#222357"></stop><stop offset="1" stop-color="#254AA5"></stop></linearGradient><linearGradient id="paint3_linear_13963_32314" x1="6.25" y1="19.9971" x2="52.5" y2="19.9971" gradientUnits="userSpaceOnUse"><stop stop-color="#222357"></stop><stop offset="1" stop-color="#254AA5"></stop></linearGradient><clipPath id="clip0_13963_32314"><rect width="46.25" height="14.9683" fill="white" transform="translate(6.25 12.4814)"></rect></clipPath></defs></svg>