<svg width="60" height="40" viewBox="0 0 60 40" fill="none" xmlns="http://www.w3.org/2000/svg"><rect width="60" height="40" rx="4" fill="#F7F7F7"></rect><g clip-path="url(#clip0_13963_32318)"><path d="M49.9984 20.1554C49.9984 26.9881 44.4705 32.516 37.6379 32.516C34.7538 32.516 32.11 31.5203 30.0156 29.8722C32.8997 27.6061 34.7195 24.1039 34.7195 20.1554C34.7195 16.2069 32.8654 12.7048 30.0156 10.4387C32.11 8.79063 34.7538 7.79492 37.6379 7.79492C44.4705 7.79492 49.9984 13.3572 49.9984 20.1554Z" fill="#F79E1B"></path><path d="M30.0195 10.4385C30.0195 10.4385 30.0195 10.4385 30.0195 10.4385C32.8693 12.7046 34.7233 16.2067 34.7233 20.1552C34.7233 24.1037 32.9036 27.6059 30.0195 29.872L29.985 29.872C27.1353 27.6402 25.2812 24.1037 25.2812 20.1553C25.2812 16.2068 27.1353 12.7046 29.9851 10.4386C29.9851 10.4385 29.9851 10.4386 29.9851 10.4386L30.0195 10.4385Z" fill="#FF5F00"></path><path d="M25.279 20.1554C25.279 16.2069 27.133 12.7048 29.9828 10.4387C27.8884 8.79063 25.2446 7.79492 22.3605 7.79492C15.5279 7.79492 10 13.3228 10 20.1554C10 26.9881 15.5279 32.516 22.3605 32.516C25.2446 32.516 27.8884 31.5203 29.9828 29.8722C27.133 27.6404 25.279 24.1039 25.279 20.1554Z" fill="#EB001B"></path></g><defs><clipPath id="clip0_13963_32318"><rect width="40" height="24.721" fill="white" transform="translate(10 7.79492)"></rect></clipPath></defs></svg>